<svg width="81" height="81" viewBox="0 0 81 81" fill="none" xmlns="http://www.w3.org/2000/svg">
<path d="M76.7079 60.4741H72.1319C73.3799 59.4341 74.1799 57.8821 74.1799 56.1381C74.1799 54.9541 73.8119 53.8661 73.1879 52.9541H75.4119C75.7479 52.9541 76.0839 52.8261 76.3239 52.5701L77.6039 51.2741C77.8439 51.0341 77.9719 50.7141 77.9719 50.3781V46.7301C77.9719 46.0261 77.3959 45.4501 76.6919 45.4501H4.1959C3.4919 45.4501 2.9159 46.0261 2.9159 46.7301V50.3781C2.9159 50.7141 3.0439 51.0341 3.2839 51.2741L4.5639 52.5701C4.8039 52.8101 5.1239 52.9541 5.4759 52.9541H7.6999C7.0759 53.8661 6.7079 54.9541 6.7079 56.1381C6.7079 57.8821 7.5079 59.4501 8.7559 60.4741H4.1799C3.4759 60.4741 2.8999 61.0501 2.8999 61.7541C2.8999 62.4581 3.4759 63.0341 4.1799 63.0341H76.7079C77.4119 63.0341 77.9879 62.4581 77.9879 61.7541C77.9879 61.0501 77.4119 60.4741 76.7079 60.4741ZM6.0039 50.3781L5.4599 49.8341V47.9941H75.3959V49.8501L74.8519 50.3941H6.0039V50.3781ZM63.9239 52.9381C63.3959 53.7061 63.0439 54.6181 62.9639 55.5941H60.3559C60.2599 54.6181 59.9239 53.7061 59.3959 52.9381H63.9239ZM21.4919 52.9381C20.9639 53.7061 20.6119 54.6181 20.5319 55.5941H17.9239C17.8279 54.6181 17.4919 53.7061 16.9639 52.9381H21.4919ZM12.3239 59.1941C10.6439 59.1941 9.2679 57.8181 9.2679 56.1381C9.2679 54.4581 10.6439 53.0821 12.3239 53.0821C14.0039 53.0821 15.3799 54.4581 15.3799 56.1381C15.3799 57.8181 14.0199 59.1941 12.3239 59.1941ZM15.8919 60.4741C16.6279 59.8661 17.2199 59.0661 17.5719 58.1541H20.8839C21.2359 59.0661 21.8119 59.8501 22.5639 60.4741H15.8919ZM26.1319 59.1941C24.4519 59.1941 23.0759 57.8181 23.0759 56.1381C23.0759 54.4581 24.4519 53.0821 26.1319 53.0821C27.8119 53.0821 29.1879 54.4581 29.1879 56.1381C29.1879 57.8181 27.8119 59.1941 26.1319 59.1941ZM29.6839 60.4741C30.9319 59.4341 31.7319 57.8821 31.7319 56.1381C31.7319 54.9541 31.3639 53.8661 30.7399 52.9541H50.1159C49.4919 53.8661 49.1239 54.9541 49.1239 56.1381C49.1239 57.8821 49.9239 59.4501 51.1719 60.4741H29.6839ZM54.7559 59.1941C53.0759 59.1941 51.6999 57.8181 51.6999 56.1381C51.6999 54.4581 53.0759 53.0821 54.7559 53.0821C56.4359 53.0821 57.8119 54.4581 57.8119 56.1381C57.8119 57.8181 56.4519 59.1941 54.7559 59.1941ZM58.3239 60.4741C59.0599 59.8661 59.6519 59.0661 60.0039 58.1541H63.3159C63.6679 59.0661 64.2599 59.8501 64.9959 60.4741H58.3239ZM68.5479 59.1941C66.8679 59.1941 65.4919 57.8181 65.4919 56.1381C65.4919 54.4581 66.8679 53.0821 68.5479 53.0821C70.2279 53.0821 71.6039 54.4581 71.6039 56.1381C71.6199 57.8181 70.2439 59.1941 68.5479 59.1941Z" fill="#0054A0"/>
<path d="M76.82 68.042H60.3239C59.6199 68.042 59.0439 67.466 59.0439 66.7621C59.0439 66.0581 59.6199 65.4821 60.3239 65.4821H76.82C77.524 65.4821 78.1 66.0581 78.1 66.7621C78.1 67.466 77.54 68.042 76.82 68.042Z" fill="#0054A0"/>
<path d="M55.4281 68.042H4.19602C3.49202 68.042 2.91602 67.466 2.91602 66.7621C2.91602 66.0581 3.49202 65.4821 4.19602 65.4821H55.4281C56.132 65.4821 56.708 66.0581 56.708 66.7621C56.708 67.466 56.132 68.042 55.4281 68.042Z" fill="#0054A0"/>
<path d="M71.6518 34.97C71.4278 35.946 71.0918 36.81 70.5638 37.61C69.5078 39.21 67.8918 39.898 65.9878 39.946C65.5398 39.962 65.0918 39.946 64.8198 39.946C64.1958 40.97 63.7478 41.978 63.0598 42.794C59.5718 46.922 52.8518 45.626 51.0758 40.506C50.9318 40.074 50.7398 39.93 50.2758 39.93C43.5238 39.946 36.7558 39.946 30.0038 39.93C29.5718 39.93 29.3798 40.026 29.2358 40.474C28.2758 43.322 25.5718 45.242 22.5638 45.258C19.5398 45.258 16.8678 43.37 15.8758 40.506C15.7158 40.058 15.5238 39.946 15.0598 39.93C11.7638 39.914 9.41182 37.562 9.33182 34.266C9.31582 33.178 9.33182 32.074 9.33182 30.986C9.34782 28.09 10.9318 25.994 13.7158 25.226C16.5638 24.442 19.4118 23.658 22.2758 22.906C22.7238 22.778 23.0598 22.57 23.3478 22.186C25.0278 19.946 26.7558 17.738 28.4358 15.498C29.9398 13.498 31.9398 12.474 34.4358 12.474C40.5638 12.474 46.6918 12.458 52.8198 12.474C55.6038 12.474 57.7158 13.674 59.1878 16.042C60.4838 18.154 61.7958 20.234 63.1398 22.314C63.3158 22.602 63.6198 22.858 63.9398 23.002C65.2838 23.658 66.6598 24.266 68.0198 24.874C69.9238 25.722 71.1558 26.906 71.6038 28.89C71.6518 29.114 71.7158 29.37 71.7158 29.466C71.9078 31.434 71.8278 34.058 71.6518 34.97ZM29.6358 37.338C36.6438 37.338 43.6518 37.338 50.6598 37.338C51.4438 32.938 54.7558 31.178 57.5238 31.066C59.0278 31.002 60.4198 31.418 61.6678 32.25C63.4918 33.466 64.4998 35.21 64.8038 37.37C65.2038 37.37 65.5398 37.37 65.8918 37.37C67.8758 37.354 69.1078 36.106 69.1078 34.122C69.1078 32.89 69.0918 31.642 69.1078 30.41C69.1238 28.906 68.4358 27.882 67.0758 27.258C65.5078 26.554 63.9238 25.85 62.3878 25.098C61.9558 24.89 61.5398 24.522 61.2838 24.138C59.8758 21.962 58.4838 19.77 57.1558 17.546C56.0998 15.786 54.6118 14.986 52.5798 15.002C46.6598 15.034 40.7398 15.034 34.8038 15.002C32.8838 14.986 31.4278 15.706 30.2758 17.258C28.5478 19.594 26.7558 21.866 25.0118 24.186C24.6278 24.698 24.1638 25.018 23.5398 25.162C22.5958 25.386 21.6678 25.658 20.7238 25.914C18.5318 26.506 16.3398 27.098 14.1638 27.722C12.8038 28.106 11.9398 29.13 11.9078 30.41C11.8598 31.77 11.8598 33.13 11.9078 34.49C11.9878 36.346 13.6358 37.626 15.4758 37.29C16.2438 32.906 19.6678 31.05 22.5958 31.05C25.3158 31.05 28.8518 32.81 29.6358 37.338ZM22.5318 42.65C25.0118 42.65 27.0758 40.618 27.0758 38.138C27.0758 35.674 25.0278 33.61 22.5478 33.61C20.0678 33.61 18.0198 35.642 18.0038 38.122C18.0038 40.586 20.0518 42.65 22.5318 42.65ZM57.7318 42.65C60.2118 42.65 62.2758 40.602 62.2758 38.138C62.2758 35.658 60.2118 33.61 57.7318 33.61C55.2518 33.61 53.2038 35.658 53.1878 38.138C53.2038 40.602 55.2518 42.65 57.7318 42.65Z" fill="#0054A0"/>
</svg>
