<svg width="81" height="81" viewBox="0 0 81 81" fill="none" xmlns="http://www.w3.org/2000/svg">
<mask id="path-1-outside-1_168_1684" maskUnits="userSpaceOnUse" x="4.5" y="4.25" width="72" height="72" fill="black">
<rect fill="white" x="4.5" y="4.25" width="72" height="72"/>
<path fill-rule="evenodd" clip-rule="evenodd" d="M19.455 5.48935C19.1972 5.62074 18.8588 5.90196 18.7031 6.11428C18.4329 6.48245 18.4199 6.67249 18.4199 10.2618V14.0237L18.7427 14.2851C19.1243 14.5942 19.698 14.6234 20.0686 14.3526C20.3155 14.1723 20.3388 13.9232 20.4023 10.7638L20.4707 7.36891L23.5811 7.33214L26.6914 7.29536V9.56729C26.6914 13.0338 26.8645 13.2317 29.831 13.1558C32.4315 13.0893 32.5703 12.9037 32.5703 9.49237V7.30055H35.6465H38.7227V14.4033V21.5062L35.0873 21.5467C31.4541 21.5873 31.4518 21.5874 31.1908 21.9101C30.9458 22.2129 30.9297 22.5059 30.9297 26.6609V31.089H25.666H20.4023V24.1265V17.1639L20.0421 16.8806C19.5731 16.5116 19.2735 16.5229 18.8036 16.9271L18.4199 17.257L18.3821 24.1661L18.3443 31.0752L15.0763 31.1163C12.0218 31.1546 11.7832 31.1758 11.4228 31.4405C10.5373 32.0906 10.559 31.8666 10.5589 40.3514L10.5586 48.0416L8.74707 48.0419C6.65404 48.0421 6.13479 48.2073 5.73953 48.9986C5.51709 49.4438 5.50041 50.3528 5.50027 62.0269L5.5 74.5768L5.83564 74.9123L6.17115 75.2479H11.9012C17.4909 75.2479 17.6399 75.241 17.9913 74.9645C18.4428 74.6095 18.4853 73.8778 18.0781 73.4706C17.8144 73.2069 17.6224 73.1972 12.6777 73.1972H7.55078V61.6448V50.0924H14.7969H22.043V52.4234C22.043 55.7963 22.185 55.9711 24.9232 55.9711C27.6186 55.9711 27.7852 55.765 27.7852 52.4297V50.0924H35.0313H42.2773V61.6448V73.1972H31.6968C21.6179 73.1972 21.1015 73.2091 20.8048 73.4493C20.3537 73.8146 20.3829 74.5126 20.8669 74.9288L21.2403 75.25L48.1088 75.2147L74.9773 75.1796L75.2386 74.8568C75.4906 74.5458 75.5 74.1795 75.4997 64.7399C75.4996 55.6894 75.4814 54.9094 75.2605 54.4673C74.7924 53.5302 74.6673 53.5107 69.1084 53.5105L64.1524 53.5103V45.4678V37.4256L63.836 37.1282C63.4161 36.7339 62.8545 36.7494 62.4372 37.1666L62.1016 37.5021V45.5063V53.5103H53.2148H44.3281V51.1116C44.3281 48.747 44.3233 48.708 43.9925 48.3773L43.657 48.0416H38.3187H32.9805V35.8056V23.5696H38.791H44.6016V25.7615C44.6016 28.0941 44.7025 28.5911 45.2807 29.1066C45.5571 29.3531 45.7806 29.38 47.5528 29.38H49.5182L49.9652 28.9334L50.4121 28.4869L50.4549 26.0282L50.4977 23.5696H56.2996H62.1016V28.69C62.1016 32.1515 62.1508 33.9183 62.2533 34.1436C62.4055 34.4773 62.8922 34.7803 63.2764 34.7803C63.389 34.7803 63.6321 34.6292 63.8167 34.4446L64.1524 34.1091L64.1518 28.4634C64.1514 23.1808 64.1349 22.7906 63.8945 22.3966C63.3367 21.4819 63.8501 21.5189 51.7245 21.5189H40.7734L40.7729 14.0338C40.7725 6.76723 40.7644 6.53536 40.4964 6.0961C39.9663 5.22645 40.2668 5.24983 29.6011 5.2501C20.658 5.25024 19.8883 5.26842 19.455 5.48935ZM30.5195 9.21457V11.1286H29.6309H28.7422V9.21457V7.30055H29.6309H30.5195V9.21457ZM48.4297 25.4837V27.3977H47.541H46.6523V25.4837V23.5696H47.541H48.4297V25.4837ZM18.8984 35.4707C18.8984 38.8782 19.0133 39.0187 21.7969 39.0179C23.2208 39.0175 23.5452 38.9768 23.9141 38.7519C24.6365 38.3114 24.699 38.0695 24.754 35.498L24.8044 33.1397H27.8671H30.9297V40.5907V48.0416H21.7695H12.6094V40.5907V33.1397H15.7539H18.8984V35.4707ZM22.6962 35.0879L22.7342 36.9677H21.8417H20.9492V35.0472V33.1267L21.8037 33.1673L22.6582 33.2081L22.6962 35.0879ZM25.7344 52.0064V53.9204H24.9141H24.0938V52.0064V50.0924H24.9141H25.7344V52.0064ZM55.9492 57.8236C55.9492 60.3461 56.041 60.7027 56.8104 61.1718C57.1802 61.3973 57.5021 61.4388 58.8887 61.4388C60.2753 61.4388 60.5971 61.3973 60.9669 61.1718C61.7364 60.7027 61.8281 60.3461 61.8281 57.8236V55.561H67.6387H73.4492V64.3791V73.1972H58.8887H44.3281V64.3791V55.561H50.1387H55.9492V57.8236ZM59.7774 57.475V59.389H58.8887H58V57.475V55.561H58.8887H59.7774V57.475Z"/>
</mask>
<path fill-rule="evenodd" clip-rule="evenodd" d="M19.455 5.48935C19.1972 5.62074 18.8588 5.90196 18.7031 6.11428C18.4329 6.48245 18.4199 6.67249 18.4199 10.2618V14.0237L18.7427 14.2851C19.1243 14.5942 19.698 14.6234 20.0686 14.3526C20.3155 14.1723 20.3388 13.9232 20.4023 10.7638L20.4707 7.36891L23.5811 7.33214L26.6914 7.29536V9.56729C26.6914 13.0338 26.8645 13.2317 29.831 13.1558C32.4315 13.0893 32.5703 12.9037 32.5703 9.49237V7.30055H35.6465H38.7227V14.4033V21.5062L35.0873 21.5467C31.4541 21.5873 31.4518 21.5874 31.1908 21.9101C30.9458 22.2129 30.9297 22.5059 30.9297 26.6609V31.089H25.666H20.4023V24.1265V17.1639L20.0421 16.8806C19.5731 16.5116 19.2735 16.5229 18.8036 16.9271L18.4199 17.257L18.3821 24.1661L18.3443 31.0752L15.0763 31.1163C12.0218 31.1546 11.7832 31.1758 11.4228 31.4405C10.5373 32.0906 10.559 31.8666 10.5589 40.3514L10.5586 48.0416L8.74707 48.0419C6.65404 48.0421 6.13479 48.2073 5.73953 48.9986C5.51709 49.4438 5.50041 50.3528 5.50027 62.0269L5.5 74.5768L5.83564 74.9123L6.17115 75.2479H11.9012C17.4909 75.2479 17.6399 75.241 17.9913 74.9645C18.4428 74.6095 18.4853 73.8778 18.0781 73.4706C17.8144 73.2069 17.6224 73.1972 12.6777 73.1972H7.55078V61.6448V50.0924H14.7969H22.043V52.4234C22.043 55.7963 22.185 55.9711 24.9232 55.9711C27.6186 55.9711 27.7852 55.765 27.7852 52.4297V50.0924H35.0313H42.2773V61.6448V73.1972H31.6968C21.6179 73.1972 21.1015 73.2091 20.8048 73.4493C20.3537 73.8146 20.3829 74.5126 20.8669 74.9288L21.2403 75.25L48.1088 75.2147L74.9773 75.1796L75.2386 74.8568C75.4906 74.5458 75.5 74.1795 75.4997 64.7399C75.4996 55.6894 75.4814 54.9094 75.2605 54.4673C74.7924 53.5302 74.6673 53.5107 69.1084 53.5105L64.1524 53.5103V45.4678V37.4256L63.836 37.1282C63.4161 36.7339 62.8545 36.7494 62.4372 37.1666L62.1016 37.5021V45.5063V53.5103H53.2148H44.3281V51.1116C44.3281 48.747 44.3233 48.708 43.9925 48.3773L43.657 48.0416H38.3187H32.9805V35.8056V23.5696H38.791H44.6016V25.7615C44.6016 28.0941 44.7025 28.5911 45.2807 29.1066C45.5571 29.3531 45.7806 29.38 47.5528 29.38H49.5182L49.9652 28.9334L50.4121 28.4869L50.4549 26.0282L50.4977 23.5696H56.2996H62.1016V28.69C62.1016 32.1515 62.1508 33.9183 62.2533 34.1436C62.4055 34.4773 62.8922 34.7803 63.2764 34.7803C63.389 34.7803 63.6321 34.6292 63.8167 34.4446L64.1524 34.1091L64.1518 28.4634C64.1514 23.1808 64.1349 22.7906 63.8945 22.3966C63.3367 21.4819 63.8501 21.5189 51.7245 21.5189H40.7734L40.7729 14.0338C40.7725 6.76723 40.7644 6.53536 40.4964 6.0961C39.9663 5.22645 40.2668 5.24983 29.6011 5.2501C20.658 5.25024 19.8883 5.26842 19.455 5.48935ZM30.5195 9.21457V11.1286H29.6309H28.7422V9.21457V7.30055H29.6309H30.5195V9.21457ZM48.4297 25.4837V27.3977H47.541H46.6523V25.4837V23.5696H47.541H48.4297V25.4837ZM18.8984 35.4707C18.8984 38.8782 19.0133 39.0187 21.7969 39.0179C23.2208 39.0175 23.5452 38.9768 23.9141 38.7519C24.6365 38.3114 24.699 38.0695 24.754 35.498L24.8044 33.1397H27.8671H30.9297V40.5907V48.0416H21.7695H12.6094V40.5907V33.1397H15.7539H18.8984V35.4707ZM22.6962 35.0879L22.7342 36.9677H21.8417H20.9492V35.0472V33.1267L21.8037 33.1673L22.6582 33.2081L22.6962 35.0879ZM25.7344 52.0064V53.9204H24.9141H24.0938V52.0064V50.0924H24.9141H25.7344V52.0064ZM55.9492 57.8236C55.9492 60.3461 56.041 60.7027 56.8104 61.1718C57.1802 61.3973 57.5021 61.4388 58.8887 61.4388C60.2753 61.4388 60.5971 61.3973 60.9669 61.1718C61.7364 60.7027 61.8281 60.3461 61.8281 57.8236V55.561H67.6387H73.4492V64.3791V73.1972H58.8887H44.3281V64.3791V55.561H50.1387H55.9492V57.8236ZM59.7774 57.475V59.389H58.8887H58V57.475V55.561H58.8887H59.7774V57.475Z" fill="#0054A0"/>
<path fill-rule="evenodd" clip-rule="evenodd" d="M19.455 5.48935C19.1972 5.62074 18.8588 5.90196 18.7031 6.11428C18.4329 6.48245 18.4199 6.67249 18.4199 10.2618V14.0237L18.7427 14.2851C19.1243 14.5942 19.698 14.6234 20.0686 14.3526C20.3155 14.1723 20.3388 13.9232 20.4023 10.7638L20.4707 7.36891L23.5811 7.33214L26.6914 7.29536V9.56729C26.6914 13.0338 26.8645 13.2317 29.831 13.1558C32.4315 13.0893 32.5703 12.9037 32.5703 9.49237V7.30055H35.6465H38.7227V14.4033V21.5062L35.0873 21.5467C31.4541 21.5873 31.4518 21.5874 31.1908 21.9101C30.9458 22.2129 30.9297 22.5059 30.9297 26.6609V31.089H25.666H20.4023V24.1265V17.1639L20.0421 16.8806C19.5731 16.5116 19.2735 16.5229 18.8036 16.9271L18.4199 17.257L18.3821 24.1661L18.3443 31.0752L15.0763 31.1163C12.0218 31.1546 11.7832 31.1758 11.4228 31.4405C10.5373 32.0906 10.559 31.8666 10.5589 40.3514L10.5586 48.0416L8.74707 48.0419C6.65404 48.0421 6.13479 48.2073 5.73953 48.9986C5.51709 49.4438 5.50041 50.3528 5.50027 62.0269L5.5 74.5768L5.83564 74.9123L6.17115 75.2479H11.9012C17.4909 75.2479 17.6399 75.241 17.9913 74.9645C18.4428 74.6095 18.4853 73.8778 18.0781 73.4706C17.8144 73.2069 17.6224 73.1972 12.6777 73.1972H7.55078V61.6448V50.0924H14.7969H22.043V52.4234C22.043 55.7963 22.185 55.9711 24.9232 55.9711C27.6186 55.9711 27.7852 55.765 27.7852 52.4297V50.0924H35.0313H42.2773V61.6448V73.1972H31.6968C21.6179 73.1972 21.1015 73.2091 20.8048 73.4493C20.3537 73.8146 20.3829 74.5126 20.8669 74.9288L21.2403 75.25L48.1088 75.2147L74.9773 75.1796L75.2386 74.8568C75.4906 74.5458 75.5 74.1795 75.4997 64.7399C75.4996 55.6894 75.4814 54.9094 75.2605 54.4673C74.7924 53.5302 74.6673 53.5107 69.1084 53.5105L64.1524 53.5103V45.4678V37.4256L63.836 37.1282C63.4161 36.7339 62.8545 36.7494 62.4372 37.1666L62.1016 37.5021V45.5063V53.5103H53.2148H44.3281V51.1116C44.3281 48.747 44.3233 48.708 43.9925 48.3773L43.657 48.0416H38.3187H32.9805V35.8056V23.5696H38.791H44.6016V25.7615C44.6016 28.0941 44.7025 28.5911 45.2807 29.1066C45.5571 29.3531 45.7806 29.38 47.5528 29.38H49.5182L49.9652 28.9334L50.4121 28.4869L50.4549 26.0282L50.4977 23.5696H56.2996H62.1016V28.69C62.1016 32.1515 62.1508 33.9183 62.2533 34.1436C62.4055 34.4773 62.8922 34.7803 63.2764 34.7803C63.389 34.7803 63.6321 34.6292 63.8167 34.4446L64.1524 34.1091L64.1518 28.4634C64.1514 23.1808 64.1349 22.7906 63.8945 22.3966C63.3367 21.4819 63.8501 21.5189 51.7245 21.5189H40.7734L40.7729 14.0338C40.7725 6.76723 40.7644 6.53536 40.4964 6.0961C39.9663 5.22645 40.2668 5.24983 29.6011 5.2501C20.658 5.25024 19.8883 5.26842 19.455 5.48935ZM30.5195 9.21457V11.1286H29.6309H28.7422V9.21457V7.30055H29.6309H30.5195V9.21457ZM48.4297 25.4837V27.3977H47.541H46.6523V25.4837V23.5696H47.541H48.4297V25.4837ZM18.8984 35.4707C18.8984 38.8782 19.0133 39.0187 21.7969 39.0179C23.2208 39.0175 23.5452 38.9768 23.9141 38.7519C24.6365 38.3114 24.699 38.0695 24.754 35.498L24.8044 33.1397H27.8671H30.9297V40.5907V48.0416H21.7695H12.6094V40.5907V33.1397H15.7539H18.8984V35.4707ZM22.6962 35.0879L22.7342 36.9677H21.8417H20.9492V35.0472V33.1267L21.8037 33.1673L22.6582 33.2081L22.6962 35.0879ZM25.7344 52.0064V53.9204H24.9141H24.0938V52.0064V50.0924H24.9141H25.7344V52.0064ZM55.9492 57.8236C55.9492 60.3461 56.041 60.7027 56.8104 61.1718C57.1802 61.3973 57.5021 61.4388 58.8887 61.4388C60.2753 61.4388 60.5971 61.3973 60.9669 61.1718C61.7364 60.7027 61.8281 60.3461 61.8281 57.8236V55.561H67.6387H73.4492V64.3791V73.1972H58.8887H44.3281V64.3791V55.561H50.1387H55.9492V57.8236ZM59.7774 57.475V59.389H58.8887H58V57.475V55.561H58.8887H59.7774V57.475Z" stroke="#0054A0" stroke-width="0.4" mask="url(#path-1-outside-1_168_1684)"/>
</svg>
