<svg width="81" height="81" viewBox="0 0 81 81" fill="none" xmlns="http://www.w3.org/2000/svg">
<path d="M23.6414 69.25C13.635 69.25 5.5 61.151 5.5 51.1888C5.5 41.2266 13.635 33.1277 23.6414 33.1277C33.6479 33.1277 41.7829 41.2266 41.7829 51.1888C41.798 61.151 33.6479 69.25 23.6414 69.25ZM23.6414 36.0577C15.265 36.0577 8.44308 42.8494 8.44308 51.1888C8.44308 59.5282 15.265 66.3199 23.6414 66.3199C32.0179 66.3199 38.8398 59.5282 38.8398 51.1888C38.8398 42.8494 32.0179 36.0577 23.6414 36.0577Z" fill="#0054A0"/>
<path d="M71.2135 12.7225V19.4692C71.2135 20.2806 70.5494 20.9417 69.7344 20.9417C68.9194 20.9417 68.2553 20.2806 68.2553 19.4692V16.2536L54.2342 30.1075C53.6607 30.6785 52.7249 30.6785 52.1514 30.1075L47.7896 25.765L39.3528 34.1645C39.066 34.45 38.6887 34.6003 38.3114 34.6003C37.9341 34.6003 37.5567 34.45 37.27 34.1645C36.6965 33.5935 36.6965 32.6619 37.27 32.0909L46.7482 22.6547C47.3217 22.0837 48.2575 22.0837 48.831 22.6547L53.1928 26.9972L66.1574 14.1951H62.7314C61.9164 14.1951 61.2523 13.5339 61.2523 12.7225C61.2523 11.9111 61.9164 11.25 62.7314 11.25H69.7344C69.7797 11.25 69.825 11.25 69.8702 11.25C69.9155 11.25 69.9608 11.265 70.0061 11.265C70.0513 11.265 70.0966 11.2801 70.1268 11.2951C70.1872 11.3101 70.2476 11.3251 70.2928 11.3552C70.3381 11.3702 70.3683 11.3852 70.4136 11.4153H70.4287C70.4589 11.4303 70.489 11.4453 70.5192 11.4754C70.5343 11.4754 70.5494 11.4904 70.5645 11.5054C70.5947 11.5205 70.6249 11.5505 70.6551 11.5655L70.6701 11.5806C70.7003 11.6106 70.7456 11.6407 70.7758 11.6707C70.806 11.7008 70.8513 11.7459 70.8814 11.7759C70.9116 11.806 70.9267 11.836 70.9569 11.8811L70.972 11.8961C70.9871 11.9262 71.0173 11.9712 71.0324 12.0013C71.0324 12.0013 71.0475 12.0163 71.0475 12.0313C71.0626 12.0764 71.0927 12.1065 71.1078 12.1516C71.1229 12.1966 71.138 12.2417 71.1531 12.2868C71.1833 12.3769 71.1984 12.4671 71.2135 12.5573C71.2135 12.6174 71.2135 12.6775 71.2135 12.7225Z" fill="#0054A0"/>
<path d="M75.5003 67.6873C75.5003 68.4987 74.8362 69.1598 74.0212 69.1598H40.9078C40.0928 69.1598 39.4287 68.4987 39.4287 67.6873C39.4287 66.8759 40.0928 66.2148 40.9078 66.2148H51.684V36.8692C51.684 36.0578 52.3481 35.3966 53.1631 35.3966C53.9781 35.3966 54.6422 36.0578 54.6422 36.8692V66.2148H67.9841V27.7334C67.9841 26.922 68.6482 26.2609 69.4632 26.2609C70.2782 26.2609 70.9423 26.922 70.9423 27.7334V66.2298H74.0212C74.8362 66.2148 75.5003 66.8759 75.5003 67.6873Z" fill="#0054A0"/>
<path d="M25.9862 58.0279H22.7208V60H19.0698V58.0279H17V54.8755H19.0698V54.2278H17V51.061H19.0698V43H25.0863C26.2433 43 27.2718 43.2303 28.1717 43.7053C29.0716 44.1804 29.7658 44.8569 30.2544 45.735C30.7429 46.613 31 47.6063 31 48.7003C31 50.3988 30.4601 51.7519 29.3802 52.7307C28.3003 53.724 26.8476 54.2134 25.0092 54.2134H22.7208V54.8611H25.9862V58.0279ZM22.7208 51.0754H24.9578C26.5133 51.0754 27.2975 50.2981 27.2975 48.7434C27.2975 47.9805 27.1047 47.3616 26.719 46.9009C26.3333 46.4403 25.7934 46.1956 25.1249 46.1956H22.7337V51.0754H22.7208Z" fill="#0054A0"/>
</svg>
