<svg width="81" height="81" viewBox="0 0 81 81" fill="none" xmlns="http://www.w3.org/2000/svg">
<mask id="path-1-outside-1_168_1679" maskUnits="userSpaceOnUse" x="4.5" y="4.25" width="72" height="72" fill="black">
<rect fill="white" x="4.5" y="4.25" width="72" height="72"/>
<path fill-rule="evenodd" clip-rule="evenodd" d="M35.4455 7.18988C35.1794 8.25684 34.9065 9.09626 34.8391 9.05515C34.7716 9.01419 34.4714 8.5778 34.1721 8.0855C33.8727 7.5932 33.5058 7.01639 33.3567 6.80351L33.0856 6.41671L32.2105 6.93C31.7292 7.2123 31.2999 7.49963 31.2566 7.56862C31.2134 7.63747 31.5432 8.27524 31.9896 8.98587C32.4361 9.69637 32.8014 10.3035 32.8014 10.3351C32.8014 10.3666 31.9064 10.1704 30.8126 9.89903C29.7187 9.62766 28.7945 9.43433 28.7589 9.46955C28.6748 9.5522 28.2875 11.1468 28.2807 11.4377C28.2766 11.6094 29.0037 11.8363 31.4509 12.4271L34.6263 13.1939L36.4513 16.1266C37.455 17.7395 38.2981 19.1215 38.3249 19.1977C38.3552 19.2842 36.9903 19.3362 34.6925 19.3362H31.0115L28.6143 17.086L26.2174 14.8357L25.6289 15.3971C24.5815 16.3962 24.566 16.3251 26.1772 17.9173L27.6129 19.3362H25.9003H24.1876V20.4861V21.636H25.9003H27.6129L26.1772 23.055C24.566 24.6472 24.5815 24.576 25.6289 25.5752L26.2174 26.1366L28.6143 23.8862L31.0115 21.636H34.6925C36.9903 21.636 38.3552 21.6881 38.3249 21.7746C38.2981 21.8508 37.455 23.2328 36.4513 24.8457L34.6263 27.7784L31.4509 28.5452C29.0037 29.136 28.2766 29.3629 28.2807 29.5345C28.2875 29.8255 28.6748 31.4201 28.7589 31.5027C28.7945 31.5379 29.7187 31.3446 30.8126 31.0732C31.9064 30.8019 32.8014 30.6057 32.8014 30.6371C32.8014 30.6688 32.4361 31.2759 31.9896 31.9864C31.5432 32.697 31.2134 33.3348 31.2566 33.4037C31.2999 33.4726 31.7292 33.76 32.2105 34.0423L33.0856 34.5556L33.3567 34.1688C33.5058 33.9559 33.8727 33.3791 34.1721 32.8868C34.4714 32.3945 34.7709 31.9585 34.8373 31.9181C34.9037 31.8776 35.1724 32.7009 35.434 33.7475C35.6956 34.794 35.9191 35.6636 35.9307 35.6799C35.9599 35.7213 38.0716 35.1813 38.1386 35.1151C38.1688 35.0854 37.8377 33.6929 37.4028 32.0208L36.6119 28.9806L38.539 25.884C39.599 24.1809 40.4991 22.7875 40.5392 22.7875C40.5793 22.7875 41.4794 24.1809 42.5394 25.884L44.4665 28.9806L43.6756 32.0208C43.2407 33.6929 42.9096 35.0854 42.9398 35.1151C43.0068 35.1813 45.1185 35.7213 45.1477 35.6799C45.1593 35.6636 45.3828 34.794 45.6444 33.7475C45.906 32.7009 46.1747 31.8776 46.2411 31.9181C46.3075 31.9585 46.607 32.3945 46.9063 32.8868C47.2057 33.3791 47.5726 33.9559 47.7217 34.1688L47.9928 34.5556L48.8679 34.0423C49.3492 33.76 49.7785 33.4726 49.8218 33.4037C49.865 33.3348 49.5352 32.697 49.0888 31.9864C48.6423 31.2759 48.277 30.6712 48.277 30.6426C48.277 30.6141 49.1778 30.8046 50.2789 31.0658C51.38 31.3271 52.3042 31.5178 52.3327 31.4898C52.4076 31.4161 52.7915 29.7989 52.7977 29.5312C52.8018 29.3554 52.0997 29.1361 49.6269 28.5409L46.4509 27.7763L44.6265 24.8431C43.6231 23.2298 42.7802 21.8482 42.7535 21.7729C42.7235 21.6885 44.1224 21.6378 46.4034 21.6403L50.102 21.6447L52.4933 23.9005L54.8844 26.1563L55.6545 25.3417L56.4247 24.5272L54.9424 23.0835L53.4599 21.6396L55.1754 21.6379L56.8908 21.636V20.4861V19.3362L55.1754 19.3344L53.4599 19.3326L54.9424 17.8888L56.4247 16.4451L55.6545 15.6306L54.8844 14.816L52.4933 17.0718L50.102 19.3276L46.4034 19.3319C44.1224 19.3345 42.7235 19.2838 42.7535 19.1994C42.7802 19.1241 43.6231 17.7425 44.6265 16.1292L46.4509 13.1959L49.6269 12.4314C52.0997 11.8362 52.8018 11.6168 52.7977 11.441C52.7915 11.1734 52.4076 9.55622 52.3327 9.48248C52.3042 9.45446 51.38 9.6452 50.2789 9.90651C49.1778 10.1677 48.277 10.3581 48.277 10.3297C48.277 10.3011 48.6423 9.69637 49.0888 8.98587C49.5352 8.27524 49.865 7.63747 49.8218 7.56862C49.7785 7.49963 49.3492 7.2123 48.8679 6.93L47.9928 6.41671L47.7217 6.80351C47.5726 7.01639 47.2057 7.5932 46.9063 8.0855C46.607 8.5778 46.3075 9.01376 46.2411 9.05415C46.1747 9.09468 45.906 8.27136 45.6444 7.2248C45.3828 6.17825 45.1593 5.30864 45.1477 5.2924C45.1185 5.25101 43.0068 5.79103 42.9398 5.85715C42.9096 5.8869 43.2407 7.27942 43.6756 8.95152L44.4665 11.9917L42.5394 15.0882C41.4794 16.7914 40.5793 18.1848 40.5392 18.1848C40.4991 18.1848 39.599 16.7914 38.539 15.0882L36.6119 11.9917L37.4028 8.95152C37.8377 7.27942 38.1723 5.89035 38.1462 5.86462C38.1035 5.82265 36.079 5.25 35.9732 5.25C35.9491 5.25 35.7117 6.12292 35.4455 7.18988ZM18.3477 27.9605V29.6853H19.5157H20.6837V27.9605V26.2356H19.5157H18.3477V27.9605ZM10.1298 30.8042C9.75157 31.1825 9.44191 31.5561 9.44191 31.6343C9.44191 31.7126 9.93509 32.2591 10.5379 32.8485L11.6339 33.9204L12.4697 33.0975L13.3056 32.2746L12.2169 31.1956C11.6181 30.6021 11.0584 30.1165 10.973 30.1165C10.8877 30.1165 10.5083 30.426 10.1298 30.8042ZM68.5706 31.9551V33.1096L70.1663 33.1583C71.5017 33.199 71.8279 33.2552 72.1647 33.5033C72.9306 34.0669 73.1694 34.5261 73.1694 35.4348C73.1694 36.3438 72.9305 36.8032 72.1643 37.3663C71.7667 37.6587 71.612 37.6633 60.8221 37.7014L49.883 37.7399V38.8915V40.043L61.0152 40.0028L72.1475 39.9625L72.8931 39.5752C73.999 39.0008 74.4532 38.5677 75.0039 37.5623C75.4569 36.7352 75.5 36.5506 75.5 35.4348C75.5 34.3181 75.4571 34.1348 75.002 33.3039C74.4606 32.3154 73.8374 31.7297 72.809 31.2427C72.2741 30.9893 71.8054 30.9171 70.359 30.865L68.5706 30.8006V31.9551ZM17.9827 32.1217C14.9498 32.7668 12.7062 34.7673 11.6884 37.7346C11.3121 38.8315 11.3121 41.2373 11.6884 42.3342C12.4643 44.5962 13.9066 46.2631 15.9099 47.2128C19.145 48.7464 22.76 48.1643 25.2552 45.7077C27.7649 43.2369 28.3666 39.6735 26.8113 36.4934C25.5118 33.8363 22.9192 32.1744 19.8807 32.0509C19.158 32.0215 18.3039 32.0534 17.9827 32.1217ZM21.9143 34.834C23.2316 35.441 24.0839 36.2663 24.7372 37.5679C25.2525 38.5941 25.2825 38.73 25.2825 40.0344C25.2825 41.3388 25.2525 41.4746 24.7372 42.5009C24.0806 43.8092 23.2352 44.6241 21.8779 45.2571C20.9959 45.6685 20.7699 45.712 19.5157 45.712C18.2614 45.712 18.0354 45.6685 17.1535 45.2571C15.7961 44.6241 14.9508 43.8092 14.2941 42.5009C13.7795 41.4758 13.7488 41.3377 13.7488 40.0419C13.7488 38.7985 13.7925 38.5782 14.2109 37.7087C14.7975 36.4895 15.6328 35.5971 16.7222 35.0254C17.8722 34.422 18.5014 34.2855 19.844 34.3484C20.7203 34.3895 21.187 34.4989 21.9143 34.834ZM44.0431 38.8845V40.0344H45.7951H47.547V38.8845V37.7346H45.7951H44.0431V38.8845ZM5.5 40.0344V41.1843H7.25196H9.00392V40.0344V38.8845H7.25196H5.5V40.0344ZM30.0274 40.0344V41.1843H31.7794H33.5314V40.0344V38.8845H31.7794H30.0274V40.0344ZM53.3869 43.4736V44.6258L60.2382 44.6658C66.8974 44.7047 67.1008 44.7142 67.4925 45.0022C68.2586 45.5655 68.4976 46.0248 68.4976 46.9338C68.4976 47.8425 68.2587 48.3016 67.493 48.8653C67.1363 49.1278 66.8412 49.167 64.9106 49.208L62.7307 49.2543V50.4086V51.563L65.1031 51.5099L67.4756 51.4569L68.3955 50.968C69.4201 50.4237 69.8626 49.9727 70.4342 48.8896C70.7634 48.2658 70.8221 47.972 70.8249 46.9338C70.8278 45.8141 70.7865 45.6361 70.3301 44.8029C69.7925 43.8214 69.1786 43.2413 68.1371 42.7305C67.482 42.4092 67.408 42.4056 60.4312 42.3637L53.3869 42.3213V43.4736ZM38.4952 43.7076C35.905 44.2554 33.4134 46.1713 32.2375 48.5198C31.6517 49.6898 31.2033 51.2703 31.1979 52.1844C31.1954 52.6115 31.1766 52.6226 30.1851 52.7763C27.403 53.2076 25.123 55.2448 24.4111 57.9357C23.4569 61.5426 25.7719 65.3002 29.5446 66.2676C30.8072 66.5914 50.2908 66.5864 51.5558 66.262C55.3057 65.3004 57.6189 61.5324 56.6673 57.9357C55.9554 55.2448 53.6754 53.2076 50.8933 52.7763C49.9018 52.6226 49.883 52.6115 49.8805 52.1844C49.8751 51.2557 49.4257 49.6838 48.8315 48.5149C46.9515 44.8167 42.6691 42.8251 38.4952 43.7076ZM42.212 46.0039C45.951 46.9628 48.2748 50.7342 47.3292 54.3085C47.0553 55.3441 46.5145 56.4022 45.917 57.0723L45.4543 57.591L46.2916 58.4072L47.1288 59.2233L47.7031 58.5765C48.3154 57.8867 49.1469 56.4201 49.4446 55.5043L49.6256 54.9474L50.417 55.0391C51.9921 55.2212 53.2081 56.0451 53.9785 57.4517C54.4336 58.2827 54.4765 58.466 54.4765 59.5826C54.4765 60.6985 54.4334 60.883 53.9804 61.7101C53.4297 62.7155 52.9755 63.1486 51.8696 63.723L51.124 64.1104H40.5392H29.9544L29.2245 63.7545C28.2914 63.2995 27.4169 62.4371 26.9617 61.5231C26.4477 60.4912 26.4477 58.6741 26.9617 57.6422C27.418 56.7259 28.2937 55.8637 29.2245 55.4144C30.2726 54.9085 32.1183 54.9085 33.1664 55.4144C34.5622 56.0883 35.6156 57.4895 35.8178 58.9419L35.907 59.5826H37.0551H38.2033V59.1816C38.2033 58.5607 37.8077 57.2123 37.3845 56.3898C36.8373 55.3267 35.5709 54.0804 34.4669 53.5184C33.5525 53.0528 33.5324 53.0301 33.5319 52.4619C33.5317 52.1425 33.6293 51.5108 33.7492 51.058C34.7317 47.3439 38.5485 45.0645 42.212 46.0039ZM10.4967 47.2606C9.91654 47.8356 9.44191 48.3716 9.44191 48.4518C9.44191 48.6385 10.7918 49.9523 10.9835 49.9523C11.0631 49.9523 11.6173 49.4674 12.2151 48.875L13.3022 47.7975L12.5086 47.0064C12.072 46.5711 11.6781 46.2151 11.6332 46.2151C11.5884 46.2151 11.0769 46.6855 10.4967 47.2606ZM26.4815 46.9027C26.1032 47.281 25.7935 47.6546 25.7935 47.7328C25.7935 47.8111 26.2867 48.3576 26.8895 48.9471L27.9855 50.019L28.8214 49.1961L29.6572 48.3732L28.5685 47.2941C27.9698 46.7006 27.41 46.2151 27.3246 46.2151C27.2393 46.2151 26.8599 46.5246 26.4815 46.9027ZM18.3477 52.1083V53.8332H19.5157H20.6837V52.1083V50.3835H19.5157H18.3477V52.1083ZM29.7705 70.8314C28.2255 72.354 26.9615 73.6662 26.9615 73.7475C26.9615 73.9344 28.3095 75.25 28.5009 75.25C28.5792 75.25 29.9223 73.9896 31.4857 72.4489L34.3279 69.6478L33.5331 68.8554C33.096 68.4198 32.7027 68.0631 32.659 68.0631C32.6152 68.0631 31.3156 69.3089 29.7705 70.8314ZM37.9463 70.8314C36.4014 72.354 35.1373 73.6662 35.1373 73.7475C35.1373 73.9344 36.4853 75.25 36.6767 75.25C36.755 75.25 38.0981 73.9896 39.6615 72.4489L42.5037 69.6478L41.7089 68.8554C41.2718 68.4198 40.8785 68.0631 40.8348 68.0631C40.791 68.0631 39.4914 69.3089 37.9463 70.8314ZM46.1221 70.8314C44.5772 72.354 43.3131 73.6662 43.3131 73.7475C43.3131 73.9344 44.6611 75.25 44.8525 75.25C44.9308 75.25 46.2739 73.9896 47.8373 72.4489L50.6795 69.6478L49.8847 68.8554C49.4476 68.4198 49.0543 68.0631 49.0107 68.0631C48.9669 68.0631 47.6672 69.3089 46.1221 70.8314Z"/>
</mask>
<path fill-rule="evenodd" clip-rule="evenodd" d="M35.4455 7.18988C35.1794 8.25684 34.9065 9.09626 34.8391 9.05515C34.7716 9.01419 34.4714 8.5778 34.1721 8.0855C33.8727 7.5932 33.5058 7.01639 33.3567 6.80351L33.0856 6.41671L32.2105 6.93C31.7292 7.2123 31.2999 7.49963 31.2566 7.56862C31.2134 7.63747 31.5432 8.27524 31.9896 8.98587C32.4361 9.69637 32.8014 10.3035 32.8014 10.3351C32.8014 10.3666 31.9064 10.1704 30.8126 9.89903C29.7187 9.62766 28.7945 9.43433 28.7589 9.46955C28.6748 9.5522 28.2875 11.1468 28.2807 11.4377C28.2766 11.6094 29.0037 11.8363 31.4509 12.4271L34.6263 13.1939L36.4513 16.1266C37.455 17.7395 38.2981 19.1215 38.3249 19.1977C38.3552 19.2842 36.9903 19.3362 34.6925 19.3362H31.0115L28.6143 17.086L26.2174 14.8357L25.6289 15.3971C24.5815 16.3962 24.566 16.3251 26.1772 17.9173L27.6129 19.3362H25.9003H24.1876V20.4861V21.636H25.9003H27.6129L26.1772 23.055C24.566 24.6472 24.5815 24.576 25.6289 25.5752L26.2174 26.1366L28.6143 23.8862L31.0115 21.636H34.6925C36.9903 21.636 38.3552 21.6881 38.3249 21.7746C38.2981 21.8508 37.455 23.2328 36.4513 24.8457L34.6263 27.7784L31.4509 28.5452C29.0037 29.136 28.2766 29.3629 28.2807 29.5345C28.2875 29.8255 28.6748 31.4201 28.7589 31.5027C28.7945 31.5379 29.7187 31.3446 30.8126 31.0732C31.9064 30.8019 32.8014 30.6057 32.8014 30.6371C32.8014 30.6688 32.4361 31.2759 31.9896 31.9864C31.5432 32.697 31.2134 33.3348 31.2566 33.4037C31.2999 33.4726 31.7292 33.76 32.2105 34.0423L33.0856 34.5556L33.3567 34.1688C33.5058 33.9559 33.8727 33.3791 34.1721 32.8868C34.4714 32.3945 34.7709 31.9585 34.8373 31.9181C34.9037 31.8776 35.1724 32.7009 35.434 33.7475C35.6956 34.794 35.9191 35.6636 35.9307 35.6799C35.9599 35.7213 38.0716 35.1813 38.1386 35.1151C38.1688 35.0854 37.8377 33.6929 37.4028 32.0208L36.6119 28.9806L38.539 25.884C39.599 24.1809 40.4991 22.7875 40.5392 22.7875C40.5793 22.7875 41.4794 24.1809 42.5394 25.884L44.4665 28.9806L43.6756 32.0208C43.2407 33.6929 42.9096 35.0854 42.9398 35.1151C43.0068 35.1813 45.1185 35.7213 45.1477 35.6799C45.1593 35.6636 45.3828 34.794 45.6444 33.7475C45.906 32.7009 46.1747 31.8776 46.2411 31.9181C46.3075 31.9585 46.607 32.3945 46.9063 32.8868C47.2057 33.3791 47.5726 33.9559 47.7217 34.1688L47.9928 34.5556L48.8679 34.0423C49.3492 33.76 49.7785 33.4726 49.8218 33.4037C49.865 33.3348 49.5352 32.697 49.0888 31.9864C48.6423 31.2759 48.277 30.6712 48.277 30.6426C48.277 30.6141 49.1778 30.8046 50.2789 31.0658C51.38 31.3271 52.3042 31.5178 52.3327 31.4898C52.4076 31.4161 52.7915 29.7989 52.7977 29.5312C52.8018 29.3554 52.0997 29.1361 49.6269 28.5409L46.4509 27.7763L44.6265 24.8431C43.6231 23.2298 42.7802 21.8482 42.7535 21.7729C42.7235 21.6885 44.1224 21.6378 46.4034 21.6403L50.102 21.6447L52.4933 23.9005L54.8844 26.1563L55.6545 25.3417L56.4247 24.5272L54.9424 23.0835L53.4599 21.6396L55.1754 21.6379L56.8908 21.636V20.4861V19.3362L55.1754 19.3344L53.4599 19.3326L54.9424 17.8888L56.4247 16.4451L55.6545 15.6306L54.8844 14.816L52.4933 17.0718L50.102 19.3276L46.4034 19.3319C44.1224 19.3345 42.7235 19.2838 42.7535 19.1994C42.7802 19.1241 43.6231 17.7425 44.6265 16.1292L46.4509 13.1959L49.6269 12.4314C52.0997 11.8362 52.8018 11.6168 52.7977 11.441C52.7915 11.1734 52.4076 9.55622 52.3327 9.48248C52.3042 9.45446 51.38 9.6452 50.2789 9.90651C49.1778 10.1677 48.277 10.3581 48.277 10.3297C48.277 10.3011 48.6423 9.69637 49.0888 8.98587C49.5352 8.27524 49.865 7.63747 49.8218 7.56862C49.7785 7.49963 49.3492 7.2123 48.8679 6.93L47.9928 6.41671L47.7217 6.80351C47.5726 7.01639 47.2057 7.5932 46.9063 8.0855C46.607 8.5778 46.3075 9.01376 46.2411 9.05415C46.1747 9.09468 45.906 8.27136 45.6444 7.2248C45.3828 6.17825 45.1593 5.30864 45.1477 5.2924C45.1185 5.25101 43.0068 5.79103 42.9398 5.85715C42.9096 5.8869 43.2407 7.27942 43.6756 8.95152L44.4665 11.9917L42.5394 15.0882C41.4794 16.7914 40.5793 18.1848 40.5392 18.1848C40.4991 18.1848 39.599 16.7914 38.539 15.0882L36.6119 11.9917L37.4028 8.95152C37.8377 7.27942 38.1723 5.89035 38.1462 5.86462C38.1035 5.82265 36.079 5.25 35.9732 5.25C35.9491 5.25 35.7117 6.12292 35.4455 7.18988ZM18.3477 27.9605V29.6853H19.5157H20.6837V27.9605V26.2356H19.5157H18.3477V27.9605ZM10.1298 30.8042C9.75157 31.1825 9.44191 31.5561 9.44191 31.6343C9.44191 31.7126 9.93509 32.2591 10.5379 32.8485L11.6339 33.9204L12.4697 33.0975L13.3056 32.2746L12.2169 31.1956C11.6181 30.6021 11.0584 30.1165 10.973 30.1165C10.8877 30.1165 10.5083 30.426 10.1298 30.8042ZM68.5706 31.9551V33.1096L70.1663 33.1583C71.5017 33.199 71.8279 33.2552 72.1647 33.5033C72.9306 34.0669 73.1694 34.5261 73.1694 35.4348C73.1694 36.3438 72.9305 36.8032 72.1643 37.3663C71.7667 37.6587 71.612 37.6633 60.8221 37.7014L49.883 37.7399V38.8915V40.043L61.0152 40.0028L72.1475 39.9625L72.8931 39.5752C73.999 39.0008 74.4532 38.5677 75.0039 37.5623C75.4569 36.7352 75.5 36.5506 75.5 35.4348C75.5 34.3181 75.4571 34.1348 75.002 33.3039C74.4606 32.3154 73.8374 31.7297 72.809 31.2427C72.2741 30.9893 71.8054 30.9171 70.359 30.865L68.5706 30.8006V31.9551ZM17.9827 32.1217C14.9498 32.7668 12.7062 34.7673 11.6884 37.7346C11.3121 38.8315 11.3121 41.2373 11.6884 42.3342C12.4643 44.5962 13.9066 46.2631 15.9099 47.2128C19.145 48.7464 22.76 48.1643 25.2552 45.7077C27.7649 43.2369 28.3666 39.6735 26.8113 36.4934C25.5118 33.8363 22.9192 32.1744 19.8807 32.0509C19.158 32.0215 18.3039 32.0534 17.9827 32.1217ZM21.9143 34.834C23.2316 35.441 24.0839 36.2663 24.7372 37.5679C25.2525 38.5941 25.2825 38.73 25.2825 40.0344C25.2825 41.3388 25.2525 41.4746 24.7372 42.5009C24.0806 43.8092 23.2352 44.6241 21.8779 45.2571C20.9959 45.6685 20.7699 45.712 19.5157 45.712C18.2614 45.712 18.0354 45.6685 17.1535 45.2571C15.7961 44.6241 14.9508 43.8092 14.2941 42.5009C13.7795 41.4758 13.7488 41.3377 13.7488 40.0419C13.7488 38.7985 13.7925 38.5782 14.2109 37.7087C14.7975 36.4895 15.6328 35.5971 16.7222 35.0254C17.8722 34.422 18.5014 34.2855 19.844 34.3484C20.7203 34.3895 21.187 34.4989 21.9143 34.834ZM44.0431 38.8845V40.0344H45.7951H47.547V38.8845V37.7346H45.7951H44.0431V38.8845ZM5.5 40.0344V41.1843H7.25196H9.00392V40.0344V38.8845H7.25196H5.5V40.0344ZM30.0274 40.0344V41.1843H31.7794H33.5314V40.0344V38.8845H31.7794H30.0274V40.0344ZM53.3869 43.4736V44.6258L60.2382 44.6658C66.8974 44.7047 67.1008 44.7142 67.4925 45.0022C68.2586 45.5655 68.4976 46.0248 68.4976 46.9338C68.4976 47.8425 68.2587 48.3016 67.493 48.8653C67.1363 49.1278 66.8412 49.167 64.9106 49.208L62.7307 49.2543V50.4086V51.563L65.1031 51.5099L67.4756 51.4569L68.3955 50.968C69.4201 50.4237 69.8626 49.9727 70.4342 48.8896C70.7634 48.2658 70.8221 47.972 70.8249 46.9338C70.8278 45.8141 70.7865 45.6361 70.3301 44.8029C69.7925 43.8214 69.1786 43.2413 68.1371 42.7305C67.482 42.4092 67.408 42.4056 60.4312 42.3637L53.3869 42.3213V43.4736ZM38.4952 43.7076C35.905 44.2554 33.4134 46.1713 32.2375 48.5198C31.6517 49.6898 31.2033 51.2703 31.1979 52.1844C31.1954 52.6115 31.1766 52.6226 30.1851 52.7763C27.403 53.2076 25.123 55.2448 24.4111 57.9357C23.4569 61.5426 25.7719 65.3002 29.5446 66.2676C30.8072 66.5914 50.2908 66.5864 51.5558 66.262C55.3057 65.3004 57.6189 61.5324 56.6673 57.9357C55.9554 55.2448 53.6754 53.2076 50.8933 52.7763C49.9018 52.6226 49.883 52.6115 49.8805 52.1844C49.8751 51.2557 49.4257 49.6838 48.8315 48.5149C46.9515 44.8167 42.6691 42.8251 38.4952 43.7076ZM42.212 46.0039C45.951 46.9628 48.2748 50.7342 47.3292 54.3085C47.0553 55.3441 46.5145 56.4022 45.917 57.0723L45.4543 57.591L46.2916 58.4072L47.1288 59.2233L47.7031 58.5765C48.3154 57.8867 49.1469 56.4201 49.4446 55.5043L49.6256 54.9474L50.417 55.0391C51.9921 55.2212 53.2081 56.0451 53.9785 57.4517C54.4336 58.2827 54.4765 58.466 54.4765 59.5826C54.4765 60.6985 54.4334 60.883 53.9804 61.7101C53.4297 62.7155 52.9755 63.1486 51.8696 63.723L51.124 64.1104H40.5392H29.9544L29.2245 63.7545C28.2914 63.2995 27.4169 62.4371 26.9617 61.5231C26.4477 60.4912 26.4477 58.6741 26.9617 57.6422C27.418 56.7259 28.2937 55.8637 29.2245 55.4144C30.2726 54.9085 32.1183 54.9085 33.1664 55.4144C34.5622 56.0883 35.6156 57.4895 35.8178 58.9419L35.907 59.5826H37.0551H38.2033V59.1816C38.2033 58.5607 37.8077 57.2123 37.3845 56.3898C36.8373 55.3267 35.5709 54.0804 34.4669 53.5184C33.5525 53.0528 33.5324 53.0301 33.5319 52.4619C33.5317 52.1425 33.6293 51.5108 33.7492 51.058C34.7317 47.3439 38.5485 45.0645 42.212 46.0039ZM10.4967 47.2606C9.91654 47.8356 9.44191 48.3716 9.44191 48.4518C9.44191 48.6385 10.7918 49.9523 10.9835 49.9523C11.0631 49.9523 11.6173 49.4674 12.2151 48.875L13.3022 47.7975L12.5086 47.0064C12.072 46.5711 11.6781 46.2151 11.6332 46.2151C11.5884 46.2151 11.0769 46.6855 10.4967 47.2606ZM26.4815 46.9027C26.1032 47.281 25.7935 47.6546 25.7935 47.7328C25.7935 47.8111 26.2867 48.3576 26.8895 48.9471L27.9855 50.019L28.8214 49.1961L29.6572 48.3732L28.5685 47.2941C27.9698 46.7006 27.41 46.2151 27.3246 46.2151C27.2393 46.2151 26.8599 46.5246 26.4815 46.9027ZM18.3477 52.1083V53.8332H19.5157H20.6837V52.1083V50.3835H19.5157H18.3477V52.1083ZM29.7705 70.8314C28.2255 72.354 26.9615 73.6662 26.9615 73.7475C26.9615 73.9344 28.3095 75.25 28.5009 75.25C28.5792 75.25 29.9223 73.9896 31.4857 72.4489L34.3279 69.6478L33.5331 68.8554C33.096 68.4198 32.7027 68.0631 32.659 68.0631C32.6152 68.0631 31.3156 69.3089 29.7705 70.8314ZM37.9463 70.8314C36.4014 72.354 35.1373 73.6662 35.1373 73.7475C35.1373 73.9344 36.4853 75.25 36.6767 75.25C36.755 75.25 38.0981 73.9896 39.6615 72.4489L42.5037 69.6478L41.7089 68.8554C41.2718 68.4198 40.8785 68.0631 40.8348 68.0631C40.791 68.0631 39.4914 69.3089 37.9463 70.8314ZM46.1221 70.8314C44.5772 72.354 43.3131 73.6662 43.3131 73.7475C43.3131 73.9344 44.6611 75.25 44.8525 75.25C44.9308 75.25 46.2739 73.9896 47.8373 72.4489L50.6795 69.6478L49.8847 68.8554C49.4476 68.4198 49.0543 68.0631 49.0107 68.0631C48.9669 68.0631 47.6672 69.3089 46.1221 70.8314Z" fill="#0054A0"/>
<path fill-rule="evenodd" clip-rule="evenodd" d="M35.4455 7.18988C35.1794 8.25684 34.9065 9.09626 34.8391 9.05515C34.7716 9.01419 34.4714 8.5778 34.1721 8.0855C33.8727 7.5932 33.5058 7.01639 33.3567 6.80351L33.0856 6.41671L32.2105 6.93C31.7292 7.2123 31.2999 7.49963 31.2566 7.56862C31.2134 7.63747 31.5432 8.27524 31.9896 8.98587C32.4361 9.69637 32.8014 10.3035 32.8014 10.3351C32.8014 10.3666 31.9064 10.1704 30.8126 9.89903C29.7187 9.62766 28.7945 9.43433 28.7589 9.46955C28.6748 9.5522 28.2875 11.1468 28.2807 11.4377C28.2766 11.6094 29.0037 11.8363 31.4509 12.4271L34.6263 13.1939L36.4513 16.1266C37.455 17.7395 38.2981 19.1215 38.3249 19.1977C38.3552 19.2842 36.9903 19.3362 34.6925 19.3362H31.0115L28.6143 17.086L26.2174 14.8357L25.6289 15.3971C24.5815 16.3962 24.566 16.3251 26.1772 17.9173L27.6129 19.3362H25.9003H24.1876V20.4861V21.636H25.9003H27.6129L26.1772 23.055C24.566 24.6472 24.5815 24.576 25.6289 25.5752L26.2174 26.1366L28.6143 23.8862L31.0115 21.636H34.6925C36.9903 21.636 38.3552 21.6881 38.3249 21.7746C38.2981 21.8508 37.455 23.2328 36.4513 24.8457L34.6263 27.7784L31.4509 28.5452C29.0037 29.136 28.2766 29.3629 28.2807 29.5345C28.2875 29.8255 28.6748 31.4201 28.7589 31.5027C28.7945 31.5379 29.7187 31.3446 30.8126 31.0732C31.9064 30.8019 32.8014 30.6057 32.8014 30.6371C32.8014 30.6688 32.4361 31.2759 31.9896 31.9864C31.5432 32.697 31.2134 33.3348 31.2566 33.4037C31.2999 33.4726 31.7292 33.76 32.2105 34.0423L33.0856 34.5556L33.3567 34.1688C33.5058 33.9559 33.8727 33.3791 34.1721 32.8868C34.4714 32.3945 34.7709 31.9585 34.8373 31.9181C34.9037 31.8776 35.1724 32.7009 35.434 33.7475C35.6956 34.794 35.9191 35.6636 35.9307 35.6799C35.9599 35.7213 38.0716 35.1813 38.1386 35.1151C38.1688 35.0854 37.8377 33.6929 37.4028 32.0208L36.6119 28.9806L38.539 25.884C39.599 24.1809 40.4991 22.7875 40.5392 22.7875C40.5793 22.7875 41.4794 24.1809 42.5394 25.884L44.4665 28.9806L43.6756 32.0208C43.2407 33.6929 42.9096 35.0854 42.9398 35.1151C43.0068 35.1813 45.1185 35.7213 45.1477 35.6799C45.1593 35.6636 45.3828 34.794 45.6444 33.7475C45.906 32.7009 46.1747 31.8776 46.2411 31.9181C46.3075 31.9585 46.607 32.3945 46.9063 32.8868C47.2057 33.3791 47.5726 33.9559 47.7217 34.1688L47.9928 34.5556L48.8679 34.0423C49.3492 33.76 49.7785 33.4726 49.8218 33.4037C49.865 33.3348 49.5352 32.697 49.0888 31.9864C48.6423 31.2759 48.277 30.6712 48.277 30.6426C48.277 30.6141 49.1778 30.8046 50.2789 31.0658C51.38 31.3271 52.3042 31.5178 52.3327 31.4898C52.4076 31.4161 52.7915 29.7989 52.7977 29.5312C52.8018 29.3554 52.0997 29.1361 49.6269 28.5409L46.4509 27.7763L44.6265 24.8431C43.6231 23.2298 42.7802 21.8482 42.7535 21.7729C42.7235 21.6885 44.1224 21.6378 46.4034 21.6403L50.102 21.6447L52.4933 23.9005L54.8844 26.1563L55.6545 25.3417L56.4247 24.5272L54.9424 23.0835L53.4599 21.6396L55.1754 21.6379L56.8908 21.636V20.4861V19.3362L55.1754 19.3344L53.4599 19.3326L54.9424 17.8888L56.4247 16.4451L55.6545 15.6306L54.8844 14.816L52.4933 17.0718L50.102 19.3276L46.4034 19.3319C44.1224 19.3345 42.7235 19.2838 42.7535 19.1994C42.7802 19.1241 43.6231 17.7425 44.6265 16.1292L46.4509 13.1959L49.6269 12.4314C52.0997 11.8362 52.8018 11.6168 52.7977 11.441C52.7915 11.1734 52.4076 9.55622 52.3327 9.48248C52.3042 9.45446 51.38 9.6452 50.2789 9.90651C49.1778 10.1677 48.277 10.3581 48.277 10.3297C48.277 10.3011 48.6423 9.69637 49.0888 8.98587C49.5352 8.27524 49.865 7.63747 49.8218 7.56862C49.7785 7.49963 49.3492 7.2123 48.8679 6.93L47.9928 6.41671L47.7217 6.80351C47.5726 7.01639 47.2057 7.5932 46.9063 8.0855C46.607 8.5778 46.3075 9.01376 46.2411 9.05415C46.1747 9.09468 45.906 8.27136 45.6444 7.2248C45.3828 6.17825 45.1593 5.30864 45.1477 5.2924C45.1185 5.25101 43.0068 5.79103 42.9398 5.85715C42.9096 5.8869 43.2407 7.27942 43.6756 8.95152L44.4665 11.9917L42.5394 15.0882C41.4794 16.7914 40.5793 18.1848 40.5392 18.1848C40.4991 18.1848 39.599 16.7914 38.539 15.0882L36.6119 11.9917L37.4028 8.95152C37.8377 7.27942 38.1723 5.89035 38.1462 5.86462C38.1035 5.82265 36.079 5.25 35.9732 5.25C35.9491 5.25 35.7117 6.12292 35.4455 7.18988ZM18.3477 27.9605V29.6853H19.5157H20.6837V27.9605V26.2356H19.5157H18.3477V27.9605ZM10.1298 30.8042C9.75157 31.1825 9.44191 31.5561 9.44191 31.6343C9.44191 31.7126 9.93509 32.2591 10.5379 32.8485L11.6339 33.9204L12.4697 33.0975L13.3056 32.2746L12.2169 31.1956C11.6181 30.6021 11.0584 30.1165 10.973 30.1165C10.8877 30.1165 10.5083 30.426 10.1298 30.8042ZM68.5706 31.9551V33.1096L70.1663 33.1583C71.5017 33.199 71.8279 33.2552 72.1647 33.5033C72.9306 34.0669 73.1694 34.5261 73.1694 35.4348C73.1694 36.3438 72.9305 36.8032 72.1643 37.3663C71.7667 37.6587 71.612 37.6633 60.8221 37.7014L49.883 37.7399V38.8915V40.043L61.0152 40.0028L72.1475 39.9625L72.8931 39.5752C73.999 39.0008 74.4532 38.5677 75.0039 37.5623C75.4569 36.7352 75.5 36.5506 75.5 35.4348C75.5 34.3181 75.4571 34.1348 75.002 33.3039C74.4606 32.3154 73.8374 31.7297 72.809 31.2427C72.2741 30.9893 71.8054 30.9171 70.359 30.865L68.5706 30.8006V31.9551ZM17.9827 32.1217C14.9498 32.7668 12.7062 34.7673 11.6884 37.7346C11.3121 38.8315 11.3121 41.2373 11.6884 42.3342C12.4643 44.5962 13.9066 46.2631 15.9099 47.2128C19.145 48.7464 22.76 48.1643 25.2552 45.7077C27.7649 43.2369 28.3666 39.6735 26.8113 36.4934C25.5118 33.8363 22.9192 32.1744 19.8807 32.0509C19.158 32.0215 18.3039 32.0534 17.9827 32.1217ZM21.9143 34.834C23.2316 35.441 24.0839 36.2663 24.7372 37.5679C25.2525 38.5941 25.2825 38.73 25.2825 40.0344C25.2825 41.3388 25.2525 41.4746 24.7372 42.5009C24.0806 43.8092 23.2352 44.6241 21.8779 45.2571C20.9959 45.6685 20.7699 45.712 19.5157 45.712C18.2614 45.712 18.0354 45.6685 17.1535 45.2571C15.7961 44.6241 14.9508 43.8092 14.2941 42.5009C13.7795 41.4758 13.7488 41.3377 13.7488 40.0419C13.7488 38.7985 13.7925 38.5782 14.2109 37.7087C14.7975 36.4895 15.6328 35.5971 16.7222 35.0254C17.8722 34.422 18.5014 34.2855 19.844 34.3484C20.7203 34.3895 21.187 34.4989 21.9143 34.834ZM44.0431 38.8845V40.0344H45.7951H47.547V38.8845V37.7346H45.7951H44.0431V38.8845ZM5.5 40.0344V41.1843H7.25196H9.00392V40.0344V38.8845H7.25196H5.5V40.0344ZM30.0274 40.0344V41.1843H31.7794H33.5314V40.0344V38.8845H31.7794H30.0274V40.0344ZM53.3869 43.4736V44.6258L60.2382 44.6658C66.8974 44.7047 67.1008 44.7142 67.4925 45.0022C68.2586 45.5655 68.4976 46.0248 68.4976 46.9338C68.4976 47.8425 68.2587 48.3016 67.493 48.8653C67.1363 49.1278 66.8412 49.167 64.9106 49.208L62.7307 49.2543V50.4086V51.563L65.1031 51.5099L67.4756 51.4569L68.3955 50.968C69.4201 50.4237 69.8626 49.9727 70.4342 48.8896C70.7634 48.2658 70.8221 47.972 70.8249 46.9338C70.8278 45.8141 70.7865 45.6361 70.3301 44.8029C69.7925 43.8214 69.1786 43.2413 68.1371 42.7305C67.482 42.4092 67.408 42.4056 60.4312 42.3637L53.3869 42.3213V43.4736ZM38.4952 43.7076C35.905 44.2554 33.4134 46.1713 32.2375 48.5198C31.6517 49.6898 31.2033 51.2703 31.1979 52.1844C31.1954 52.6115 31.1766 52.6226 30.1851 52.7763C27.403 53.2076 25.123 55.2448 24.4111 57.9357C23.4569 61.5426 25.7719 65.3002 29.5446 66.2676C30.8072 66.5914 50.2908 66.5864 51.5558 66.262C55.3057 65.3004 57.6189 61.5324 56.6673 57.9357C55.9554 55.2448 53.6754 53.2076 50.8933 52.7763C49.9018 52.6226 49.883 52.6115 49.8805 52.1844C49.8751 51.2557 49.4257 49.6838 48.8315 48.5149C46.9515 44.8167 42.6691 42.8251 38.4952 43.7076ZM42.212 46.0039C45.951 46.9628 48.2748 50.7342 47.3292 54.3085C47.0553 55.3441 46.5145 56.4022 45.917 57.0723L45.4543 57.591L46.2916 58.4072L47.1288 59.2233L47.7031 58.5765C48.3154 57.8867 49.1469 56.4201 49.4446 55.5043L49.6256 54.9474L50.417 55.0391C51.9921 55.2212 53.2081 56.0451 53.9785 57.4517C54.4336 58.2827 54.4765 58.466 54.4765 59.5826C54.4765 60.6985 54.4334 60.883 53.9804 61.7101C53.4297 62.7155 52.9755 63.1486 51.8696 63.723L51.124 64.1104H40.5392H29.9544L29.2245 63.7545C28.2914 63.2995 27.4169 62.4371 26.9617 61.5231C26.4477 60.4912 26.4477 58.6741 26.9617 57.6422C27.418 56.7259 28.2937 55.8637 29.2245 55.4144C30.2726 54.9085 32.1183 54.9085 33.1664 55.4144C34.5622 56.0883 35.6156 57.4895 35.8178 58.9419L35.907 59.5826H37.0551H38.2033V59.1816C38.2033 58.5607 37.8077 57.2123 37.3845 56.3898C36.8373 55.3267 35.5709 54.0804 34.4669 53.5184C33.5525 53.0528 33.5324 53.0301 33.5319 52.4619C33.5317 52.1425 33.6293 51.5108 33.7492 51.058C34.7317 47.3439 38.5485 45.0645 42.212 46.0039ZM10.4967 47.2606C9.91654 47.8356 9.44191 48.3716 9.44191 48.4518C9.44191 48.6385 10.7918 49.9523 10.9835 49.9523C11.0631 49.9523 11.6173 49.4674 12.2151 48.875L13.3022 47.7975L12.5086 47.0064C12.072 46.5711 11.6781 46.2151 11.6332 46.2151C11.5884 46.2151 11.0769 46.6855 10.4967 47.2606ZM26.4815 46.9027C26.1032 47.281 25.7935 47.6546 25.7935 47.7328C25.7935 47.8111 26.2867 48.3576 26.8895 48.9471L27.9855 50.019L28.8214 49.1961L29.6572 48.3732L28.5685 47.2941C27.9698 46.7006 27.41 46.2151 27.3246 46.2151C27.2393 46.2151 26.8599 46.5246 26.4815 46.9027ZM18.3477 52.1083V53.8332H19.5157H20.6837V52.1083V50.3835H19.5157H18.3477V52.1083ZM29.7705 70.8314C28.2255 72.354 26.9615 73.6662 26.9615 73.7475C26.9615 73.9344 28.3095 75.25 28.5009 75.25C28.5792 75.25 29.9223 73.9896 31.4857 72.4489L34.3279 69.6478L33.5331 68.8554C33.096 68.4198 32.7027 68.0631 32.659 68.0631C32.6152 68.0631 31.3156 69.3089 29.7705 70.8314ZM37.9463 70.8314C36.4014 72.354 35.1373 73.6662 35.1373 73.7475C35.1373 73.9344 36.4853 75.25 36.6767 75.25C36.755 75.25 38.0981 73.9896 39.6615 72.4489L42.5037 69.6478L41.7089 68.8554C41.2718 68.4198 40.8785 68.0631 40.8348 68.0631C40.791 68.0631 39.4914 69.3089 37.9463 70.8314ZM46.1221 70.8314C44.5772 72.354 43.3131 73.6662 43.3131 73.7475C43.3131 73.9344 44.6611 75.25 44.8525 75.25C44.9308 75.25 46.2739 73.9896 47.8373 72.4489L50.6795 69.6478L49.8847 68.8554C49.4476 68.4198 49.0543 68.0631 49.0107 68.0631C48.9669 68.0631 47.6672 69.3089 46.1221 70.8314Z" stroke="#0054A0" stroke-width="0.4" mask="url(#path-1-outside-1_168_1679)"/>
</svg>
