<svg width="81" height="81" viewBox="0 0 81 81" fill="none" xmlns="http://www.w3.org/2000/svg">
<path d="M16.74 57.2419C16.404 57.2419 16.132 57.5939 16.132 58.0259V58.0419C16.132 58.4739 16.404 58.8259 16.74 58.8259C17.076 58.8259 17.364 58.4739 17.364 58.0259C17.364 57.6099 17.076 57.2419 16.74 57.2419ZM16.74 57.2419C16.404 57.2419 16.132 57.5939 16.132 58.0259V58.0419C16.132 58.4739 16.404 58.8259 16.74 58.8259C17.076 58.8259 17.364 58.4739 17.364 58.0259C17.364 57.6099 17.076 57.2419 16.74 57.2419ZM16.74 57.2419C16.404 57.2419 16.132 57.5939 16.132 58.0259V58.0419C16.132 58.4739 16.404 58.8259 16.74 58.8259C17.076 58.8259 17.364 58.4739 17.364 58.0259C17.364 57.6099 17.076 57.2419 16.74 57.2419ZM16.74 57.2419C16.404 57.2419 16.132 57.5939 16.132 58.0259V58.0419C16.132 58.4739 16.404 58.8259 16.74 58.8259C17.076 58.8259 17.364 58.4739 17.364 58.0259C17.364 57.6099 17.076 57.2419 16.74 57.2419ZM16.74 57.2419C16.404 57.2419 16.132 57.5939 16.132 58.0259V58.0419C16.132 58.4739 16.404 58.8259 16.74 58.8259C17.076 58.8259 17.364 58.4739 17.364 58.0259C17.364 57.6099 17.076 57.2419 16.74 57.2419Z" fill="#0054A0"/>
<path d="M61.972 21.6899C61.636 21.6899 61.364 22.0419 61.364 22.4739V22.4899C61.364 22.9219 61.636 23.2739 61.972 23.2739C62.308 23.2739 62.596 22.9059 62.596 22.4739C62.596 22.0579 62.308 21.6899 61.972 21.6899ZM61.972 21.6899C61.636 21.6899 61.364 22.0419 61.364 22.4739V22.4899C61.364 22.9219 61.636 23.2739 61.972 23.2739C62.308 23.2739 62.596 22.9059 62.596 22.4739C62.596 22.0579 62.308 21.6899 61.972 21.6899ZM61.972 21.6899C61.636 21.6899 61.364 22.0419 61.364 22.4739V22.4899C61.364 22.9219 61.636 23.2739 61.972 23.2739C62.308 23.2739 62.596 22.9059 62.596 22.4739C62.596 22.0579 62.308 21.6899 61.972 21.6899Z" fill="#0054A0"/>
<path d="M70.884 10.1699C70.804 10.1379 70.66 10.1059 70.5 10.0739C69.524 9.89789 68.532 9.72189 67.556 9.54589C65.796 9.22589 64.052 8.92189 62.292 8.60189C61.94 8.53789 61.572 8.47389 61.204 8.39389C61.028 8.36189 60.852 8.31389 60.676 8.28189C60.532 8.24989 60.388 8.23389 60.244 8.23389H60.1C59.3 8.23389 58.58 8.66589 58.196 9.30589H55.94C54.724 9.30589 53.732 10.2979 53.732 11.4979V30.9219H44.068C43.972 30.9219 43.796 30.9059 43.54 30.9059C42.452 30.9059 39.78 31.1299 38.356 33.1299C37.748 33.9939 37.444 35.0499 37.444 36.2819C37.444 39.5619 38.836 40.5539 39.86 41.2739C40.692 41.8659 41.108 42.1539 41.108 43.5939C41.108 44.7139 40.868 45.5939 40.356 46.2979C39.124 48.0099 36.628 48.2659 35.268 48.2659C34.74 48.2659 34.388 48.2339 34.388 48.2179H34.372C34.34 48.2179 34.324 48.2179 34.292 48.2179H27.236V47.8179C27.236 46.8259 26.58 45.9619 25.62 45.7059H25.604C25.54 45.6899 25.396 45.6419 25.236 45.6099C24.26 45.4339 23.268 45.2579 22.292 45.0819C20.532 44.7619 18.788 44.4579 17.028 44.1379C16.676 44.0739 16.308 44.0099 15.94 43.9299C15.764 43.8979 15.588 43.8499 15.412 43.8179C15.268 43.7859 15.124 43.7699 14.98 43.7699H14.836C14.036 43.7699 13.316 44.2019 12.932 44.8419H10.708C9.492 44.8419 8.5 45.8339 8.5 47.0339V68.1699C8.5 69.3859 9.492 70.3619 10.708 70.3619H12.228C12.388 70.3619 12.532 70.3459 12.676 70.3139C12.756 70.8419 13.028 71.3379 13.444 71.6899C13.844 72.0259 14.34 72.2019 14.868 72.2019C14.996 72.2019 15.124 72.1859 15.252 72.1699L16.564 71.9299L25.428 70.3459C26.484 70.1539 27.252 69.2419 27.252 68.1859V50.7459H34.228C34.372 50.7619 34.772 50.7939 35.3 50.7939C37.028 50.7939 40.18 50.4259 41.956 47.9619C42.804 46.7939 43.22 45.3219 43.22 43.5779C43.22 40.6659 41.908 39.7379 40.948 39.0659C40.084 38.4579 39.556 38.0899 39.556 36.2659C39.556 35.6579 39.684 35.1619 39.972 34.7779C40.82 33.5619 42.756 33.4339 43.556 33.4339C43.796 33.4339 43.94 33.4499 43.94 33.4499H43.956C43.972 33.4499 43.988 33.4499 44.02 33.4499H53.892C54.212 34.2499 55.012 34.8259 55.94 34.8259H57.46C57.62 34.8259 57.764 34.8099 57.908 34.7779C57.988 35.3059 58.26 35.8019 58.676 36.1539C59.076 36.4899 59.572 36.6659 60.1 36.6659C60.228 36.6659 60.356 36.6499 60.484 36.6339L61.796 36.3939L70.66 34.8099C71.716 34.6179 72.484 33.7059 72.484 32.6499V12.2979C72.5 11.3059 71.844 10.4419 70.884 10.1699ZM25.044 68.2179C21.652 68.8259 18.26 69.4339 14.868 70.0419V48.6019H12.228V68.2019H10.708V47.0659H14.852V45.9939H14.996C15.556 46.1059 16.1 46.2179 16.66 46.3139C19.396 46.8099 22.132 47.2899 24.868 47.7859C24.932 47.8019 24.98 47.8179 25.06 47.8339V68.2179H25.044ZM70.292 32.6819C66.9 33.2899 63.508 33.8979 60.116 34.5059V13.0659H57.476V32.6659H55.956V11.5299H60.1V10.4579H60.244C60.804 10.5699 61.348 10.6819 61.908 10.7779C64.644 11.2739 67.38 11.7539 70.116 12.2499C70.18 12.2659 70.228 12.2819 70.308 12.2979V32.6819H70.292Z" fill="#0054A0"/>
</svg>
