<svg width="81" height="81" viewBox="0 0 81 81" fill="none" xmlns="http://www.w3.org/2000/svg">
<path d="M27.732 34.7459C26.372 34.7459 25.284 33.5939 25.284 32.1699V12.6659C25.284 12.6019 25.3 12.5219 25.348 12.4739L25.684 12.0259L30.164 6.15388C30.228 6.07388 30.324 6.02588 30.42 6.02588H50.644C50.74 6.02588 50.836 6.07388 50.9 6.15388L55.7 12.4899C55.748 12.5379 55.764 12.6179 55.764 12.6819V32.1859C55.764 33.6099 54.66 34.7619 53.316 34.7619H27.732V34.7459ZM26.772 32.1699C26.772 32.7459 27.204 33.2099 27.732 33.2099H53.316C53.844 33.2099 54.276 32.7459 54.276 32.1699V19.3699H45.812V23.0499C45.812 23.1779 45.732 23.2899 45.62 23.3379C45.572 23.3539 45.524 23.3699 45.492 23.3699C45.412 23.3699 45.348 23.3379 45.284 23.2899L44.996 23.0499L40.5 19.2419L36.02 23.0499L35.732 23.2899C35.668 23.3379 35.604 23.3699 35.524 23.3699C35.476 23.3699 35.428 23.3539 35.396 23.3379C35.284 23.2899 35.204 23.1779 35.204 23.0499V19.3699H26.74V32.1699H26.772ZM40.516 17.0179C40.596 17.0179 40.66 17.0499 40.724 17.0979L43.748 19.6579V13.4339H37.284V19.6579L40.308 17.0979C40.372 17.0499 40.452 17.0179 40.516 17.0179ZM54.212 17.3219V13.4339H45.812V17.3219H54.212ZM35.22 17.3219V13.4339H26.82V17.3219H35.22ZM53.028 11.4339L50.1 7.56188H30.964L28.02 11.4339H53.028Z" fill="#0054A0"/>
<path d="M50.644 6.32994L55.108 12.2019L55.444 12.6499V32.1539C55.444 33.4019 54.484 34.4099 53.316 34.4099H27.732C26.564 34.4099 25.604 33.4019 25.604 32.1539V12.6659L25.94 12.2179L30.42 6.32994H50.644ZM27.364 11.7539H53.684L50.26 7.22594H30.804L27.364 11.7539ZM45.492 17.6419H54.532V13.1139H45.492V17.6419ZM36.964 20.3459L40.516 17.3379L44.068 20.3459V13.1139H36.964V20.3459ZM26.5 17.6419H35.54V13.1139H26.5V17.6419ZM35.54 23.0659V19.0659H26.436V32.1859C26.436 32.9379 27.012 33.5459 27.716 33.5459H53.3C54.004 33.5459 54.58 32.9379 54.58 32.1859V19.0659H45.476V23.0659L45.188 22.8259L40.5 18.8419L35.812 22.8259L35.54 23.0659ZM50.644 5.68994H30.42C30.228 5.68994 30.036 5.78594 29.908 5.94594L25.428 11.8179L25.076 12.2659C24.996 12.3779 24.948 12.5059 24.948 12.6499V32.1539C24.948 33.7539 26.196 35.0499 27.716 35.0499H53.3C54.836 35.0499 56.068 33.7539 56.068 32.1539V12.6659C56.068 12.5219 56.02 12.3939 55.94 12.2819L55.604 11.8339L51.14 5.96194C51.028 5.78594 50.836 5.68994 50.644 5.68994ZM31.124 7.88194H49.94L52.404 11.1299H28.66L31.124 7.88194ZM46.132 13.7539H53.892V17.0019H46.132V13.7539ZM37.604 13.7539H43.428V18.9699L40.932 16.8579C40.82 16.7619 40.66 16.7139 40.516 16.7139C40.372 16.7139 40.228 16.7619 40.1 16.8579L37.604 18.9699V13.7539ZM27.14 13.7539H34.9V17.0019H27.14V13.7539ZM35.54 23.7059C35.684 23.7059 35.828 23.6579 35.956 23.5619L36.244 23.3219L40.532 19.6899L44.82 23.3219L45.108 23.5619C45.22 23.6579 45.364 23.7059 45.524 23.7059C45.62 23.7059 45.716 23.6899 45.796 23.6419C46.02 23.5299 46.164 23.3059 46.164 23.0659V19.7059H53.988V32.1859C53.988 32.5859 53.7 32.9059 53.348 32.9059H27.732C27.38 32.9059 27.092 32.5859 27.092 32.1859V19.7059H34.9V23.0659C34.9 23.3219 35.044 23.5459 35.268 23.6419C35.364 23.6899 35.46 23.7059 35.54 23.7059Z" fill="#0054A0"/>
<path d="M21.412 65.162C19.476 65.162 18.084 65.13 16.74 65.066C15.828 65.018 14.836 64.362 14.084 63.29C13.988 63.146 13.764 62.794 13.572 62.474C13.444 62.282 13.332 62.09 13.236 61.946L13.156 61.802C9.54002 55.882 8.86802 52.122 8.85202 46.842V29.674C8.85202 25.754 11.028 25.098 12.324 25.05C12.372 25.05 12.42 25.05 12.484 25.05C13.396 25.05 14.132 25.306 14.644 25.818C15.508 26.666 15.62 28.026 15.604 29.386C15.588 30.058 15.62 30.714 15.636 31.402V31.418C15.684 32.874 15.716 34.186 15.524 35.498L15.476 35.882C15.444 36.186 15.396 36.49 15.348 36.81C15.22 37.962 15.06 39.258 14.756 40.41L14.772 40.394C15.092 40.186 15.46 40.09 15.892 40.09C17.092 40.09 18.612 40.922 19.572 42.122C22.26 45.434 24.644 49.578 26.852 54.778C27.652 56.666 27.732 58.794 27.812 61.066V61.162C27.844 61.866 27.86 62.602 27.924 63.354C27.956 63.818 27.796 64.282 27.476 64.618C27.156 64.97 26.708 65.162 26.26 65.162L24.068 65.178C23.156 65.162 22.276 65.162 21.412 65.162ZM12.5 26.586C12.484 26.586 12.484 26.586 12.468 26.586C12.436 26.586 12.404 26.586 12.372 26.586C11.796 26.602 10.404 26.634 10.404 29.658V46.842C10.42 51.834 11.044 55.402 14.484 60.986L14.564 61.13C14.852 61.61 15.22 62.218 15.348 62.394C15.876 63.146 16.468 63.498 16.804 63.514C18.084 63.578 19.476 63.61 21.284 63.61C22.132 63.61 23.012 63.61 23.924 63.594L26.26 63.578C26.308 63.578 26.34 63.546 26.372 63.53C26.388 63.514 26.404 63.482 26.404 63.418C26.356 62.666 26.324 61.914 26.292 61.178V61.13C26.228 59.114 26.148 57.018 25.444 55.338C23.3 50.298 20.98 46.266 18.388 43.05C17.636 42.122 16.548 41.578 15.908 41.578C15.78 41.578 15.716 41.594 15.668 41.626C15.076 42.154 15.348 43.77 15.78 44.746C16.484 46.33 17.412 47.898 18.244 49.274C18.82 50.234 19.524 51.434 20.148 52.618C20.5 53.306 20.676 53.962 20.708 54.81C20.74 55.354 20.388 55.674 20.036 55.754C19.972 55.77 19.908 55.77 19.844 55.77C19.268 55.77 18.804 55.194 18.596 54.714L18.356 54.298C18.132 54.026 17.956 53.69 17.78 53.354C17.748 53.29 17.716 53.226 17.668 53.162C17.62 53.082 17.588 53.018 17.54 52.938C15.572 49.594 15.012 48.426 13.508 44.922C12.836 43.354 12.756 41.898 13.268 40.026C13.54 38.97 13.7 37.658 13.828 36.602C13.876 36.138 13.94 35.674 14.004 35.258C14.18 34.074 14.148 32.826 14.1 31.434C14.084 30.746 14.068 30.026 14.068 29.322C14.084 28.362 14.036 27.338 13.572 26.874C13.316 26.698 12.98 26.586 12.5 26.586Z" fill="#0054A0"/>
<path d="M12.468 25.37C13.3 25.37 13.94 25.594 14.404 26.058C15.188 26.826 15.284 28.122 15.268 29.386C15.252 30.074 15.284 30.746 15.3 31.434C15.348 32.762 15.38 34.122 15.188 35.466C15.14 35.882 15.076 36.33 15.012 36.778C14.868 37.994 14.708 39.258 14.42 40.362C14.244 41.034 14.148 41.642 14.132 42.202C14.212 41.61 14.452 41.066 14.932 40.666C15.204 40.49 15.524 40.41 15.876 40.41C17.012 40.41 18.452 41.258 19.316 42.33C21.988 45.642 24.356 49.754 26.548 54.906C27.332 56.746 27.412 58.874 27.492 61.114C27.524 61.85 27.54 62.602 27.604 63.354C27.636 63.738 27.492 64.106 27.236 64.378C26.98 64.666 26.628 64.81 26.244 64.81L24.052 64.826C23.124 64.842 22.244 64.842 21.396 64.842C19.78 64.842 18.26 64.826 16.74 64.746C15.924 64.714 15.028 64.09 14.34 63.114C14.18 62.89 13.732 62.154 13.492 61.77L13.412 61.642C9.82801 55.786 9.17201 52.074 9.15601 46.858V29.674C9.15601 26.202 10.868 25.418 12.308 25.37C12.388 25.37 12.42 25.37 12.468 25.37ZM21.284 63.946C22.18 63.946 23.092 63.946 24.068 63.93L26.26 63.914C26.388 63.914 26.5 63.866 26.596 63.77C26.692 63.674 26.724 63.546 26.708 63.418C26.66 62.65 26.628 61.882 26.596 61.146C26.516 58.986 26.436 56.954 25.732 55.242C23.572 50.17 21.252 46.122 18.628 42.874C17.828 41.882 16.628 41.274 15.908 41.274C15.732 41.274 15.588 41.306 15.492 41.37C14.676 42.042 15.06 43.882 15.508 44.874C16.212 46.442 17.108 47.962 17.988 49.434C18.628 50.506 19.284 51.626 19.876 52.762C20.196 53.402 20.372 54.01 20.404 54.81C20.42 55.194 20.18 55.386 19.988 55.418C19.94 55.434 19.908 55.434 19.86 55.434C19.428 55.434 19.06 54.922 18.9 54.554L18.644 54.09C18.42 53.834 18.244 53.498 18.068 53.162C17.988 53.034 17.908 52.874 17.828 52.73C15.876 49.418 15.332 48.266 13.812 44.762C13.172 43.274 13.092 41.882 13.588 40.074C13.86 39.034 14.02 37.802 14.164 36.602C14.212 36.138 14.276 35.69 14.34 35.274C14.516 34.01 14.484 32.682 14.436 31.386C14.42 30.682 14.404 29.978 14.404 29.29C14.42 28.218 14.356 27.146 13.812 26.618C13.524 26.33 13.108 26.186 12.532 26.186C12.484 26.186 12.452 26.202 12.404 26.202C11.412 26.234 10.116 26.618 10.116 29.594V46.778C10.132 51.818 10.756 55.418 14.244 61.098L14.324 61.226C14.548 61.594 14.98 62.298 15.124 62.506C15.636 63.242 16.308 63.738 16.82 63.77C18.26 63.93 19.732 63.946 21.284 63.946ZM12.468 24.73C12.42 24.73 12.356 24.73 12.308 24.73C10.9 24.778 8.53201 25.482 8.53201 29.674V46.858C8.54801 52.202 9.22001 55.994 12.884 61.978L12.964 62.106C12.964 62.106 12.964 62.122 12.98 62.122C13.076 62.266 13.188 62.458 13.316 62.65C13.524 63.002 13.732 63.322 13.844 63.482C14.66 64.65 15.716 65.354 16.756 65.402C18.1 65.466 19.508 65.498 21.444 65.498C22.292 65.498 23.188 65.498 24.116 65.482L26.308 65.466C26.852 65.466 27.38 65.242 27.764 64.826C27.764 64.826 27.764 64.826 27.764 64.81C28.132 64.394 28.324 63.85 28.292 63.306C28.244 62.57 28.212 61.85 28.18 61.13V61.082V61.034C28.1 58.746 28.02 56.586 27.188 54.634C24.964 49.402 22.564 45.242 19.86 41.898C18.836 40.634 17.22 39.754 15.924 39.754C15.684 39.754 15.46 39.786 15.236 39.834C15.444 38.842 15.572 37.786 15.684 36.842C15.732 36.522 15.764 36.218 15.812 35.914C15.828 35.786 15.844 35.658 15.86 35.53C16.052 34.186 16.02 32.858 15.972 31.386V31.37C15.956 30.682 15.94 30.026 15.94 29.37C15.956 27.946 15.844 26.506 14.884 25.578C14.276 25.018 13.476 24.73 12.468 24.73ZM12.372 26.922C12.42 26.922 12.468 26.922 12.5 26.906C12.884 26.906 13.156 26.986 13.332 27.146C13.748 27.562 13.732 28.858 13.732 29.354C13.716 30.058 13.748 30.778 13.764 31.466C13.812 32.842 13.844 34.074 13.668 35.242C13.604 35.658 13.556 36.122 13.492 36.586C13.364 37.626 13.204 38.938 12.932 39.962C12.404 41.898 12.484 43.434 13.188 45.066C14.708 48.586 15.268 49.754 17.236 53.098C17.236 53.098 17.236 53.114 17.252 53.114C17.3 53.178 17.332 53.258 17.38 53.322C17.412 53.386 17.444 53.45 17.492 53.514C17.668 53.866 17.86 54.186 18.084 54.474L18.292 54.858C18.548 55.434 19.108 56.09 19.828 56.09C19.924 56.09 20.02 56.074 20.1 56.058C20.564 55.946 21.044 55.514 21.012 54.794C20.98 53.914 20.788 53.194 20.42 52.474C19.796 51.274 19.092 50.074 18.516 49.114C17.7 47.738 16.772 46.202 16.068 44.618C15.652 43.674 15.476 42.33 15.828 41.914C15.844 41.914 15.86 41.914 15.892 41.914C16.372 41.914 17.412 42.378 18.116 43.274C20.708 46.474 22.996 50.474 25.14 55.482C25.828 57.098 25.892 59.162 25.956 61.146V61.194C25.988 61.866 26.004 62.554 26.052 63.258L24.052 63.274H23.924C22.996 63.274 22.132 63.29 21.284 63.29C19.476 63.29 18.1 63.258 16.82 63.194C16.612 63.178 16.1 62.906 15.62 62.218C15.62 62.218 15.62 62.202 15.604 62.202C15.508 62.074 15.204 61.578 14.836 60.97L14.756 60.842C11.364 55.306 10.724 51.786 10.724 46.858V29.674C10.724 26.97 11.844 26.922 12.372 26.922Z" fill="#0054A0"/>
<path d="M12.276 74.4901C12.1 74.4901 11.956 74.3461 11.956 74.1701V66.5221C11.956 66.3461 12.1 66.2021 12.276 66.2021H29.62C29.796 66.2021 29.94 66.3461 29.94 66.5221V74.1701C29.94 74.3461 29.796 74.4901 29.62 74.4901H12.276ZM28.404 72.9381V67.7381H13.492V72.9381H28.404Z" fill="#0054A0"/>
<path d="M29.62 66.5221V74.1701H12.276V66.5221H29.62ZM13.172 73.2581H28.724V67.4181H13.172V73.2581ZM29.62 65.8821H12.276C11.924 65.8821 11.636 66.1701 11.636 66.5221V74.1701C11.636 74.5221 11.924 74.8101 12.276 74.8101H29.62C29.972 74.8101 30.26 74.5221 30.26 74.1701V66.5221C30.26 66.1701 29.988 65.8821 29.62 65.8821ZM13.812 68.0741H28.084V72.6341H13.812V68.0741Z" fill="#0054A0"/>
<path d="M59.588 65.1621C58.74 65.1621 57.844 65.1621 56.932 65.1461L54.74 65.1301C54.276 65.1301 53.844 64.9381 53.524 64.6021C53.204 64.2501 53.044 63.7861 53.076 63.3221C53.124 62.5861 53.156 61.8501 53.188 61.1461V61.0501C53.268 58.7941 53.348 56.6501 54.148 54.7621C56.372 49.5621 58.74 45.4181 61.428 42.1061C62.404 40.9061 63.908 40.0741 65.108 40.0741C65.54 40.0741 65.924 40.1861 66.228 40.3781L66.244 40.3941C65.94 39.2581 65.78 37.9461 65.652 36.7941C65.604 36.4901 65.572 36.1701 65.524 35.8661L65.476 35.4821C65.284 34.1701 65.316 32.8581 65.364 31.4021V31.3701C65.38 30.6821 65.396 30.0261 65.396 29.3541C65.38 28.0101 65.476 26.6501 66.356 25.7861C66.884 25.2741 67.604 25.0181 68.516 25.0181C68.564 25.0181 68.612 25.0181 68.66 25.0181C69.956 25.0661 72.132 25.7061 72.132 29.6421V46.8261C72.116 52.1061 71.46 55.8661 67.828 61.7861L67.748 61.9141C67.652 62.0581 67.54 62.2501 67.412 62.4421C67.204 62.7781 66.996 63.1141 66.9 63.2581C66.148 64.3301 65.156 65.0021 64.244 65.0341C62.916 65.1301 61.524 65.1621 59.588 65.1621ZM65.108 41.6101C64.484 41.6101 63.38 42.1701 62.628 43.0821C60.02 46.2981 57.716 50.3301 55.556 55.3701C54.852 57.0501 54.788 59.1301 54.708 61.1461V61.1941C54.676 61.9141 54.66 62.6661 54.596 63.4181C54.596 63.4821 54.612 63.4981 54.628 63.5301C54.644 63.5461 54.676 63.5621 54.724 63.5621L57.06 63.5781C57.972 63.5781 58.852 63.5941 59.7 63.5941C61.508 63.5941 62.884 63.5621 64.18 63.4981C64.516 63.4821 65.124 63.1301 65.636 62.3781C65.764 62.2021 66.148 61.5781 66.436 61.1141L66.516 60.9861C69.956 55.3861 70.58 51.8341 70.596 46.8261V29.6741C70.596 26.6501 69.204 26.6181 68.612 26.6021C68.58 26.6021 68.548 26.6021 68.516 26.6021C68.5 26.6021 68.5 26.6021 68.484 26.6021C68.004 26.6021 67.652 26.7141 67.428 26.9381C66.964 27.3861 66.916 28.4261 66.932 29.3861C66.948 30.0901 66.916 30.7941 66.9 31.4821C66.852 32.8741 66.82 34.1221 66.996 35.3061C67.06 35.7221 67.108 36.1541 67.172 36.6501C67.3 37.7061 67.46 39.0181 67.732 40.0741C68.244 41.9461 68.164 43.4021 67.492 44.9701C65.972 48.4741 65.428 49.6261 63.46 52.9701C63.412 53.0501 63.364 53.1301 63.316 53.2101C63.284 53.2741 63.252 53.3381 63.204 53.4021C63.028 53.7381 62.836 54.0741 62.628 54.3461L62.388 54.7621C62.164 55.2581 61.716 55.8181 61.14 55.8181C61.076 55.8181 60.996 55.8021 60.932 55.7861C60.596 55.7061 60.244 55.3861 60.276 54.8421C60.308 53.9941 60.484 53.3541 60.836 52.6501C61.444 51.4661 62.164 50.2661 62.74 49.3061C63.556 47.9301 64.5 46.3781 65.204 44.7781C65.636 43.8021 65.908 42.1861 65.316 41.6581C65.3 41.6421 65.236 41.6101 65.108 41.6101Z" fill="#0054A0"/>
<path d="M68.532 25.37C68.58 25.37 68.628 25.37 68.676 25.37C70.116 25.418 71.828 26.202 71.828 29.674V46.858C71.812 52.074 71.156 55.802 67.572 61.642L67.492 61.77C67.252 62.138 66.804 62.89 66.644 63.114C65.956 64.106 65.06 64.714 64.244 64.746C62.708 64.826 61.204 64.842 59.588 64.842C58.74 64.842 57.844 64.842 56.932 64.826L54.74 64.81C54.356 64.81 54.02 64.65 53.748 64.378C53.492 64.09 53.364 63.722 53.38 63.354C53.428 62.602 53.46 61.85 53.492 61.114C53.572 58.874 53.652 56.746 54.436 54.906C56.628 49.754 58.996 45.642 61.668 42.33C62.532 41.258 63.972 40.41 65.108 40.41C65.46 40.41 65.78 40.49 66.052 40.666C66.516 41.066 66.772 41.61 66.852 42.202C66.836 41.642 66.756 41.034 66.564 40.362C66.26 39.258 66.116 37.994 65.972 36.778C65.908 36.33 65.86 35.882 65.796 35.466C65.604 34.122 65.636 32.746 65.684 31.434C65.7 30.746 65.716 30.074 65.716 29.386C65.7 28.122 65.796 26.826 66.58 26.058C67.044 25.594 67.7 25.37 68.532 25.37ZM61.172 55.482C61.124 55.482 61.092 55.482 61.044 55.466C60.852 55.418 60.612 55.226 60.628 54.858C60.66 54.058 60.82 53.434 61.156 52.81C61.748 51.674 62.404 50.554 63.044 49.482C63.924 48.01 64.82 46.49 65.524 44.922C65.972 43.93 66.34 42.09 65.54 41.418C65.428 41.354 65.284 41.322 65.124 41.322C64.404 41.322 63.204 41.914 62.404 42.922C59.78 46.17 57.46 50.218 55.3 55.29C54.58 56.986 54.5 59.018 54.436 61.194C54.404 61.93 54.388 62.698 54.324 63.466C54.308 63.594 54.356 63.722 54.436 63.818C54.532 63.914 54.644 63.962 54.772 63.962L56.964 63.978C57.924 63.978 58.852 63.994 59.748 63.994C61.3 63.994 62.772 63.978 64.244 63.898C64.756 63.866 65.428 63.386 65.94 62.634C66.1 62.426 66.532 61.706 66.74 61.354L66.82 61.226C70.308 55.562 70.932 51.962 70.948 46.906V29.674C70.948 26.698 69.652 26.314 68.66 26.282C68.612 26.282 68.58 26.266 68.532 26.266C67.956 26.266 67.54 26.41 67.252 26.698C66.708 27.226 66.644 28.298 66.66 29.37C66.676 30.058 66.644 30.762 66.628 31.466C66.58 32.746 66.548 34.09 66.724 35.354C66.788 35.77 66.836 36.218 66.9 36.682C67.044 37.882 67.204 39.114 67.476 40.154C67.972 41.962 67.892 43.354 67.252 44.842C65.732 48.346 65.188 49.498 63.236 52.81C63.14 52.954 63.076 53.098 62.996 53.242C62.82 53.562 62.644 53.898 62.42 54.17L62.164 54.634C61.972 54.97 61.604 55.482 61.172 55.482ZM68.532 24.73C67.54 24.73 66.724 25.018 66.148 25.594C65.188 26.522 65.076 27.978 65.092 29.386C65.108 30.058 65.076 30.698 65.06 31.386V31.402C65.012 32.874 64.98 34.202 65.172 35.546C65.188 35.658 65.204 35.802 65.22 35.93C65.252 36.234 65.3 36.538 65.348 36.858C65.46 37.818 65.588 38.858 65.796 39.85C65.588 39.786 65.348 39.77 65.108 39.77C63.812 39.77 62.196 40.65 61.172 41.914C58.468 45.258 56.068 49.418 53.844 54.65C53.012 56.586 52.932 58.762 52.852 61.05V61.098V61.146C52.82 61.85 52.804 62.586 52.74 63.322C52.708 63.866 52.9 64.41 53.268 64.826C53.268 64.826 53.268 64.826 53.268 64.842C53.652 65.258 54.164 65.482 54.724 65.482L56.916 65.498C57.844 65.514 58.724 65.514 59.572 65.514C61.508 65.514 62.916 65.482 64.26 65.418C65.284 65.37 66.34 64.682 67.156 63.514C67.268 63.354 67.46 63.034 67.684 62.682C67.812 62.49 67.924 62.298 68.02 62.154C68.02 62.154 68.02 62.138 68.036 62.138L68.116 62.01C71.78 56.026 72.452 52.234 72.452 46.89V29.674C72.452 25.482 70.084 24.778 68.676 24.73C68.628 24.73 68.58 24.73 68.532 24.73ZM63.524 53.53C63.556 53.466 63.588 53.402 63.636 53.338C63.684 53.258 63.716 53.194 63.764 53.13C63.764 53.13 63.764 53.114 63.78 53.114C65.748 49.754 66.308 48.602 67.828 45.082C68.532 43.45 68.612 41.914 68.084 39.978C67.812 38.954 67.652 37.658 67.524 36.602C67.476 36.138 67.412 35.674 67.348 35.258C67.188 34.09 67.204 32.874 67.252 31.498C67.268 30.794 67.284 30.074 67.284 29.37C67.268 28.874 67.252 27.578 67.684 27.162C67.844 27.002 68.116 26.922 68.5 26.922C68.532 26.922 68.564 26.922 68.628 26.938C69.172 26.954 70.292 27.002 70.292 29.69V46.874C70.276 51.802 69.652 55.322 66.26 60.858L66.18 61.002C65.812 61.61 65.508 62.106 65.412 62.234C65.412 62.234 65.412 62.25 65.396 62.25C64.916 62.938 64.404 63.226 64.18 63.226C62.9 63.29 61.524 63.322 59.716 63.322C58.868 63.322 58.004 63.322 57.076 63.306H56.948L54.948 63.29C54.996 62.586 55.012 61.898 55.044 61.226V61.178C55.108 59.194 55.172 57.13 55.86 55.498C58.004 50.49 60.292 46.49 62.884 43.29C63.604 42.41 64.644 41.93 65.108 41.93C65.14 41.93 65.156 41.93 65.172 41.93C65.54 42.362 65.364 43.69 64.932 44.634C64.228 46.202 63.3 47.754 62.484 49.13C61.908 50.09 61.188 51.29 60.58 52.49C60.212 53.21 60.02 53.93 59.988 54.81C59.956 55.53 60.436 55.962 60.9 56.074C60.996 56.09 61.076 56.106 61.172 56.106C61.892 56.106 62.452 55.45 62.708 54.858L62.916 54.474C63.156 54.202 63.332 53.866 63.524 53.53Z" fill="#0054A0"/>
<path d="M51.38 74.4901C51.204 74.4901 51.06 74.3461 51.06 74.1701V66.5221C51.06 66.3461 51.204 66.2021 51.38 66.2021H68.74C68.916 66.2021 69.06 66.3461 69.06 66.5221V74.1701C69.06 74.3461 68.916 74.4901 68.74 74.4901H51.38ZM67.508 72.9381V67.7381H52.596V72.9381H67.508Z" fill="#0054A0"/>
<path d="M68.724 66.5221V74.1701H51.38V66.5221H68.724ZM52.276 73.2581H67.828V67.4181H52.276V73.2581ZM68.724 65.8821H51.38C51.028 65.8821 50.74 66.1701 50.74 66.5221V74.1701C50.74 74.5221 51.028 74.8101 51.38 74.8101H68.74C69.092 74.8101 69.38 74.5221 69.38 74.1701V66.5221C69.364 66.1701 69.092 65.8821 68.724 65.8821ZM52.916 68.0741H67.188V72.6341H52.916V68.0741Z" fill="#0054A0"/>
<path d="M36.452 64.01C36.324 64.01 36.212 63.898 36.212 63.77V54.058H33.188C33.092 54.058 33.012 54.01 32.964 53.914C32.932 53.834 32.932 53.722 32.996 53.658L40.324 45.29C40.372 45.242 40.436 45.21 40.5 45.21C40.564 45.21 40.628 45.242 40.676 45.29L48.004 53.658C48.068 53.722 48.084 53.834 48.036 53.914C47.988 53.994 47.908 54.058 47.812 54.058H44.788V63.77C44.788 63.898 44.676 64.01 44.548 64.01H36.452ZM43.444 62.618V52.906C43.444 52.778 43.556 52.666 43.684 52.666H45.332L40.532 47.178L35.732 52.666H37.38C37.508 52.666 37.62 52.778 37.62 52.906V62.618H43.444Z" fill="#0054A0"/>
<path d="M40.516 45.45L47.844 53.818H44.58V63.77H36.436V53.818H33.172L40.516 45.45ZM35.188 52.906H37.364V62.858H43.7V52.906H45.876L40.516 46.81L35.188 52.906ZM40.516 44.97C40.372 44.97 40.244 45.034 40.148 45.13L32.82 53.498C32.692 53.642 32.66 53.834 32.74 54.01C32.82 54.186 32.996 54.298 33.172 54.298H35.956V63.77C35.956 64.042 36.164 64.25 36.436 64.25H44.58C44.852 64.25 45.06 64.042 45.06 63.77V54.298H47.844C48.036 54.298 48.196 54.186 48.276 54.01C48.356 53.834 48.324 53.642 48.196 53.498L40.868 45.13C40.788 45.018 40.66 44.97 40.516 44.97ZM36.244 52.426L40.516 47.546L44.788 52.426H43.684C43.412 52.426 43.204 52.634 43.204 52.906V62.378H37.828V52.906C37.828 52.634 37.62 52.426 37.348 52.426H36.244Z" fill="#0054A0"/>
</svg>
