<svg width="81" height="81" viewBox="0 0 81 81" fill="none" xmlns="http://www.w3.org/2000/svg">
<mask id="path-1-outside-1_145_29" maskUnits="userSpaceOnUse" x="8.04401" y="6.49805" width="65" height="68" fill="black">
<rect fill="white" x="8.04401" y="6.49805" width="65" height="68"/>
<path d="M16.82 30.3141C11.828 27.6581 10.564 22.6821 11.716 18.7941C12.884 14.7781 16.58 11.9781 20.74 11.8981C25.028 11.8181 28.804 14.4901 30.116 18.4901C31.38 22.3301 30.228 27.2741 25.556 30.0581C26.164 30.2981 26.756 30.4901 27.316 30.7301C27.748 30.9221 28.196 31.0981 28.548 31.3861C29.38 32.0901 30.308 32.1861 31.332 32.1701C36.196 32.1381 41.06 32.1541 45.94 32.1701C46.436 32.1701 46.724 32.0261 46.98 31.5781C48.644 28.7621 51.076 26.9221 54.212 26.0261C54.372 25.9781 54.516 25.9301 54.74 25.8501C51.268 23.7061 49.604 20.6341 49.668 16.5221C49.428 16.5061 49.172 16.4901 48.932 16.4901C47.54 16.4901 46.132 16.4901 44.74 16.4901C44.228 16.4901 43.78 16.3461 43.796 15.7221C43.812 15.1461 44.244 15.0181 44.724 15.0181C46.26 15.0181 47.796 15.0021 49.332 15.0181C49.78 15.0181 49.972 14.9061 50.1 14.4421C51.348 10.2661 55.124 7.48212 59.508 7.49812C63.764 7.49812 67.54 10.3461 68.772 14.4741C70.084 18.8581 68.132 23.5781 64.084 25.8181C63.908 25.9141 63.732 26.0101 63.604 26.0901C64.74 26.7621 65.956 27.3221 66.98 28.1061C70.164 30.5701 71.748 33.8661 71.78 37.8981C71.796 40.8741 71.796 43.8661 71.78 46.8421C71.78 49.2261 70.916 51.2901 69.316 53.0661C69.092 53.3061 68.948 53.7061 68.948 54.0421C68.932 59.9621 68.932 65.8821 68.932 71.8021C68.932 72.0101 69.012 72.2821 68.9 72.4261C68.724 72.6821 68.436 73.0181 68.196 73.0341C67.972 73.0341 67.684 72.6821 67.524 72.4261C67.412 72.2501 67.492 71.9781 67.492 71.7381C67.492 66.3141 67.492 60.8741 67.492 55.4501C67.492 55.2101 67.492 54.9541 67.492 54.6341C67.3 54.6981 67.188 54.7301 67.092 54.7781C65.604 55.5941 64.004 55.8981 62.324 55.8821C58.708 55.8661 55.108 55.8821 51.492 55.8821C51.22 55.8821 50.948 55.8821 50.628 55.8821C50.628 56.2501 50.628 56.5381 50.628 56.8101C50.628 61.8181 50.628 66.8261 50.628 71.8341C50.628 72.0421 50.708 72.2981 50.596 72.4581C50.42 72.7141 50.148 73.0821 49.924 73.0821C49.684 73.0821 49.412 72.7301 49.236 72.4741C49.14 72.3301 49.204 72.0741 49.204 71.8501C49.204 66.8421 49.204 61.8341 49.204 56.8261C49.204 56.5541 49.204 56.2661 49.204 55.8821C47.78 55.8821 46.388 55.8821 44.996 55.8981C44.852 55.8981 44.708 56.0261 44.58 56.1381C43.668 56.9061 42.612 57.2261 41.412 57.2261C37.508 57.2101 33.604 57.2261 29.62 57.2261C29.62 57.4661 29.62 57.7381 29.62 58.0101C29.62 62.6181 29.62 67.2421 29.62 71.8501C29.62 72.0581 29.684 72.3301 29.588 72.4741C29.412 72.7301 29.124 73.0821 28.884 73.0821C28.644 73.0821 28.356 72.7301 28.196 72.4581C28.084 72.2821 28.164 72.0101 28.164 71.7701C28.164 66.9701 28.164 62.1701 28.18 57.3701C28.18 56.8581 28.052 56.5381 27.604 56.2341C25.972 55.1621 25.124 53.5941 25.092 51.6581C25.044 48.2981 25.076 44.9541 25.076 41.5941C25.076 41.0981 25.22 40.6661 25.78 40.6501C26.388 40.6341 26.532 41.0821 26.532 41.6101C26.532 44.8101 26.532 47.9941 26.532 51.1941C26.532 54.0901 28.228 55.7861 31.14 55.7861C34.58 55.7861 38.036 55.8021 41.476 55.7861C43.556 55.7701 44.916 54.2181 44.612 52.2341C44.388 50.7941 43.188 49.7861 41.588 49.7701C39.076 49.7541 36.564 49.7701 34.036 49.7701C32.628 49.7701 32.564 49.7061 32.564 48.3301C32.564 45.9941 32.564 43.6741 32.564 41.3381C32.548 35.5461 28.228 31.1941 22.452 31.2261C20.884 31.2421 19.252 31.2261 17.748 31.5941C13.428 32.6821 10.5 36.6021 10.484 41.0661C10.468 51.2901 10.484 61.5301 10.484 71.7541C10.484 72.3301 10.612 73.0021 9.78001 73.1141C9.26801 73.1781 9.04401 72.7621 9.04401 71.7861C9.04401 61.7221 9.04401 51.6581 9.04401 41.5941C9.04401 36.2821 11.62 32.4581 16.532 30.4261C16.644 30.4101 16.708 30.3781 16.82 30.3141ZM48.356 32.0101C48.404 32.0581 48.452 32.1221 48.484 32.1701C51.556 32.1701 54.628 32.1701 57.7 32.1701C58.836 32.1701 58.948 32.2821 58.948 33.4021C58.948 37.6421 58.948 41.8821 58.948 46.1221C58.948 46.3941 58.948 46.6661 58.948 46.9701C59.94 46.9701 60.852 46.9701 61.828 46.9701C61.828 45.2581 61.828 43.5941 61.828 41.9141C61.828 40.6821 61.828 39.4501 61.828 38.2181C61.828 37.7541 62.052 37.4341 62.516 37.4181C63.028 37.4021 63.268 37.7221 63.252 38.2181C63.252 38.3141 63.252 38.4101 63.252 38.4901C63.252 41.4181 63.252 44.3621 63.252 47.2901C63.252 48.2821 63.108 48.4261 62.116 48.4261C59.556 48.4261 56.996 48.4101 54.436 48.4421C52.676 48.4581 51.412 49.7381 51.412 51.4341C51.412 53.1301 52.676 54.4101 54.436 54.4101C57.236 54.4261 60.02 54.4421 62.82 54.4101C67.012 54.3621 70.292 51.0981 70.34 46.9061C70.372 43.7861 70.436 40.6661 70.324 37.5461C70.18 33.1141 68.004 29.9301 64.036 27.9941C61.524 26.7621 58.836 26.8741 56.164 27.1301C53.604 27.3541 51.444 28.5061 49.684 30.3461C49.204 30.8741 48.788 31.4501 48.356 32.0101ZM57.444 47.0181C57.444 42.5061 57.444 38.0741 57.444 33.6421C54.356 33.6421 51.316 33.6421 48.212 33.6421C48.212 33.9301 48.212 34.1861 48.212 34.4421C48.212 36.8421 48.212 39.2421 48.212 41.6421C48.212 42.5861 48.02 42.7781 47.06 42.7941C45.332 42.7941 43.62 42.8101 41.892 42.7941C41.06 42.7941 40.852 42.5701 40.852 41.7541C40.852 39.3061 40.852 36.8581 40.852 34.4101C40.852 34.1541 40.852 33.9141 40.852 33.6581C37.62 33.6581 34.484 33.6581 31.252 33.6581C33.396 36.1861 34.164 39.0501 34.052 42.2181C33.988 43.9781 34.036 45.7541 34.036 47.5301C34.036 47.7701 34.036 48.0101 34.036 48.2981C34.404 48.2981 34.66 48.2981 34.916 48.2981C37.156 48.2981 39.38 48.2821 41.62 48.2981C44.036 48.3301 45.876 49.9461 46.1 52.3141C46.164 52.9861 46.02 53.6901 45.972 54.3621C47.62 54.3621 49.284 54.3621 51.012 54.3621C50.932 54.2341 50.9 54.1701 50.868 54.1221C49.812 52.6181 49.636 51.0021 50.5 49.3701C51.364 47.7061 52.82 46.9701 54.692 47.0021C55.588 47.0341 56.484 47.0181 57.444 47.0181ZM29.156 21.5141C29.124 16.9541 25.46 13.3061 20.916 13.3221C16.372 13.3381 12.74 17.0341 12.756 21.5941C12.772 26.1221 16.484 29.8021 21.028 29.7541C25.54 29.7061 29.188 26.0261 29.156 21.5141ZM51.22 16.5381C50.644 19.1301 52.308 22.5861 54.9 24.2501C57.908 26.1701 61.668 26.0261 64.5 23.8501C66.788 22.0901 68.244 18.6341 67.588 16.5381C62.132 16.5381 56.676 16.5381 51.22 16.5381ZM51.508 14.9861C56.82 14.9861 62.1 14.9861 67.38 14.9861C66.548 11.4501 63.012 8.89012 59.156 8.98611C55.588 9.06611 52.116 11.7861 51.508 14.9861ZM46.692 41.2741C46.692 38.6821 46.692 36.1541 46.692 33.6261C45.204 33.6261 43.764 33.6261 42.308 33.6261C42.308 36.1861 42.308 38.7141 42.308 41.2741C43.78 41.2741 45.22 41.2741 46.692 41.2741Z"/>
</mask>
<path d="M16.82 30.3141C11.828 27.6581 10.564 22.6821 11.716 18.7941C12.884 14.7781 16.58 11.9781 20.74 11.8981C25.028 11.8181 28.804 14.4901 30.116 18.4901C31.38 22.3301 30.228 27.2741 25.556 30.0581C26.164 30.2981 26.756 30.4901 27.316 30.7301C27.748 30.9221 28.196 31.0981 28.548 31.3861C29.38 32.0901 30.308 32.1861 31.332 32.1701C36.196 32.1381 41.06 32.1541 45.94 32.1701C46.436 32.1701 46.724 32.0261 46.98 31.5781C48.644 28.7621 51.076 26.9221 54.212 26.0261C54.372 25.9781 54.516 25.9301 54.74 25.8501C51.268 23.7061 49.604 20.6341 49.668 16.5221C49.428 16.5061 49.172 16.4901 48.932 16.4901C47.54 16.4901 46.132 16.4901 44.74 16.4901C44.228 16.4901 43.78 16.3461 43.796 15.7221C43.812 15.1461 44.244 15.0181 44.724 15.0181C46.26 15.0181 47.796 15.0021 49.332 15.0181C49.78 15.0181 49.972 14.9061 50.1 14.4421C51.348 10.2661 55.124 7.48212 59.508 7.49812C63.764 7.49812 67.54 10.3461 68.772 14.4741C70.084 18.8581 68.132 23.5781 64.084 25.8181C63.908 25.9141 63.732 26.0101 63.604 26.0901C64.74 26.7621 65.956 27.3221 66.98 28.1061C70.164 30.5701 71.748 33.8661 71.78 37.8981C71.796 40.8741 71.796 43.8661 71.78 46.8421C71.78 49.2261 70.916 51.2901 69.316 53.0661C69.092 53.3061 68.948 53.7061 68.948 54.0421C68.932 59.9621 68.932 65.8821 68.932 71.8021C68.932 72.0101 69.012 72.2821 68.9 72.4261C68.724 72.6821 68.436 73.0181 68.196 73.0341C67.972 73.0341 67.684 72.6821 67.524 72.4261C67.412 72.2501 67.492 71.9781 67.492 71.7381C67.492 66.3141 67.492 60.8741 67.492 55.4501C67.492 55.2101 67.492 54.9541 67.492 54.6341C67.3 54.6981 67.188 54.7301 67.092 54.7781C65.604 55.5941 64.004 55.8981 62.324 55.8821C58.708 55.8661 55.108 55.8821 51.492 55.8821C51.22 55.8821 50.948 55.8821 50.628 55.8821C50.628 56.2501 50.628 56.5381 50.628 56.8101C50.628 61.8181 50.628 66.8261 50.628 71.8341C50.628 72.0421 50.708 72.2981 50.596 72.4581C50.42 72.7141 50.148 73.0821 49.924 73.0821C49.684 73.0821 49.412 72.7301 49.236 72.4741C49.14 72.3301 49.204 72.0741 49.204 71.8501C49.204 66.8421 49.204 61.8341 49.204 56.8261C49.204 56.5541 49.204 56.2661 49.204 55.8821C47.78 55.8821 46.388 55.8821 44.996 55.8981C44.852 55.8981 44.708 56.0261 44.58 56.1381C43.668 56.9061 42.612 57.2261 41.412 57.2261C37.508 57.2101 33.604 57.2261 29.62 57.2261C29.62 57.4661 29.62 57.7381 29.62 58.0101C29.62 62.6181 29.62 67.2421 29.62 71.8501C29.62 72.0581 29.684 72.3301 29.588 72.4741C29.412 72.7301 29.124 73.0821 28.884 73.0821C28.644 73.0821 28.356 72.7301 28.196 72.4581C28.084 72.2821 28.164 72.0101 28.164 71.7701C28.164 66.9701 28.164 62.1701 28.18 57.3701C28.18 56.8581 28.052 56.5381 27.604 56.2341C25.972 55.1621 25.124 53.5941 25.092 51.6581C25.044 48.2981 25.076 44.9541 25.076 41.5941C25.076 41.0981 25.22 40.6661 25.78 40.6501C26.388 40.6341 26.532 41.0821 26.532 41.6101C26.532 44.8101 26.532 47.9941 26.532 51.1941C26.532 54.0901 28.228 55.7861 31.14 55.7861C34.58 55.7861 38.036 55.8021 41.476 55.7861C43.556 55.7701 44.916 54.2181 44.612 52.2341C44.388 50.7941 43.188 49.7861 41.588 49.7701C39.076 49.7541 36.564 49.7701 34.036 49.7701C32.628 49.7701 32.564 49.7061 32.564 48.3301C32.564 45.9941 32.564 43.6741 32.564 41.3381C32.548 35.5461 28.228 31.1941 22.452 31.2261C20.884 31.2421 19.252 31.2261 17.748 31.5941C13.428 32.6821 10.5 36.6021 10.484 41.0661C10.468 51.2901 10.484 61.5301 10.484 71.7541C10.484 72.3301 10.612 73.0021 9.78001 73.1141C9.26801 73.1781 9.04401 72.7621 9.04401 71.7861C9.04401 61.7221 9.04401 51.6581 9.04401 41.5941C9.04401 36.2821 11.62 32.4581 16.532 30.4261C16.644 30.4101 16.708 30.3781 16.82 30.3141ZM48.356 32.0101C48.404 32.0581 48.452 32.1221 48.484 32.1701C51.556 32.1701 54.628 32.1701 57.7 32.1701C58.836 32.1701 58.948 32.2821 58.948 33.4021C58.948 37.6421 58.948 41.8821 58.948 46.1221C58.948 46.3941 58.948 46.6661 58.948 46.9701C59.94 46.9701 60.852 46.9701 61.828 46.9701C61.828 45.2581 61.828 43.5941 61.828 41.9141C61.828 40.6821 61.828 39.4501 61.828 38.2181C61.828 37.7541 62.052 37.4341 62.516 37.4181C63.028 37.4021 63.268 37.7221 63.252 38.2181C63.252 38.3141 63.252 38.4101 63.252 38.4901C63.252 41.4181 63.252 44.3621 63.252 47.2901C63.252 48.2821 63.108 48.4261 62.116 48.4261C59.556 48.4261 56.996 48.4101 54.436 48.4421C52.676 48.4581 51.412 49.7381 51.412 51.4341C51.412 53.1301 52.676 54.4101 54.436 54.4101C57.236 54.4261 60.02 54.4421 62.82 54.4101C67.012 54.3621 70.292 51.0981 70.34 46.9061C70.372 43.7861 70.436 40.6661 70.324 37.5461C70.18 33.1141 68.004 29.9301 64.036 27.9941C61.524 26.7621 58.836 26.8741 56.164 27.1301C53.604 27.3541 51.444 28.5061 49.684 30.3461C49.204 30.8741 48.788 31.4501 48.356 32.0101ZM57.444 47.0181C57.444 42.5061 57.444 38.0741 57.444 33.6421C54.356 33.6421 51.316 33.6421 48.212 33.6421C48.212 33.9301 48.212 34.1861 48.212 34.4421C48.212 36.8421 48.212 39.2421 48.212 41.6421C48.212 42.5861 48.02 42.7781 47.06 42.7941C45.332 42.7941 43.62 42.8101 41.892 42.7941C41.06 42.7941 40.852 42.5701 40.852 41.7541C40.852 39.3061 40.852 36.8581 40.852 34.4101C40.852 34.1541 40.852 33.9141 40.852 33.6581C37.62 33.6581 34.484 33.6581 31.252 33.6581C33.396 36.1861 34.164 39.0501 34.052 42.2181C33.988 43.9781 34.036 45.7541 34.036 47.5301C34.036 47.7701 34.036 48.0101 34.036 48.2981C34.404 48.2981 34.66 48.2981 34.916 48.2981C37.156 48.2981 39.38 48.2821 41.62 48.2981C44.036 48.3301 45.876 49.9461 46.1 52.3141C46.164 52.9861 46.02 53.6901 45.972 54.3621C47.62 54.3621 49.284 54.3621 51.012 54.3621C50.932 54.2341 50.9 54.1701 50.868 54.1221C49.812 52.6181 49.636 51.0021 50.5 49.3701C51.364 47.7061 52.82 46.9701 54.692 47.0021C55.588 47.0341 56.484 47.0181 57.444 47.0181ZM29.156 21.5141C29.124 16.9541 25.46 13.3061 20.916 13.3221C16.372 13.3381 12.74 17.0341 12.756 21.5941C12.772 26.1221 16.484 29.8021 21.028 29.7541C25.54 29.7061 29.188 26.0261 29.156 21.5141ZM51.22 16.5381C50.644 19.1301 52.308 22.5861 54.9 24.2501C57.908 26.1701 61.668 26.0261 64.5 23.8501C66.788 22.0901 68.244 18.6341 67.588 16.5381C62.132 16.5381 56.676 16.5381 51.22 16.5381ZM51.508 14.9861C56.82 14.9861 62.1 14.9861 67.38 14.9861C66.548 11.4501 63.012 8.89012 59.156 8.98611C55.588 9.06611 52.116 11.7861 51.508 14.9861ZM46.692 41.2741C46.692 38.6821 46.692 36.1541 46.692 33.6261C45.204 33.6261 43.764 33.6261 42.308 33.6261C42.308 36.1861 42.308 38.7141 42.308 41.2741C43.78 41.2741 45.22 41.2741 46.692 41.2741Z" fill="#0054A0"/>
<path d="M16.82 30.3141C11.828 27.6581 10.564 22.6821 11.716 18.7941C12.884 14.7781 16.58 11.9781 20.74 11.8981C25.028 11.8181 28.804 14.4901 30.116 18.4901C31.38 22.3301 30.228 27.2741 25.556 30.0581C26.164 30.2981 26.756 30.4901 27.316 30.7301C27.748 30.9221 28.196 31.0981 28.548 31.3861C29.38 32.0901 30.308 32.1861 31.332 32.1701C36.196 32.1381 41.06 32.1541 45.94 32.1701C46.436 32.1701 46.724 32.0261 46.98 31.5781C48.644 28.7621 51.076 26.9221 54.212 26.0261C54.372 25.9781 54.516 25.9301 54.74 25.8501C51.268 23.7061 49.604 20.6341 49.668 16.5221C49.428 16.5061 49.172 16.4901 48.932 16.4901C47.54 16.4901 46.132 16.4901 44.74 16.4901C44.228 16.4901 43.78 16.3461 43.796 15.7221C43.812 15.1461 44.244 15.0181 44.724 15.0181C46.26 15.0181 47.796 15.0021 49.332 15.0181C49.78 15.0181 49.972 14.9061 50.1 14.4421C51.348 10.2661 55.124 7.48212 59.508 7.49812C63.764 7.49812 67.54 10.3461 68.772 14.4741C70.084 18.8581 68.132 23.5781 64.084 25.8181C63.908 25.9141 63.732 26.0101 63.604 26.0901C64.74 26.7621 65.956 27.3221 66.98 28.1061C70.164 30.5701 71.748 33.8661 71.78 37.8981C71.796 40.8741 71.796 43.8661 71.78 46.8421C71.78 49.2261 70.916 51.2901 69.316 53.0661C69.092 53.3061 68.948 53.7061 68.948 54.0421C68.932 59.9621 68.932 65.8821 68.932 71.8021C68.932 72.0101 69.012 72.2821 68.9 72.4261C68.724 72.6821 68.436 73.0181 68.196 73.0341C67.972 73.0341 67.684 72.6821 67.524 72.4261C67.412 72.2501 67.492 71.9781 67.492 71.7381C67.492 66.3141 67.492 60.8741 67.492 55.4501C67.492 55.2101 67.492 54.9541 67.492 54.6341C67.3 54.6981 67.188 54.7301 67.092 54.7781C65.604 55.5941 64.004 55.8981 62.324 55.8821C58.708 55.8661 55.108 55.8821 51.492 55.8821C51.22 55.8821 50.948 55.8821 50.628 55.8821C50.628 56.2501 50.628 56.5381 50.628 56.8101C50.628 61.8181 50.628 66.8261 50.628 71.8341C50.628 72.0421 50.708 72.2981 50.596 72.4581C50.42 72.7141 50.148 73.0821 49.924 73.0821C49.684 73.0821 49.412 72.7301 49.236 72.4741C49.14 72.3301 49.204 72.0741 49.204 71.8501C49.204 66.8421 49.204 61.8341 49.204 56.8261C49.204 56.5541 49.204 56.2661 49.204 55.8821C47.78 55.8821 46.388 55.8821 44.996 55.8981C44.852 55.8981 44.708 56.0261 44.58 56.1381C43.668 56.9061 42.612 57.2261 41.412 57.2261C37.508 57.2101 33.604 57.2261 29.62 57.2261C29.62 57.4661 29.62 57.7381 29.62 58.0101C29.62 62.6181 29.62 67.2421 29.62 71.8501C29.62 72.0581 29.684 72.3301 29.588 72.4741C29.412 72.7301 29.124 73.0821 28.884 73.0821C28.644 73.0821 28.356 72.7301 28.196 72.4581C28.084 72.2821 28.164 72.0101 28.164 71.7701C28.164 66.9701 28.164 62.1701 28.18 57.3701C28.18 56.8581 28.052 56.5381 27.604 56.2341C25.972 55.1621 25.124 53.5941 25.092 51.6581C25.044 48.2981 25.076 44.9541 25.076 41.5941C25.076 41.0981 25.22 40.6661 25.78 40.6501C26.388 40.6341 26.532 41.0821 26.532 41.6101C26.532 44.8101 26.532 47.9941 26.532 51.1941C26.532 54.0901 28.228 55.7861 31.14 55.7861C34.58 55.7861 38.036 55.8021 41.476 55.7861C43.556 55.7701 44.916 54.2181 44.612 52.2341C44.388 50.7941 43.188 49.7861 41.588 49.7701C39.076 49.7541 36.564 49.7701 34.036 49.7701C32.628 49.7701 32.564 49.7061 32.564 48.3301C32.564 45.9941 32.564 43.6741 32.564 41.3381C32.548 35.5461 28.228 31.1941 22.452 31.2261C20.884 31.2421 19.252 31.2261 17.748 31.5941C13.428 32.6821 10.5 36.6021 10.484 41.0661C10.468 51.2901 10.484 61.5301 10.484 71.7541C10.484 72.3301 10.612 73.0021 9.78001 73.1141C9.26801 73.1781 9.04401 72.7621 9.04401 71.7861C9.04401 61.7221 9.04401 51.6581 9.04401 41.5941C9.04401 36.2821 11.62 32.4581 16.532 30.4261C16.644 30.4101 16.708 30.3781 16.82 30.3141ZM48.356 32.0101C48.404 32.0581 48.452 32.1221 48.484 32.1701C51.556 32.1701 54.628 32.1701 57.7 32.1701C58.836 32.1701 58.948 32.2821 58.948 33.4021C58.948 37.6421 58.948 41.8821 58.948 46.1221C58.948 46.3941 58.948 46.6661 58.948 46.9701C59.94 46.9701 60.852 46.9701 61.828 46.9701C61.828 45.2581 61.828 43.5941 61.828 41.9141C61.828 40.6821 61.828 39.4501 61.828 38.2181C61.828 37.7541 62.052 37.4341 62.516 37.4181C63.028 37.4021 63.268 37.7221 63.252 38.2181C63.252 38.3141 63.252 38.4101 63.252 38.4901C63.252 41.4181 63.252 44.3621 63.252 47.2901C63.252 48.2821 63.108 48.4261 62.116 48.4261C59.556 48.4261 56.996 48.4101 54.436 48.4421C52.676 48.4581 51.412 49.7381 51.412 51.4341C51.412 53.1301 52.676 54.4101 54.436 54.4101C57.236 54.4261 60.02 54.4421 62.82 54.4101C67.012 54.3621 70.292 51.0981 70.34 46.9061C70.372 43.7861 70.436 40.6661 70.324 37.5461C70.18 33.1141 68.004 29.9301 64.036 27.9941C61.524 26.7621 58.836 26.8741 56.164 27.1301C53.604 27.3541 51.444 28.5061 49.684 30.3461C49.204 30.8741 48.788 31.4501 48.356 32.0101ZM57.444 47.0181C57.444 42.5061 57.444 38.0741 57.444 33.6421C54.356 33.6421 51.316 33.6421 48.212 33.6421C48.212 33.9301 48.212 34.1861 48.212 34.4421C48.212 36.8421 48.212 39.2421 48.212 41.6421C48.212 42.5861 48.02 42.7781 47.06 42.7941C45.332 42.7941 43.62 42.8101 41.892 42.7941C41.06 42.7941 40.852 42.5701 40.852 41.7541C40.852 39.3061 40.852 36.8581 40.852 34.4101C40.852 34.1541 40.852 33.9141 40.852 33.6581C37.62 33.6581 34.484 33.6581 31.252 33.6581C33.396 36.1861 34.164 39.0501 34.052 42.2181C33.988 43.9781 34.036 45.7541 34.036 47.5301C34.036 47.7701 34.036 48.0101 34.036 48.2981C34.404 48.2981 34.66 48.2981 34.916 48.2981C37.156 48.2981 39.38 48.2821 41.62 48.2981C44.036 48.3301 45.876 49.9461 46.1 52.3141C46.164 52.9861 46.02 53.6901 45.972 54.3621C47.62 54.3621 49.284 54.3621 51.012 54.3621C50.932 54.2341 50.9 54.1701 50.868 54.1221C49.812 52.6181 49.636 51.0021 50.5 49.3701C51.364 47.7061 52.82 46.9701 54.692 47.0021C55.588 47.0341 56.484 47.0181 57.444 47.0181ZM29.156 21.5141C29.124 16.9541 25.46 13.3061 20.916 13.3221C16.372 13.3381 12.74 17.0341 12.756 21.5941C12.772 26.1221 16.484 29.8021 21.028 29.7541C25.54 29.7061 29.188 26.0261 29.156 21.5141ZM51.22 16.5381C50.644 19.1301 52.308 22.5861 54.9 24.2501C57.908 26.1701 61.668 26.0261 64.5 23.8501C66.788 22.0901 68.244 18.6341 67.588 16.5381C62.132 16.5381 56.676 16.5381 51.22 16.5381ZM51.508 14.9861C56.82 14.9861 62.1 14.9861 67.38 14.9861C66.548 11.4501 63.012 8.89012 59.156 8.98611C55.588 9.06611 52.116 11.7861 51.508 14.9861ZM46.692 41.2741C46.692 38.6821 46.692 36.1541 46.692 33.6261C45.204 33.6261 43.764 33.6261 42.308 33.6261C42.308 36.1861 42.308 38.7141 42.308 41.2741C43.78 41.2741 45.22 41.2741 46.692 41.2741Z" stroke="#0054A0" stroke-width="1.2" mask="url(#path-1-outside-1_145_29)"/>
<path d="M59.0679 73.4142L59.0679 73.414C58.678 73.4035 58.3979 73.2352 58.2347 72.9551C58.0876 72.7024 58.056 72.392 58.056 72.1222C58.056 71.2395 58.055 70.3555 58.054 69.4708C58.051 66.8138 58.048 64.1505 58.072 61.4967C58.072 61.4963 58.072 61.4959 58.072 61.4955L58.372 61.4982C58.372 61.1782 58.564 60.7462 58.804 60.5862L59.0679 73.4142ZM59.0679 73.4142H59.076C59.462 73.4142 59.7496 73.2595 59.9212 72.9819C60.076 72.7313 60.112 72.4181 60.112 72.1382V72.1277V72.1173V72.1069V72.0965V72.0861V72.0757V72.0653V72.0549V72.0445V72.0341V72.0237V72.0133V72.0029V71.9925V71.9821V71.9717V71.9613V71.9509V71.9405V71.9301V71.9197V71.9093V71.8989V71.8885V71.8781V71.8677V71.8573V71.8469V71.8365V71.8261V71.8157V71.8053V71.7949V71.7845V71.7742V71.7638V71.7534V71.743V71.7326V71.7222V71.7118V71.7014V71.691V71.6806V71.6702V71.6598V71.6494V71.6391V71.6287V71.6183V71.6079V71.5975V71.5871V71.5767V71.5663V71.5559V71.5456V71.5352V71.5248V71.5144V71.504V71.4936V71.4832V71.4728V71.4625V71.4521V71.4417V71.4313V71.4209V71.4105V71.4002V71.3898V71.3794V71.369V71.3586V71.3482V71.3379V71.3275V71.3171V71.3067V71.2963V71.2859V71.2756V71.2652V71.2548V71.2444V71.234V71.2237V71.2133V71.2029V71.1925V71.1821V71.1718V71.1614V71.151V71.1406V71.1303V71.1199V71.1095V71.0991V71.0887V71.0784V71.068V71.0576V71.0472V71.0369V71.0265V71.0161V71.0057V70.9954V70.985V70.9746V70.9642V70.9539V70.9435V70.9331V70.9228V70.9124V70.902V70.8916V70.8813V70.8709V70.8605V70.8501V70.8398V70.8294V70.819V70.8087V70.7983V70.7879V70.7775V70.7672V70.7568V70.7464V70.7361V70.7257V70.7153V70.705V70.6946V70.6842V70.6739V70.6635V70.6531V70.6427V70.6324V70.622V70.6116V70.6013V70.5909V70.5805V70.5702V70.5598V70.5494V70.5391V70.5287V70.5183V70.508V70.4976V70.4872V70.4769V70.4665V70.4561V70.4458V70.4354V70.425V70.4147V70.4043V70.3939V70.3836V70.3732V70.3629V70.3525V70.3421V70.3318V70.3214V70.311V70.3007V70.2903V70.2799V70.2696V70.2592V70.2489V70.2385V70.2281V70.2178V70.2074V70.197V70.1867V70.1763V70.1659V70.1556V70.1452V70.1349V70.1245V70.1141V70.1038V70.0934V70.0831V70.0727V70.0623V70.052V70.0416V70.0312V70.0209V70.0105V70.0002V69.9898V69.9794V69.9691V69.9587V69.9484V69.938V69.9276V69.9173V69.9069V69.8966V69.8862V69.8758V69.8655V69.8551V69.8448V69.8344V69.824V69.8137V69.8033V69.793V69.7826V69.7722V69.7619V69.7515V69.7412V69.7308V69.7204V69.7101V69.6997V69.6894V69.679V69.6686V69.6583V69.6479V69.6376V69.6272V69.6168V69.6065V69.5961V69.5858V69.5754V69.565V69.5547V69.5443V69.534V69.5236V69.5132V69.5029V69.4925V69.4822V69.4718V69.4614V69.4511V69.4407V69.4304V69.42V69.4096V69.3993V69.3889V69.3786V69.3682V69.3579V69.3475V69.3371V69.3268V69.3164V69.3061V69.2957V69.2853V69.275V69.2646V69.2543V69.2439V69.2335V69.2232V69.2128V69.2025V69.1921V69.1817V69.1714V69.161V69.1507V69.1403V69.1299V69.1196V69.1092V69.0989V69.0885V69.0781V69.0678V69.0574V69.0471V69.0367V69.0263V69.016V69.0056V68.9952V68.9849V68.9745V68.9642V68.9538V68.9434V68.9331V68.9227V68.9124V68.902V68.8916V68.8813V68.8709V68.8606V68.8502V68.8398V68.8295V68.8191V68.8087V68.7984V68.788V68.7777V68.7673V68.7569V68.7466V68.7362V68.7258V68.7155V68.7051V68.6947V68.6844V68.674V68.6637V68.6533V68.6429V68.6326V68.6222V68.6118V68.6015V68.5911V68.5807V68.5704V68.56V68.5496V68.5393V68.5289V68.5186V68.5082V68.4978V68.4875V68.4771V68.4667V68.4564V68.446V68.4356V68.4253V68.4149V68.4045V68.3942V68.3838V68.3734V68.3631V68.3527V68.3423V68.332V68.3216V68.3112V68.3008V68.2905V68.2801V68.2697V68.2594V68.249V68.2386V68.2283V68.2179V68.2075V68.1972V68.1868V68.1764V68.166V68.1557V68.1453V68.1349V68.1246V68.1142V68.1038V68.0934V68.0831V68.0727V68.0623V68.0519V68.0416V68.0312V68.0208V68.0105V68.0001V67.9897V67.9793V67.969V67.9586V67.9482V67.9378V67.9275V67.9171V67.9067V67.8963V67.886V67.8756V67.8652V67.8548V67.8444V67.8341V67.8237V67.8133V67.8029V67.7926V67.7822V67.7718V67.7614V67.751V67.7407V67.7303V67.7199V67.7095V67.6991V67.6888V67.6784V67.668V67.6576V67.6472V67.6369V67.6265V67.6161V67.6057V67.5953V67.5849V67.5746V67.5642V67.5538V67.5434V67.533V67.5226V67.5123V67.5019V67.4915V67.4811V67.4707V67.4603V67.4499V67.4395V67.4292V67.4188V67.4084V67.398V67.3876V67.3772V67.3668V67.3564V67.3461V67.3357V67.3253V67.3149V67.3045V67.2941V67.2837V67.2733V67.2629V67.2525V67.2421V67.2317V67.2214V67.211V67.2006V67.1902V67.1798V67.1694V67.159V67.1486V67.1382V67.1278V67.1174V67.107V67.0966V67.0862V67.0758V67.0654V67.055V67.0446V67.0342V67.0238V67.0134V67.003V66.9926V66.9822V66.9718V66.9614V66.951V66.9406V66.9302V66.9198V66.9094V66.899V66.8886V66.8782V66.8678V66.8574V66.847V66.8366V66.8262V66.8208C60.112 66.572 60.112 66.3113 60.096 66.0643C60.096 65.5466 60.0978 65.0295 60.0995 64.5124C60.1031 63.4711 60.1066 62.4298 60.0959 61.3831L60.096 61.3831L60.0959 61.3795C60.0865 60.9564 59.9306 60.5785 59.6566 60.3569C59.5175 60.2444 59.3474 60.1732 59.1604 60.1683C58.9746 60.1634 58.7938 60.2245 58.6326 60.3399L59.0679 73.4142Z" fill="#0054A0" stroke="#0054A0" stroke-width="0.6"/>
<path d="M19.4839 73.4139L19.4841 73.4139C19.8708 73.4035 20.1504 73.2413 20.311 72.9579C20.4537 72.7061 20.48 72.3944 20.48 72.122V72.1116V72.1012V72.0908V72.0804V72.07V72.0596V72.0492V72.0388V72.0284V72.018V72.0076V71.9972V71.9868V71.9764V71.966V71.9556V71.9452V71.9348V71.9244V71.914V71.9036V71.8932V71.8828V71.8724V71.862V71.8516V71.8412V71.8308V71.8204V71.81V71.7996V71.7892V71.7788V71.7684V71.758V71.7476V71.7372V71.7269V71.7165V71.7061V71.6957V71.6853V71.6749V71.6645V71.6541V71.6437V71.6333V71.6229V71.6125V71.6022V71.5918V71.5814V71.571V71.5606V71.5502V71.5398V71.5294V71.519V71.5087V71.4983V71.4879V71.4775V71.4671V71.4567V71.4463V71.436V71.4256V71.4152V71.4048V71.3944V71.384V71.3737V71.3633V71.3529V71.3425V71.3321V71.3217V71.3114V71.301V71.2906V71.2802V71.2698V71.2594V71.2491V71.2387V71.2283V71.2179V71.2075V71.1972V71.1868V71.1764V71.166V71.1557V71.1453V71.1349V71.1245V71.1141V71.1038V71.0934V71.083V71.0726V71.0623V71.0519V71.0415V71.0311V71.0208V71.0104V71V70.9896V70.9793V70.9689V70.9585V70.9481V70.9378V70.9274V70.917V70.9066V70.8963V70.8859V70.8755V70.8651V70.8548V70.8444V70.834V70.8237V70.8133V70.8029V70.7925V70.7822V70.7718V70.7614V70.7511V70.7407V70.7303V70.7199V70.7096V70.6992V70.6888V70.6785V70.6681V70.6577V70.6474V70.637V70.6266V70.6163V70.6059V70.5955V70.5852V70.5748V70.5644V70.5541V70.5437V70.5333V70.523V70.5126V70.5022V70.4919V70.4815V70.4711V70.4608V70.4504V70.44V70.4297V70.4193V70.4089V70.3986V70.3882V70.3778V70.3675V70.3571V70.3467V70.3364V70.326V70.3156V70.3053V70.2949V70.2845V70.2742V70.2638V70.2535V70.2431V70.2327V70.2224V70.212V70.2016V70.1913V70.1809V70.1706V70.1602V70.1498V70.1395V70.1291V70.1187V70.1084V70.098V70.0877V70.0773V70.0669V70.0566V70.0462V70.0358V70.0255V70.0151V70.0048V69.9944V69.984V69.9737V69.9633V69.953V69.9426V69.9322V69.9219V69.9115V69.9012V69.8908V69.8804V69.8701V69.8597V69.8493V69.839V69.8286V69.8183V69.8079V69.7975V69.7872V69.7768V69.7665V69.7561V69.7457V69.7354V69.725V69.7147V69.7043V69.6939V69.6836V69.6732V69.6629V69.6525V69.6421V69.6318V69.6214V69.6111V69.6007V69.5904V69.58V69.5696V69.5593V69.5489V69.5386V69.5282V69.5178V69.5075V69.4971V69.4868V69.4764V69.466V69.4557V69.4453V69.435V69.4246V69.4142V69.4039V69.3935V69.3832V69.3728V69.3624V69.3521V69.3417V69.3314V69.321V69.3106V69.3003V69.2899V69.2796V69.2692V69.2589V69.2485V69.2381V69.2278V69.2174V69.2071V69.1967V69.1863V69.176V69.1656V69.1553V69.1449V69.1345V69.1242V69.1138V69.1035V69.0931V69.0827V69.0724V69.062V69.0516V69.0413V69.0309V69.0206V69.0102V68.9998V68.9895V68.9791V68.9688V68.9584V68.948V68.9377V68.9273V68.917V68.9066V68.8962V68.8859V68.8755V68.8651V68.8548V68.8444V68.8341V68.8237V68.8133V68.803V68.7926V68.7823V68.7719V68.7615V68.7512V68.7408V68.7304V68.7201V68.7097V68.6993V68.689V68.6786V68.6683V68.6579V68.6475V68.6372V68.6268V68.6164V68.6061V68.5957V68.5853V68.575V68.5646V68.5543V68.5439V68.5335V68.5232V68.5128V68.5024V68.4921V68.4817V68.4713V68.461V68.4506V68.4402V68.4299V68.4195V68.4091V68.3988V68.3884V68.378V68.3677V68.3573V68.3469V68.3366V68.3262V68.3158V68.3055V68.2951V68.2847V68.2743V68.264V68.2536V68.2432V68.2329V68.2225V68.2121V68.2018V68.1914V68.181V68.1707V68.1603V68.1499V68.1395V68.1292V68.1188V68.1084V68.0981V68.0877V68.0773V68.0669V68.0566V68.0462V68.0358V68.0254V68.0151V68.0047V67.9943V67.9839V67.9736V67.9632V67.9528V67.9425V67.9321V67.9217V67.9113V67.901V67.8906V67.8802V67.8698V67.8594V67.8491V67.8387V67.8283V67.8179V67.8076V67.7972V67.7868V67.7764V67.766V67.7557V67.7453V67.7349V67.7245V67.7142V67.7038V67.6934V67.683V67.6726V67.6622V67.6519V67.6415V67.6311V67.6207V67.6103V67.6V67.5896V67.5792V67.5688V67.5584V67.548V67.5377V67.5273V67.5169V67.5065V67.4961V67.4857V67.4753V67.465V67.4546V67.4442V67.4338V67.4234V67.413V67.4026V67.3923V67.3819V67.3715V67.3611V67.3507V67.3403V67.3299V67.3195V67.3091V67.2988V67.2884V67.278V67.2676V67.2572V67.2468V67.2364V67.226V67.2156V67.2052V67.1948V67.1844V67.174V67.1636V67.1533V67.1429V67.1325V67.1221V67.1117V67.1013V67.0909V67.0805V67.0701V67.0597V67.0493V67.0389V67.0285V67.0181V67.0077V66.9973V66.9869V66.9765V66.9661V66.9557V66.9453V66.9349V66.9245V66.9141V66.9037V66.8933V66.8829V66.8725V66.8621V66.8517V66.8413V66.8308V66.8204V66.81V66.7996V66.7892V66.7788V66.7684V66.758V66.7476V66.7372V66.7268V66.7164V66.706V66.6956V66.6852V66.6748V66.6643V66.6539V66.6435V66.6331V66.6227V66.6123V66.6019V66.5915V66.5811V66.5707V66.5603V66.5499V66.5395V66.5291V66.5187V66.5083V66.4979V66.4874V66.477V66.4666V66.4562V66.4458V66.4354V66.425V66.4146V66.4042V66.3938V66.3834V66.373V66.3626V66.3522V66.3418V66.3314V66.321V66.3106V66.3002V66.2898V66.2793V66.2689V66.2585V66.2481V66.2377V66.2273V66.2169V66.2065V66.1961V66.1857V66.1753V66.1649V66.1545V66.1441V66.1337V66.1233V66.1129V66.1025V66.0921V66.0817V66.0713V66.0609V66.0505V66.0401V66.0297V66.0193V66.0089V65.9985V65.9881V65.9777V65.9673V65.9569V65.9465V65.9361V65.9257V65.9152V65.9048V65.8944V65.884V65.8736V65.8632V65.8528V65.8424V65.832V65.8216V65.8112V65.8008V65.7904V65.78V65.7696V65.7592V65.7488V65.7385V65.7281V65.7177V65.7073V65.6969V65.6865V65.6761V65.6657V65.6553V65.6449V65.6345V65.6241V65.6137V65.6033V65.5929V65.5825V65.5721V65.5617V65.5513V65.5409V65.5305V65.5201V65.5097V65.4993V65.4889V65.4785V65.4681V65.4577V65.4474V65.437V65.4266V65.4162V65.4058V65.3954V65.385V65.3746V65.3642V65.3538V65.3434V65.333V65.3226V65.3122V65.3019V65.2915V65.2811V65.2707V65.2603V65.2499V65.2395V65.2291V65.2187V65.2083V65.198V65.1876V65.1772V65.1668V65.1564V65.146V65.1356V65.1252V65.1148V65.1045V65.0941V65.0837V65.0733V65.0629V65.0525V65.0421V65.0318V65.0214V65.011V65.0006V64.9902V64.9798V64.9694V64.9591V64.9487V64.9383V64.9279V64.9175V64.9072V64.8968V64.8864V64.876V64.8656V64.8552V64.8449V64.8345V64.8241V64.8137V64.8033V64.793V64.7826V64.7722V64.7618V64.7514V64.7411V64.7307V64.7203V64.7099V64.6996V64.6892V64.6788V64.6684V64.6581V64.6477V64.6373V64.6269V64.6166V64.6062V64.5958V64.5854V64.5751V64.5647V64.5543V64.5439V64.5336V64.5232V64.5128V64.5025V64.4921V64.4817V64.4713V64.461V64.4506V64.4402V64.4299V64.4195V64.4091V64.3988V64.3884V64.378V64.3677V64.3573V64.3469V64.3366V64.3262V64.3158V64.3055V64.2951V64.2847V64.2744V64.264V64.2536V64.2433V64.2329V64.2226V64.2122V64.2018V64.1915V64.1811V64.1708V64.1604V64.15V64.1397V64.1293V64.119V64.1086V64.0982V64.0879V64.0775V64.0672V64.0568V64.0465V64.0361V64.0257V64.0154V64.005V63.9947V63.9843V63.974V63.9636V63.9533V63.9429V63.9326V63.9222V63.9119V63.9015V63.8912V63.8808V63.8705V63.8601V63.8498V63.8394V63.8291V63.8187V63.8084V63.798V63.7877V63.7773V63.767V63.7567V63.7463V63.736V63.7256V63.7153V63.7049V63.6946V63.6843V63.6739V63.6636V63.6532V63.6429V63.6326V63.6222V63.6119V63.6015V63.5912V63.5809V63.5705V63.5602V63.5499V63.5395V63.5292V63.5188V63.5085V63.4982V63.4878V63.4775V63.4672V63.4568V63.4465V63.4362V63.4259V63.4155V63.4052V63.3949V63.3845V63.3742V63.3639V63.3536V63.3432V63.3329V63.3226V63.3123V63.3019V63.2916V63.2813V63.271V63.2606V63.2503V63.24V63.2297V63.2193V63.209V63.1987V63.1884V63.1781V63.1677V63.1574V63.1471V63.1368V63.1265V63.1162V63.1058V63.0955V63.0852V63.0749V63.0646V63.0543V63.044V63.0337V63.0233V63.013V63.0027V62.9924V62.9821V62.9718V62.9615V62.9512V62.9409V62.9306V62.9203V62.91V62.8997V62.8893V62.879V62.8687V62.8584V62.8481V62.8378V62.8275V62.8172V62.8069V62.7966V62.7863V62.776V62.7657V62.7554V62.7451V62.7348V62.7246V62.7143V62.704V62.6937V62.6834V62.6731V62.6628V62.6525V62.6422V62.6319V62.6216V62.6113V62.601V62.5908V62.5805V62.5702V62.5599V62.5496V62.5393V62.529V62.5188V62.5085V62.4982V62.4879V62.4776V62.4674V62.4571V62.4468V62.4365V62.4262V62.416V62.4057V62.3954V62.3851V62.3748V62.3646V62.3543V62.344V62.3338V62.3235V62.3132V62.3029V62.2927V62.2824V62.2721V62.2619V62.2516V62.2413V62.2311V62.2208V62.2105V62.2003V62.19V62.1797V62.1695V62.1592V62.1489V62.1387V62.1284V62.1182V62.1079V62.0976V62.0874V62.0771V62.0669V62.0566V62.0464V62.0361V62.0259V62.0156V62.0053V61.9951V61.9848V61.9746V61.9643V61.9541V61.9438V61.9336V61.9234V61.9131V61.9029V61.8926V61.8824V61.8721V61.8619V61.8516V61.8414V61.8312V61.8209V61.8107V61.8004V61.7902V61.78V61.7697V61.7595V61.7493V61.739V61.7288V61.7185V61.7083V61.6981V61.6879V61.6776V61.6674V61.6572V61.6469V61.6367V61.6265V61.6163V61.606V61.5958V61.5856V61.5754V61.5651V61.5549V61.5447V61.5345V61.5242V61.514C20.48 61.2412 20.4536 60.9273 20.3124 60.6726C20.2383 60.539 20.1322 60.4206 19.9855 60.3361C19.8401 60.2524 19.6712 60.2112 19.4841 60.2061L19.4839 60.2061C19.0917 60.1958 18.7976 60.3428 18.6243 60.6251C18.4706 60.8756 18.44 61.191 18.44 61.466V61.4869V61.5078V61.5287V61.5497V61.5706V61.5915V61.6124V61.6333V61.6542V61.6751V61.696V61.7169V61.7378V61.7587V61.7796V61.8005V61.8214V61.8423V61.8632V61.8841V61.905V61.9259V61.9468V61.9677V61.9886V62.0095V62.0304V62.0513V62.0722V62.0931V62.114V62.1349V62.1557V62.1766V62.1975V62.2184V62.2393V62.2602V62.2811V62.302V62.3229V62.3438V62.3647V62.3856V62.4065V62.4274V62.4482V62.4691V62.49V62.5109V62.5318V62.5527V62.5736V62.5945V62.6154V62.6363V62.6571V62.678V62.6989V62.7198V62.7407V62.7616V62.7825V62.8033V62.8242V62.8451V62.866V62.8869V62.9078V62.9287V62.9495V62.9704V62.9913V63.0122V63.0331V63.054V63.0748V63.0957V63.1166V63.1375V63.1584V63.1792V63.2001V63.221V63.2419V63.2628V63.2836V63.3045V63.3254V63.3463V63.3672V63.388V63.4089V63.4298V63.4507V63.4716V63.4924V63.5133V63.5342V63.5551V63.5759V63.5968V63.6177V63.6386V63.6594V63.6803V63.7012V63.7221V63.7429V63.7638V63.7847V63.8056V63.8264V63.8473V63.8682V63.8891V63.9099V63.9308V63.9517V63.9726V63.9934V64.0143V64.0352V64.056V64.0769V64.0978V64.1187V64.1395V64.1604V64.1813V64.2021V64.223V64.2439V64.2648V64.2856V64.3065V64.3274V64.3482V64.3691V64.39V64.4108V64.4317V64.4526V64.4734V64.4943V64.5152V64.5361V64.5569V64.5778V64.5987V64.6195V64.6404V64.6613V64.6821V64.703V64.7239V64.7447V64.7656V64.7865V64.8073V64.8282V64.8491V64.8699V64.8908V64.9117V64.9325V64.9534V64.9742V64.9951V65.016V65.0368V65.0577V65.0786V65.0994V65.1203V65.1412V65.162V65.1829V65.2038V65.2246V65.2455V65.2663V65.2872V65.3081V65.3289V65.3498V65.3707V65.3915V65.4124V65.4332V65.4541V65.475V65.4958V65.5167V65.5376V65.5584V65.5793V65.6001V65.621V65.6419V65.6627V65.6836V65.7045V65.7253V65.7462V65.767V65.7879V65.8088V65.8296V65.8505V65.8713V65.8922V65.9131V65.9339V65.9548V65.9756V65.9965V66.0174V66.0382V66.0591V66.0799V66.1008V66.1217V66.1425V66.1634V66.1842V66.2051V66.226V66.2468V66.2677V66.2885V66.3094V66.3303V66.3511V66.372V66.3928V66.4137V66.4346V66.4554V66.4763V66.4971V66.518V66.5389V66.5597V66.5806V66.6014V66.6223V66.6432V66.664V66.6849V66.7057V66.7266V66.7475V66.7683V66.7892V66.81V66.8309V66.8518V66.8726V66.8935V66.9143V66.9352V66.9561V66.9769V66.9978V67.0186V67.0395V67.0603V67.0812V67.1021V67.1229V67.1438V67.1646V67.1855V67.2064V67.2272V67.2481V67.2689V67.2898V67.3107V67.3315V67.3524V67.3732V67.3941V67.415V67.4358V67.4567V67.4775V67.4984V67.5193V67.5401V67.561V67.5818V67.6027V67.6236V67.6444V67.6653V67.6861V67.707V67.7279V67.7487V67.7696V67.7905V67.8113V67.8322V67.853V67.8739V67.8948V67.9156V67.9365V67.9573V67.9782V67.9991V68.0199V68.0408V68.0617V68.0825V68.1034V68.1242V68.1451V68.166V68.1868V68.2077V68.2285V68.2494V68.2703V68.2911V68.312V68.3329V68.3537V68.3746V68.3955V68.4163V68.4372V68.458V68.4789V68.4998V68.5206V68.5415V68.5624V68.5832V68.6041V68.625V68.6458V68.6667V68.6876V68.7084V68.7293V68.7502V68.771V68.7919V68.8127V68.8336V68.8545V68.8753V68.8962V68.9171V68.9379V68.9588V68.9797V69.0005V69.0214V69.0423V69.0632V69.084V69.1049V69.1258V69.1466V69.1675V69.1884V69.2092V69.2301V69.251V69.2718V69.2927V69.3136V69.3344V69.3553V69.3762V69.3971V69.4179V69.4388V69.4597V69.4805V69.5014V69.5223V69.5432V69.564V69.5849V69.6058V69.6266V69.6475V69.6684V69.6893V69.7101V69.731V69.7519V69.7728V69.7936V69.8145V69.8354V69.8562V69.8771V69.898V69.9189V69.9397V69.9606V69.9815V70.0024V70.0233V70.0441V70.065V70.0859V70.1068V70.1276V70.1485V70.1694V70.1903V70.2111V70.232V70.2529V70.2738V70.2947V70.3155V70.3364V70.3573V70.3782V70.3991V70.4199V70.4408V70.4617V70.4826V70.5035V70.5244V70.5452V70.5661V70.587V70.6079V70.6288V70.6496V70.6705V70.6914V70.7123V70.7332V70.7541V70.775V70.7958V70.8167V70.8376V70.8585V70.8794V70.9003V70.9212V70.942V70.9629V70.9838V71.0047V71.0256V71.0465V71.0674V71.0883V71.1092V71.13V71.1509V71.1718V71.1927V71.2136V71.2345V71.2554V71.2763V71.2972V71.3181V71.339V71.3599V71.3807V71.4016V71.4225V71.4434V71.4643V71.4852V71.5061V71.527V71.5479V71.5688V71.5897V71.6106V71.6315V71.6524V71.6733V71.6942V71.7151V71.736V71.7569V71.7778V71.7987V71.8196V71.8405V71.8614V71.8823V71.9032V71.9241V71.945V71.9659V71.9868V72.0077V72.0286V72.0495V72.0704V72.0913V72.1122V72.1331V72.154C18.44 72.4291 18.4706 72.7445 18.6243 72.9949C18.7976 73.2773 19.0917 73.4243 19.4839 73.4139ZM18.74 61.466C18.74 60.938 18.868 60.49 19.476 60.506V73.114C18.868 73.13 18.74 72.682 18.74 72.154V61.466Z" fill="#0054A0" stroke="#0054A0" stroke-width="0.6"/>
</svg>
