<svg width="81" height="81" viewBox="0 0 81 81" fill="none" xmlns="http://www.w3.org/2000/svg">
<path d="M62.708 41.4662H51.124C50.548 41.4662 50.068 41.0022 50.068 40.4102V34.0902C50.068 33.5142 50.532 33.0342 51.124 33.0342H62.708C63.284 33.0342 63.764 33.4982 63.764 34.0902V40.4102C63.764 40.9862 63.284 41.4662 62.708 41.4662ZM52.18 39.3542H61.652V35.1462H52.18V39.3542Z" fill="#0054A0"/>
<path d="M47.972 45.6742H37.652C37.076 45.6742 36.596 45.2102 36.596 44.6182V29.4662C36.596 28.8902 37.06 28.4102 37.652 28.4102H47.972C48.548 28.4102 49.028 28.8742 49.028 29.4662V44.6182C49.028 45.1942 48.548 45.6742 47.972 45.6742ZM38.708 43.5622H46.916V30.5062H38.708V43.5622Z" fill="#0054A0"/>
<path d="M34.5 45.674H22.916C22.34 45.674 21.86 45.21 21.86 44.618V33.034C21.86 32.458 22.324 31.978 22.916 31.978H34.5C35.076 31.978 35.556 32.442 35.556 33.034V44.618C35.556 45.194 35.076 45.674 34.5 45.674ZM23.972 43.562H33.444V34.09H23.972V43.562Z" fill="#0054A0"/>
<path d="M23.092 25.898C22.932 25.498 22.548 25.242 22.116 25.242H13.38V22.618H16.852C16.916 22.618 16.964 22.57 16.964 22.506V21.658C16.964 21.594 16.916 21.546 16.852 21.546H13.38V14.506C13.38 14.442 13.332 14.394 13.268 14.394H12.42C12.356 14.394 12.308 14.442 12.308 14.506V21.562H8.85201C8.78801 21.562 8.74001 21.61 8.74001 21.674V22.522C8.74001 22.586 8.78801 22.634 8.85201 22.634H12.324V25.258H3.58801C3.01201 25.258 2.53201 25.722 2.53201 26.314V28.842C2.53201 29.418 2.99601 29.898 3.58801 29.898H6.11601V44.6341C6.11601 45.2101 6.58001 45.6901 7.17201 45.6901H19.588C20.164 45.6901 20.644 45.2261 20.644 44.6341V29.274L22.868 27.05C23.172 26.746 23.252 26.298 23.092 25.898ZM18.852 28.09C18.66 28.282 18.548 28.554 18.548 28.842V43.578H8.22801V28.842C8.22801 28.266 7.76401 27.786 7.17201 27.786H4.64401V27.37H19.572L18.852 28.09Z" fill="#0054A0"/>
<path d="M16.964 30.506V34.09C16.964 34.154 16.916 34.202 16.852 34.202H13.284C13.22 34.202 13.172 34.154 13.172 34.09V30.506C13.172 30.442 13.22 30.394 13.284 30.394H16.868C16.916 30.41 16.964 30.458 16.964 30.506Z" fill="#0054A0"/>
<path d="M16.964 36.6179V40.2019C16.964 40.2659 16.916 40.3139 16.852 40.3139H13.284C13.22 40.3139 13.172 40.2659 13.172 40.2019V36.6179C13.172 36.5539 13.22 36.5059 13.284 36.5059H16.868C16.916 36.5059 16.964 36.5539 16.964 36.6179Z" fill="#0054A0"/>
<path d="M65.924 66.0901H10.532C9.988 66.0901 9.492 65.8021 9.236 65.3541C8.98 64.9061 9.012 64.3621 9.3 63.9461C9.572 63.5621 9.716 63.0981 9.716 62.6181C9.716 61.8341 9.316 61.0981 8.66 60.6821C8.404 60.5061 8.116 60.3941 7.828 60.3461C7.716 60.3301 7.62 60.2981 7.524 60.2501C4.42 58.7141 2.5 55.7221 2.5 52.4261V47.3701C2.5 46.7941 2.996 46.3141 3.62 46.3141H49.428L50.932 44.0741C51.14 43.7701 51.492 43.5781 51.876 43.5781H77.396C78.02 43.5781 78.516 44.0421 78.516 44.6341V44.6821C78.516 44.8421 78.484 44.9861 78.404 45.1301L68.628 64.6181C68.612 64.6501 68.596 64.6821 68.564 64.7141C68.02 65.5621 66.996 66.0901 65.924 66.0901ZM11.732 63.9941H65.924C66.212 63.9941 66.468 63.8661 66.628 63.6581L66.772 63.3701L75.636 45.6741H52.484L50.98 47.9141C50.772 48.2181 50.42 48.4101 50.036 48.4101H4.74V52.4101C4.74 54.8741 6.164 57.1301 8.452 58.3141C8.996 58.4421 9.492 58.6501 9.956 58.9541C11.22 59.7701 11.972 61.1461 11.972 62.6341C11.956 63.0821 11.876 63.5461 11.732 63.9941Z" fill="#0054A0"/>
</svg>
