<svg width="81" height="81" viewBox="0 0 81 81" fill="none" xmlns="http://www.w3.org/2000/svg">
<path d="M67.78 66.5219C66.772 65.4979 65.236 65.3539 63.86 65.3539C63.764 65.3539 63.652 65.3539 63.556 65.3539C63.412 65.3539 63.284 65.3539 63.14 65.3539C62.532 65.3539 61.924 65.3379 61.284 65.3219H61.252C60.644 65.3059 60.004 65.2739 59.348 65.2739C58.276 65.2739 57.396 65.3219 56.58 65.4499C56.452 65.4659 56.292 65.4819 56.148 65.4979C55.812 65.5459 55.46 65.5779 55.108 65.6419C53.988 65.7699 52.74 65.9299 51.588 66.1859C52.132 64.5539 50.964 62.2499 49.316 60.9219C45.54 57.8659 40.836 55.1619 34.932 52.6499C32.756 51.7219 30.308 51.6259 27.732 51.5299H27.684H27.636C26.836 51.4979 26.004 51.4659 25.172 51.4019C25.124 51.4019 25.076 51.4019 25.012 51.4019C24.468 51.4019 23.94 51.6099 23.524 51.9779C23.524 51.9779 23.524 51.9779 23.508 51.9779C23.06 52.3939 22.82 52.9539 22.82 53.5619L22.804 56.0259C22.788 57.0659 22.788 58.0739 22.788 59.0339C22.788 61.2259 22.82 62.8099 22.884 64.3299C22.932 65.4659 23.716 66.6339 25.012 67.5459C25.188 67.6739 25.556 67.8979 25.956 68.1379C26.18 68.2819 26.404 68.4099 26.548 68.5059C26.548 68.5059 26.564 68.5059 26.564 68.5219L26.724 68.6179C33.46 72.7459 37.764 73.4979 43.78 73.5139H63.22C67.892 73.5139 68.676 70.8899 68.724 69.3219C68.772 68.1539 68.452 67.2099 67.78 66.5219ZM49.428 65.4179C49.252 65.5939 48.9 65.6899 48.436 65.6899C47.636 65.6899 46.756 65.4179 46.244 65.1939C44.468 64.4099 42.708 63.3539 41.156 62.4259C40.068 61.7699 38.708 60.9699 37.348 60.2659C36.548 59.8499 35.748 59.6419 34.756 59.6099C34.724 59.6099 34.708 59.6099 34.676 59.6099C33.956 59.6099 33.508 60.0899 33.396 60.5699C33.188 61.4179 33.908 62.1699 34.724 62.5219L35.172 62.7619C35.492 63.0179 35.876 63.2259 36.26 63.4339C36.324 63.4819 36.404 63.5139 36.468 63.5619C36.548 63.6099 36.628 63.6579 36.708 63.7059C36.708 63.7059 36.724 63.7059 36.724 63.7219C40.516 65.9459 41.828 66.5699 45.812 68.2979C46.852 68.7459 47.876 68.9699 48.932 68.9699C49.732 68.9699 50.596 68.8419 51.54 68.5859C52.708 68.2819 54.18 68.1059 55.364 67.9619C55.892 67.8979 56.404 67.8339 56.884 67.7699C57.572 67.6739 58.356 67.6259 59.3 67.6259C59.924 67.6259 60.564 67.6419 61.156 67.6739C61.796 67.6899 62.452 67.7059 63.108 67.7059C63.252 67.7059 63.396 67.7059 63.54 67.7059C63.652 67.7059 63.764 67.7059 63.86 67.7059C64.628 67.7059 65.684 67.7539 66.1 68.1859C66.292 68.3939 66.388 68.7139 66.404 69.1779V69.1939C66.404 69.2259 66.388 69.2739 66.388 69.3219C66.372 69.9619 66.324 71.2739 63.188 71.2739H43.796C38.196 71.2579 34.212 70.5539 27.94 66.7139L27.78 66.6179C27.204 66.2819 26.548 65.8659 26.372 65.7379L26.356 65.7219C25.62 65.2099 25.22 64.6179 25.204 64.2979C25.076 61.7379 25.092 59.2099 25.108 56.2659V56.1059L25.124 53.7699C25.94 53.8179 26.756 53.8499 27.54 53.8819H27.588C29.844 53.9619 32.18 54.0419 34.036 54.8099C39.716 57.2259 44.244 59.8179 47.876 62.7459C49.076 63.6899 49.54 65.0499 49.428 65.4179Z" fill="#0054A0"/>
<path d="M12.9 69.7218C12.724 69.7218 12.58 69.5778 12.58 69.4018V49.7858C12.58 49.6098 12.724 49.4658 12.9 49.4658H21.54C21.716 49.4658 21.86 49.6098 21.86 49.7858V69.4018C21.86 69.5778 21.716 69.7218 21.54 69.7218H12.9ZM20.196 68.0578V51.1298H14.244V68.0578H20.196Z" fill="#0054A0"/>
<path d="M21.54 49.786V69.402H12.9V49.786H21.54ZM13.924 68.378H20.516V50.81H13.924V68.378ZM21.54 49.146H12.9C12.548 49.146 12.26 49.434 12.26 49.786V69.402C12.26 69.754 12.548 70.042 12.9 70.042H21.54C21.892 70.042 22.18 69.754 22.18 69.402V49.786C22.18 49.434 21.892 49.146 21.54 49.146ZM14.564 51.45H19.876V67.738H14.564V51.45Z" fill="#0054A0"/>
<path d="M51.316 31.2099C51.028 31.2099 50.756 31.1299 50.516 31.0019L41.684 25.8979C41.188 25.6099 40.884 25.0819 40.884 24.5059V14.3139C40.884 13.7379 41.188 13.2099 41.684 12.9219L50.516 7.81786C50.756 7.67386 51.044 7.60986 51.316 7.60986C51.588 7.60986 51.876 7.68986 52.116 7.81786L60.948 12.9219C61.444 13.2099 61.748 13.7379 61.748 14.3139V24.5059C61.748 25.0819 61.444 25.6099 60.948 25.8979L52.116 31.0019C51.876 31.1299 51.604 31.2099 51.316 31.2099ZM44.084 15.2419V23.5779L51.316 27.7539L58.548 23.5779V15.2419L51.316 11.0659L44.084 15.2419ZM60.164 24.7139V24.3139V24.7139Z" fill="#0054A0"/>
<path d="M51.316 20.4898C49.316 20.4898 47.7 18.8738 47.7 16.8738C47.7 14.8738 49.316 13.2578 51.316 13.2578C53.316 13.2578 54.932 14.8738 54.932 16.8738C54.932 18.8738 53.316 20.4898 51.316 20.4898ZM51.316 15.2738C50.436 15.2738 49.716 15.9938 49.716 16.8738C49.716 17.7538 50.436 18.4738 51.316 18.4738C52.196 18.4738 52.916 17.7538 52.916 16.8738C52.916 15.9938 52.212 15.2738 51.316 15.2738Z" fill="#0054A0"/>
<path d="M51.316 59.0177C51.14 59.0177 50.98 58.9697 50.82 58.8897L46.196 56.2817C45.876 56.1057 45.684 55.7697 45.684 55.4017V31.3217C45.684 30.9697 45.876 30.6337 46.18 30.4577C46.484 30.2817 46.868 30.2817 47.188 30.4577L51.316 32.7937L55.444 30.4577C55.748 30.2817 56.132 30.2817 56.452 30.4577C56.756 30.6337 56.948 30.9697 56.948 31.3217V40.1537C56.948 40.4257 56.836 40.6817 56.66 40.8577L55.364 42.1537L56.66 43.4497C57.06 43.8337 57.06 44.4737 56.66 44.8737L55.364 46.1697L56.66 47.4657C57.06 47.8497 57.06 48.4897 56.66 48.8897L55.364 50.1857L56.66 51.4817C56.852 51.6737 56.948 51.9297 56.948 52.1857V55.4017C56.948 55.7697 56.756 56.0897 56.436 56.2817L51.812 58.8897C51.652 58.9697 51.492 59.0177 51.316 59.0177ZM47.7 54.8097L51.316 56.8577L54.932 54.8097V52.6017L53.22 50.8897C52.82 50.5057 52.82 49.8657 53.22 49.4657L54.516 48.1697L53.22 46.8737C52.82 46.4897 52.82 45.8497 53.22 45.4497L54.516 44.1537L53.22 42.8577C52.82 42.4737 52.82 41.8337 53.22 41.4337L54.932 39.7217V33.0497L51.812 34.8097C51.508 34.9857 51.124 34.9857 50.82 34.8097L47.7 33.0497V54.8097Z" fill="#0054A0"/>
<path d="M50.196 53.002H50.036C49.86 53.002 49.716 52.858 49.716 52.682V37.466C49.716 37.29 49.86 37.146 50.036 37.146H50.196C50.372 37.146 50.516 37.29 50.516 37.466V52.682C50.516 52.858 50.372 53.002 50.196 53.002Z" fill="#0054A0"/>
</svg>
