<svg width="81" height="81" viewBox="0 0 81 81" fill="none" xmlns="http://www.w3.org/2000/svg">
<path d="M67.748 15.1939C67.284 14.6979 66.82 14.2339 66.324 13.7699C61.78 9.51394 55.908 6.64994 49.412 5.89794C48.356 5.76994 47.284 5.70594 46.212 5.68994C46.116 5.68994 46.02 5.68994 45.924 5.68994C45.828 5.68994 45.748 5.68994 45.652 5.68994C44.564 5.70594 43.492 5.76994 42.436 5.88194C35.748 6.66594 29.732 9.65794 25.14 14.1059C24.66 14.5699 24.196 15.0499 23.732 15.5619C18.932 20.8579 16.02 27.8979 16.02 35.5939C16.02 36.8259 16.1 38.0579 16.244 39.2579H18.26C18.148 38.3779 18.068 37.4979 18.036 36.6019H28.948C28.98 37.4979 29.028 38.3779 29.124 39.2579H31.14C31.044 38.3779 30.98 37.4979 30.948 36.6019H44.9V44.0259C45.236 44.1699 45.556 44.3779 45.812 44.6499L46.9 45.7379V36.6019H60.884C60.756 40.9859 59.764 45.1619 58.084 48.9699C54.884 47.7379 51.46 46.9539 47.892 46.7299L50.132 48.9699C52.58 49.3219 54.964 49.9299 57.204 50.7779C56.612 51.9139 55.956 53.0179 55.236 54.0739L56.1 54.9379C56.308 55.1459 56.468 55.3699 56.612 55.6099C57.524 54.3139 58.34 52.9539 59.06 51.5299C61.364 52.5699 63.524 53.8659 65.508 55.3859C63.06 57.8019 60.18 59.7859 56.98 61.1779V63.3539C60.804 61.8179 64.228 59.5299 67.092 56.6659C67.556 56.1859 68.02 55.7059 68.452 55.1939C73.028 49.9459 75.796 43.0819 75.796 35.5939C75.812 27.7059 72.756 20.5379 67.748 15.1939ZM42.468 7.91394C38.692 10.8579 35.54 14.5539 33.236 18.7779C30.948 17.8659 28.788 16.6979 26.788 15.3219C30.996 11.3379 36.436 8.64994 42.468 7.91394ZM28.964 34.5859H18.052C18.292 27.7379 21.028 21.4979 25.364 16.7619C27.524 18.2819 29.86 19.5619 32.324 20.5699C30.292 24.8419 29.092 29.5779 28.964 34.5859ZM44.916 34.5859H30.964C31.108 29.8339 32.26 25.3219 34.212 21.2739C37.588 22.4259 41.188 23.0819 44.916 23.1299V34.5859ZM44.916 21.1299C41.508 21.0659 38.228 20.4899 35.14 19.4659C37.556 15.1459 40.9 11.4339 44.916 8.58594V21.1299ZM73.78 34.5859H62.9C62.756 29.4659 61.508 24.6339 59.396 20.2819C61.796 19.2419 64.068 17.9459 66.148 16.4259C70.676 21.1939 73.54 27.5619 73.78 34.5859ZM64.708 14.9859C62.772 16.3619 60.692 17.5459 58.484 18.4899C56.196 14.3779 53.092 10.7939 49.412 7.91394C55.252 8.64994 60.548 11.1939 64.708 14.9859ZM46.916 8.56994C50.868 11.3699 54.18 15.0179 56.58 19.2419C53.54 20.3299 50.292 20.9699 46.916 21.1139V8.56994ZM46.916 34.5859V23.1139C50.628 22.9699 54.196 22.2339 57.54 21.0179C59.556 25.1299 60.756 29.7219 60.9 34.5699H46.916V34.5859ZM66.916 53.9139C64.772 52.2659 62.436 50.8579 59.94 49.7219C61.732 45.6899 62.772 41.2419 62.9 36.5859H73.78C73.556 43.2099 70.996 49.2419 66.916 53.9139Z" fill="#0054A0"/>
<path d="M49.716 56.5378C49.7 56.5698 49.668 56.6018 49.62 56.6018H39.444C39.38 56.6018 39.348 56.5538 39.348 56.5058V49.2898C39.348 49.2258 39.396 49.1938 39.444 49.1938H42.404C42.436 49.1938 42.452 49.2098 42.468 49.2258L49.684 56.4418C49.732 56.4578 49.732 56.5058 49.716 56.5378Z" fill="#0054A0"/>
<path d="M24.308 67.9458C24.5 68.5858 24.612 69.2578 24.612 69.9458H36.004C36.004 69.2418 36.116 68.5698 36.308 67.9458H24.308Z" fill="#0054A0"/>
<path d="M54.708 56.3458L44.42 46.0578C44.228 45.8658 43.972 45.7698 43.716 45.7698H37.652V42.2658C37.652 41.7058 37.204 41.2578 36.644 41.2578H6.19599C5.63599 41.2578 5.18799 41.7058 5.18799 42.2658V68.9538C5.18799 69.5138 5.63599 69.9618 6.19599 69.9618H10.868C10.868 69.2578 10.98 68.5858 11.172 67.9618H7.18799V61.9458H52.98V67.9618H49.428C49.62 68.6018 49.732 69.2738 49.732 69.9618H53.988C54.548 69.9618 54.996 69.5138 54.996 68.9538V57.0498C54.996 56.7938 54.884 56.5378 54.708 56.3458ZM52.996 59.9138H7.18799V43.2578H35.636V46.7618C35.636 47.3058 36.068 47.7378 36.596 47.7698C36.612 47.7698 36.628 47.7698 36.644 47.7698H43.3L52.996 57.4658V59.9138Z" fill="#0054A0"/>
<path d="M47.284 67.946C46.516 66.266 44.82 65.082 42.852 65.082C40.884 65.082 39.188 66.25 38.42 67.946C38.148 68.554 37.988 69.242 37.988 69.946C37.988 72.634 40.164 74.81 42.852 74.81C45.54 74.81 47.716 72.634 47.716 69.946C47.716 69.226 47.572 68.554 47.284 67.946ZM42.852 72.81C41.268 72.81 39.988 71.53 39.988 69.946C39.988 69.162 40.308 68.458 40.82 67.946C41.332 67.418 42.052 67.098 42.852 67.098C43.652 67.098 44.372 67.418 44.884 67.946C45.396 68.458 45.716 69.162 45.716 69.946C45.716 71.514 44.436 72.81 42.852 72.81Z" fill="#0054A0"/>
<path d="M22.164 67.946C21.396 66.266 19.7 65.082 17.732 65.082C15.764 65.082 14.068 66.25 13.3 67.946C13.028 68.554 12.868 69.242 12.868 69.946C12.868 72.634 15.044 74.81 17.732 74.81C20.42 74.81 22.596 72.634 22.596 69.946C22.596 69.226 22.436 68.554 22.164 67.946ZM17.732 72.81C16.148 72.81 14.868 71.53 14.868 69.946C14.868 69.162 15.188 68.458 15.7 67.946C16.212 67.418 16.932 67.098 17.732 67.098C18.532 67.098 19.252 67.418 19.764 67.946C20.276 68.458 20.596 69.162 20.596 69.946C20.58 71.514 19.3 72.81 17.732 72.81Z" fill="#0054A0"/>
</svg>
