<svg width="81" height="81" viewBox="0 0 81 81" fill="none" xmlns="http://www.w3.org/2000/svg">
<path d="M62.772 21.738C62.74 21.562 62.66 21.402 62.548 21.274C62.5 21.226 62.468 21.178 62.42 21.13C62.324 21.034 62.212 20.97 62.1 20.922L44.516 12.058C44.516 12.058 44.516 12.058 44.5 12.058L36.084 7.81804C35.748 7.64204 35.332 7.64204 34.98 7.81804L8.932 20.938C8.9 20.954 8.868 20.97 8.836 20.986C8.708 21.066 8.612 21.162 8.516 21.274C8.5 21.29 8.484 21.322 8.468 21.338C8.404 21.434 8.372 21.514 8.324 21.626C8.324 21.658 8.308 21.674 8.308 21.706C8.292 21.802 8.276 21.898 8.276 21.994V49.146C8.276 49.626 8.548 50.042 8.98 50.234L35.044 61.882C35.092 61.898 35.14 61.93 35.204 61.946C35.316 61.978 35.428 61.994 35.54 61.994C35.652 61.994 35.764 61.978 35.876 61.946C35.924 61.93 35.988 61.914 36.036 61.882L46.052 57.402C46.116 56.298 46.452 55.258 46.996 54.362C46.996 54.362 46.996 54.346 46.98 54.346L36.74 58.922H36.724V34.442L60.372 23.866H60.388V43.05C61.236 43.13 62.036 43.37 62.772 43.722H62.788V22.01C62.804 21.914 62.788 21.834 62.772 21.738ZM45.876 15.45L23.556 26.986L21.54 26.09V26.074L43.972 14.49L45.876 15.45C45.892 15.45 45.892 15.45 45.876 15.45ZM22.388 29.098V36.522C22.388 37.146 21.94 37.706 21.332 37.77C20.596 37.866 19.956 37.29 19.956 36.57V28.026C19.956 28.026 19.956 28.01 19.972 28.026L22.388 29.098ZM35.54 10.234L41.316 13.146V13.162L18.724 24.826L12.292 21.946V21.93L35.54 10.234ZM34.324 58.954L10.692 48.378V23.866C10.692 23.866 10.692 23.85 10.708 23.866L17.572 26.938V36.474C17.572 38.442 19.092 40.106 21.06 40.186C23.108 40.266 24.804 38.618 24.804 36.57V30.186C24.804 30.186 24.804 30.17 24.82 30.186L34.356 34.442L34.324 58.954C34.34 58.954 34.34 58.954 34.324 58.954ZM35.54 32.346L26.372 28.25V28.234L48.532 16.778L58.772 21.93V21.946L35.54 32.346Z" fill="#0054A0"/>
<path d="M66.98 52.2338H65.732V49.9298C65.732 47.8498 64.628 46.0258 62.964 45.0018C62.244 44.5698 61.444 44.2818 60.564 44.1858C60.356 44.1698 60.164 44.1538 59.956 44.1538C56.772 44.1538 54.18 46.7458 54.18 49.9298V52.2338H52.932C52.676 52.2338 52.42 52.2498 52.18 52.2818C51.044 52.4258 50.004 52.9058 49.172 53.6258C48.148 54.5058 47.444 55.7378 47.236 57.1298C47.188 57.4178 47.172 57.7058 47.172 57.9938V66.7458C47.172 69.9298 49.764 72.5058 52.932 72.5058H66.98C70.164 72.5058 72.74 69.9138 72.74 66.7458V58.0098C72.74 54.8258 70.148 52.2338 66.98 52.2338ZM56.58 49.9298C56.58 48.0738 58.1 46.5538 59.956 46.5538C60.164 46.5538 60.372 46.5698 60.564 46.6018C61.62 46.7938 62.5 47.4658 62.964 48.3938C63.204 48.8578 63.332 49.3698 63.332 49.9138V52.2178H56.58V49.9298ZM70.34 66.7458C70.34 68.6018 68.836 70.1058 66.98 70.1058H52.932C51.076 70.1058 49.572 68.6018 49.572 66.7458V58.0098C49.572 57.0978 49.94 56.2818 50.516 55.6738C51.092 55.0658 51.908 54.6978 52.788 54.6498C52.836 54.6498 52.884 54.6498 52.916 54.6498H66.964C68.82 54.6498 70.324 56.1538 70.324 58.0098V66.7458H70.34Z" fill="#0054A0"/>
<path d="M57.428 66.5379L59.06 61.1619C58.5 60.8579 58.132 60.2499 58.132 59.5779C58.132 58.5699 58.948 57.7539 59.956 57.7539C60.964 57.7539 61.78 58.5699 61.78 59.5779C61.78 60.2659 61.412 60.8579 60.852 61.1619L62.484 66.5379H57.428Z" fill="#0054A0"/>
</svg>
