<svg width="81" height="81" viewBox="0 0 81 81" fill="none" xmlns="http://www.w3.org/2000/svg">
<path d="M63.396 64.8903L62.516 63.8983C61.38 62.6183 51.396 51.2103 51.396 44.9703C51.396 38.3623 56.772 32.9863 63.38 32.9863C69.988 32.9863 75.364 38.3623 75.364 44.9703C75.364 51.2103 65.396 62.6183 64.244 63.8983L63.396 64.8903ZM63.396 35.3223C58.084 35.3223 53.748 39.6583 53.748 44.9703C53.748 49.0983 60.068 57.4023 63.396 61.3383C66.724 57.4023 73.044 49.1143 73.044 44.9703C73.044 39.6583 68.708 35.3223 63.396 35.3223Z" fill="#0054A0"/>
<path d="M63.3959 48.3622C65.552 48.3622 67.2999 46.6143 67.2999 44.4582C67.2999 42.3021 65.552 40.5542 63.3959 40.5542C61.2398 40.5542 59.4919 42.3021 59.4919 44.4582C59.4919 46.6143 61.2398 48.3622 63.3959 48.3622Z" fill="#0054A0"/>
<path d="M17.684 48.3142L16.804 47.3222C15.668 46.0422 5.68396 34.6342 5.68396 28.3942C5.68396 21.7862 11.06 16.4102 17.668 16.4102C24.276 16.4102 29.652 21.7862 29.652 28.3942C29.652 34.6342 19.684 46.0422 18.532 47.3222L17.684 48.3142ZM17.684 18.7622C12.372 18.7622 8.03596 23.0982 8.03596 28.4102C8.03596 32.5382 14.356 40.8422 17.684 44.7782C21.012 40.8422 27.332 32.5542 27.332 28.4102C27.332 23.0822 23.012 18.7622 17.684 18.7622Z" fill="#0054A0"/>
<path d="M17.6839 31.786C19.84 31.786 21.5879 30.0381 21.5879 27.882C21.5879 25.7259 19.84 23.978 17.6839 23.978C15.5278 23.978 13.7799 25.7259 13.7799 27.882C13.7799 30.0381 15.5278 31.786 17.6839 31.786Z" fill="#0054A0"/>
<path d="M25.092 46.1539C26.66 46.1219 28.228 46.074 29.796 46.042C31.204 46.01 32.612 45.9299 34.004 46.1059C33.876 46.0899 33.748 46.0739 33.62 46.0579C34.276 46.1539 34.916 46.2979 35.524 46.5539C35.412 46.5059 35.284 46.4579 35.172 46.4099C35.428 46.5219 35.684 46.6499 35.924 46.7939C36.052 46.8739 36.164 46.9539 36.276 47.0339C36.484 47.1779 36.068 46.8579 36.196 46.9699C36.244 47.0179 36.292 47.0499 36.34 47.0979C36.548 47.2739 36.74 47.4659 36.916 47.6579C36.996 47.7539 37.092 47.8499 37.172 47.946C37.22 47.9939 37.252 48.0419 37.3 48.0899C37.012 47.7699 37.188 47.946 37.252 48.042C37.876 48.906 38.372 49.866 38.788 50.842C38.74 50.73 38.692 50.6019 38.644 50.4899C39.108 51.5779 39.364 52.7459 39.652 53.8979C39.988 55.2099 40.34 56.6179 41.124 57.7539C41.956 58.9699 43.22 59.8659 44.5 60.5539C45.188 60.9219 45.908 61.242 46.644 61.482C47.396 61.738 48.164 61.8659 48.948 61.93C50.836 62.122 52.724 61.9139 54.612 61.93C55.38 61.93 56.116 61.2579 56.068 60.4739C56.036 59.6739 55.428 59.0179 54.612 59.0179C52.564 59.0019 50.516 59.2419 48.468 58.9699C48.596 58.9859 48.724 59.0019 48.852 59.0179C48.084 58.9059 47.364 58.6819 46.644 58.3779C46.756 58.4259 46.884 58.474 46.996 58.522C46.516 58.314 46.036 58.0899 45.588 57.8179C45.364 57.6899 45.14 57.546 44.932 57.402C44.82 57.338 44.724 57.2579 44.628 57.1779C44.58 57.1459 44.532 57.098 44.484 57.066C44.356 56.97 44.788 57.306 44.58 57.1299C44.228 56.8419 43.908 56.554 43.62 56.202C43.508 56.074 43.828 56.5059 43.7 56.2979C43.668 56.2499 43.636 56.2019 43.604 56.1539C43.54 56.0579 43.476 55.9459 43.412 55.8499C43.284 55.6259 43.172 55.402 43.076 55.162C43.124 55.274 43.172 55.4019 43.22 55.5139C42.676 54.1859 42.42 52.7459 42.036 51.3699C41.668 49.9779 41.076 48.65 40.34 47.402C39.476 45.946 38.292 44.5859 36.724 43.8979C35.044 43.1619 33.22 43.0339 31.412 43.0659C29.3 43.0979 27.204 43.1619 25.092 43.2259C24.324 43.2419 23.588 43.882 23.636 44.682C23.668 45.466 24.276 46.1699 25.092 46.1539Z" fill="#0054A0"/>
</svg>
