<svg width="81" height="81" viewBox="0 0 81 81" fill="none" xmlns="http://www.w3.org/2000/svg">
<path d="M63.364 19.402C63.364 19.386 63.348 19.386 63.348 19.37L59.316 9.85L58.788 8.602C58.692 8.394 58.484 8.25 58.26 8.25H16.052C15.828 8.25 15.62 8.394 15.524 8.602L14.996 9.85L10.964 19.37C10.964 19.386 10.948 19.386 10.948 19.402L9.36399 22.602C9.33199 22.682 9.29999 22.762 9.29999 22.858V57.914C9.29999 58.234 9.55599 58.49 9.87599 58.49H42.58C42.916 58.49 43.188 58.186 43.14 57.85C43.076 57.354 43.028 56.842 43.012 56.314C42.996 56.01 42.74 55.77 42.436 55.77H12.516C12.196 55.77 11.94 55.514 11.94 55.194V25.802C11.94 25.482 12.196 25.226 12.516 25.226L31.988 25.21C32.308 25.21 32.564 25.466 32.564 25.786V34.346C32.564 34.666 32.82 34.922 33.14 34.922H41.156C41.476 34.922 41.732 34.666 41.732 34.346V25.786C41.732 25.466 41.988 25.21 42.308 25.21L61.78 25.226C62.1 25.226 62.356 25.482 62.356 25.802V35.674C62.356 35.994 62.612 36.25 62.932 36.25H64.436C64.756 36.25 65.012 35.994 65.012 35.674V22.874C65.012 22.778 64.996 22.698 64.948 22.618L63.364 19.402ZM31.988 20.442L14.228 20.41C13.812 20.41 13.54 19.994 13.7 19.61L17.268 11.242C17.364 11.034 17.572 10.89 17.796 10.89H32.004C32.324 10.89 32.58 11.146 32.58 11.466V19.85C32.564 20.186 32.308 20.442 31.988 20.442ZM38.516 32.266H35.78C35.46 32.266 35.204 32.01 35.204 31.69V25.77C35.204 25.45 35.46 25.194 35.78 25.194H38.516C38.836 25.194 39.092 25.45 39.092 25.77V31.69C39.092 32.01 38.836 32.266 38.516 32.266ZM38.516 20.442H35.78C35.46 20.442 35.204 20.186 35.204 19.866V11.466C35.204 11.146 35.46 10.89 35.78 10.89H38.516C38.836 10.89 39.092 11.146 39.092 11.466V19.85C39.092 20.186 38.836 20.442 38.516 20.442ZM41.732 19.866V11.434C41.732 11.114 41.988 10.858 42.308 10.858L56.516 10.906C56.74 10.906 56.948 11.05 57.044 11.258L60.612 19.61C60.772 19.994 60.5 20.41 60.084 20.41L42.308 20.458C41.988 20.442 41.732 20.17 41.732 19.866Z" fill="#0054A0"/>
<path d="M26.564 42.8578H19.716C18.836 42.8578 18.116 42.1378 18.116 41.2578V40.9218C18.116 40.0418 18.836 39.3218 19.716 39.3218H26.564C27.444 39.3218 28.164 40.0418 28.164 40.9218V41.2578C28.164 42.1538 27.444 42.8578 26.564 42.8578Z" fill="#0054A0"/>
<path d="M26.564 49.93H19.716C18.836 49.93 18.116 49.21 18.116 48.33V47.994C18.116 47.114 18.836 46.394 19.716 46.394H26.564C27.444 46.394 28.164 47.114 28.164 47.994V48.33C28.164 49.21 27.444 49.93 26.564 49.93Z" fill="#0054A0"/>
<path d="M64.676 39.4662C64.612 39.3382 64.548 39.1942 64.484 39.0662C64.276 38.6182 63.844 38.3462 63.364 38.3462H53.252C52.772 38.3462 52.34 38.6342 52.132 39.0662C50.98 41.6102 48.628 43.4662 45.892 44.0102C45.316 44.1222 44.916 44.6342 44.916 45.2102V55.1302C44.916 55.3382 44.916 55.5462 44.932 55.7542C44.964 56.6662 45.044 57.5302 45.172 58.3302C46.804 68.3942 55.876 71.5942 57.924 72.1862C58.052 72.2182 58.196 72.2342 58.324 72.2342C58.452 72.2342 58.596 72.2182 58.724 72.1862C60.964 71.5302 71.716 67.7222 71.716 55.1142V45.1942C71.716 44.6022 71.316 44.0902 70.74 43.9942C68.116 43.4982 65.892 41.8182 64.676 39.4662ZM69.78 55.1302C69.78 60.2182 67.844 64.3142 64.036 67.2902C61.892 68.9702 59.7 69.8342 58.596 70.2182C58.5 70.2502 58.404 70.2662 58.308 70.2662C58.212 70.2662 58.116 70.2502 58.02 70.2182C56.9 69.8502 54.724 68.9702 52.58 67.2902C49.604 64.9702 47.78 61.9622 47.108 58.3302C46.964 57.4982 46.868 56.6342 46.836 55.7542C46.836 55.5462 46.82 55.3382 46.82 55.1302V46.4742C46.82 46.0582 47.076 45.7062 47.476 45.5782C50.004 44.7782 52.116 43.0502 53.428 40.7302C53.588 40.4422 53.908 40.2502 54.244 40.2502H62.564C62.772 40.2502 62.98 40.3622 63.076 40.5542C63.508 41.3702 64.052 42.1062 64.66 42.7622C65.876 44.0582 67.396 45.0182 69.108 45.5622C69.508 45.6902 69.764 46.0422 69.764 46.4582V55.1302H69.78Z" fill="#0054A0" stroke="#0054A0" stroke-width="0.6" stroke-miterlimit="10"/>
<path d="M56.724 60.1701C56.26 60.1701 55.812 60.0101 55.444 59.6901L51.044 55.8021C50.244 55.0981 50.164 53.8661 50.868 53.0661C51.572 52.2661 52.804 52.1861 53.604 52.8901L56.692 55.6101L62.98 49.7381C63.764 49.0021 64.996 49.0501 65.716 49.8341C66.452 50.6181 66.404 51.8501 65.62 52.5861L58.036 59.6581C57.668 59.9941 57.188 60.1701 56.724 60.1701Z" fill="#0054A0"/>
</svg>
