<svg width="81" height="81" viewBox="0 0 81 81" fill="none" xmlns="http://www.w3.org/2000/svg">
<path d="M76.9 20.314H55.9241C55.0761 20.314 54.4041 21.002 54.4041 21.834V35.674C54.4041 36.522 55.0921 37.194 55.9241 37.194H76.9C77.748 37.194 78.42 36.506 78.42 35.674V21.834C78.42 20.986 77.732 20.314 76.9 20.314ZM73.876 22.506L66.356 27.818L58.8361 22.506H73.876ZM56.5961 22.794L65.028 28.746L56.5961 34.698V22.794ZM58.8361 35.002L66.356 29.69L73.876 35.002H58.8361ZM76.228 34.778L67.684 28.746L76.228 22.714V34.778Z" fill="#0054A0"/>
<path d="M76.9 38.73H55.9241C55.0761 38.73 54.4041 39.418 54.4041 40.25V54.09C54.4041 54.938 55.0921 55.61 55.9241 55.61H76.9C77.748 55.61 78.42 54.922 78.42 54.09V40.25C78.42 39.418 77.732 38.73 76.9 38.73ZM73.876 40.922L66.356 46.234L58.8361 40.922H73.876ZM56.5961 41.226L65.028 47.178L56.5961 53.13V41.226ZM58.8361 53.418L66.356 48.106L73.876 53.418H58.8361ZM76.228 53.21L67.684 47.178L76.228 41.146V53.21Z" fill="#0054A0"/>
<path d="M52.196 16.2502V54.5382C51.572 53.8182 50.82 53.2102 50.004 52.7302V16.2502C50.004 15.7702 50.388 15.3862 50.868 15.3862H51.332C51.812 15.3862 52.196 15.7702 52.196 16.2502Z" fill="#0054A0"/>
<path d="M71.94 58.5061V59.1141C71.94 59.5461 71.588 59.8981 71.156 59.8981H54.388C54.356 59.1301 54.212 58.4101 53.988 57.7061H71.14C71.588 57.7061 71.94 58.0581 71.94 58.5061Z" fill="#0054A0"/>
<path d="M15.876 56.8261H13.476C13.444 56.8261 13.412 56.8261 13.38 56.8261C13.348 56.8261 13.316 56.8261 13.284 56.8261H12.948C13.668 57.3701 14.228 58.1381 14.5 59.0181H16.756C16.596 58.2341 16.292 57.4981 15.876 56.8261ZM3.86005 59.0181H6.11605C6.38805 58.1381 6.94805 57.3701 7.66805 56.8261H4.75605C4.34005 57.4981 4.03605 58.2341 3.86005 59.0181ZM18.356 56.8261C18.66 57.5141 18.868 58.2501 18.996 59.0181H36.964C37.076 58.2501 37.3 57.5141 37.604 56.8261H18.356ZM29.332 12.5381H13.46C12.212 12.5381 11.188 13.5461 11.188 14.8101V34.9061H6.86805C4.40405 34.9061 2.40405 36.9061 2.40405 39.3701V56.5221C2.93205 55.4341 3.68405 54.4581 4.59605 53.6901V39.3701C4.59605 38.1221 5.60405 37.0981 6.86805 37.0981H11.188C12.404 37.0981 13.38 36.1221 13.38 34.9061V14.7941C13.38 14.7621 13.412 14.7141 13.46 14.7141H27.988L46.724 51.2261V51.6261C47.492 51.7221 48.228 51.9141 48.916 52.2021V50.7141L29.332 12.5381Z" fill="#0054A0"/>
<path d="M26.2601 19.8822L36.4361 40.0582H18.5321V19.8822H26.2601ZM27.2041 18.3462H18.3881C17.6201 18.3462 16.9961 18.9702 16.9961 19.7382V40.2022C16.9961 40.9702 17.6201 41.5942 18.3881 41.5942H36.8841C37.6201 41.5942 38.2281 41.0182 38.2601 40.2822L27.2041 18.3462Z" fill="#0054A0"/>
<path d="M52.596 59.8821C52.484 58.0581 51.652 56.3781 50.292 55.1461C49.924 54.8261 49.54 54.5381 49.124 54.2981C48.404 53.8821 47.62 53.5941 46.804 53.4661C46.436 53.4021 46.036 53.3701 45.636 53.3701C43.236 53.3701 41.028 54.5861 39.732 56.6341C39.284 57.3381 38.964 58.1221 38.788 58.9701C38.692 59.4341 38.644 59.8981 38.644 60.3621C38.644 64.2181 41.78 67.3541 45.636 67.3541C49.492 67.3541 52.628 64.2181 52.628 60.3621C52.612 60.1701 52.596 60.0101 52.596 59.8821ZM45.62 64.7301C43.204 64.7301 41.236 62.7621 41.236 60.3461C41.236 59.8821 41.3 59.4501 41.444 59.0341C41.716 58.1541 42.276 57.3861 42.996 56.8421C43.732 56.2981 44.644 55.9621 45.62 55.9621C46.004 55.9621 46.372 56.0101 46.724 56.1061C47.54 56.3141 48.276 56.7621 48.836 57.3701C49.572 58.1541 50.02 59.2101 50.02 60.3621C50.004 62.7621 48.036 64.7301 45.62 64.7301Z" fill="#0054A0"/>
<path d="M17.156 58.9379C16.98 58.1059 16.676 57.3219 16.212 56.6019C14.916 54.5539 12.708 53.3379 10.308 53.3379C7.90804 53.3379 5.70004 54.5539 4.40404 56.6019C3.95604 57.3059 3.63604 58.0899 3.46004 58.9379C3.36404 59.4019 3.31604 59.8659 3.31604 60.3299C3.31604 64.1859 6.45204 67.3219 10.308 67.3219C14.164 67.3219 17.3 64.1859 17.3 60.3299C17.3 59.8819 17.252 59.4019 17.156 58.9379ZM10.308 64.7299C7.89204 64.7299 5.92404 62.7619 5.92404 60.3459C5.92404 59.8819 5.98804 59.4499 6.13204 59.0339C6.40404 58.1539 6.96404 57.3859 7.68404 56.8419C8.42004 56.2979 9.33204 55.9619 10.324 55.9619C11.316 55.9619 12.228 56.2819 12.948 56.8419C13.668 57.3859 14.228 58.1539 14.5 59.0339C14.628 59.4499 14.708 59.8979 14.708 60.3459C14.708 62.7619 12.74 64.7299 10.308 64.7299Z" fill="#0054A0"/>
<path d="M17.156 58.9379C16.98 58.1059 16.676 57.3219 16.212 56.6019C14.916 54.5539 12.708 53.3379 10.308 53.3379C7.90804 53.3379 5.70004 54.5539 4.40404 56.6019C3.95604 57.3059 3.63604 58.0899 3.46004 58.9379C3.36404 59.4019 3.31604 59.8659 3.31604 60.3299C3.31604 64.1859 6.45204 67.3219 10.308 67.3219C14.164 67.3219 17.3 64.1859 17.3 60.3299C17.3 59.8819 17.252 59.4019 17.156 58.9379ZM10.308 64.7299C7.89204 64.7299 5.92404 62.7619 5.92404 60.3459C5.92404 59.8819 5.98804 59.4499 6.13204 59.0339C6.40404 58.1539 6.96404 57.3859 7.68404 56.8419C8.42004 56.2979 9.33204 55.9619 10.324 55.9619C11.316 55.9619 12.228 56.2819 12.948 56.8419C13.668 57.3859 14.228 58.1539 14.5 59.0339C14.628 59.4499 14.708 59.8979 14.708 60.3459C14.708 62.7619 12.74 64.7299 10.308 64.7299Z" fill="#0054A0"/>
</svg>
