<svg width="81" height="81" viewBox="0 0 81 81" fill="none" xmlns="http://www.w3.org/2000/svg">
<path d="M76.4521 68.314C75.1241 66.97 73.1081 66.778 71.2841 66.778C71.1401 66.778 71.0121 66.778 70.8681 66.778C70.6921 66.778 70.5001 66.778 70.3241 66.778C69.5081 66.778 68.7241 66.762 67.8761 66.73H67.8441C67.0441 66.698 66.1961 66.682 65.3321 66.682C63.9241 66.682 62.7721 66.746 61.7001 66.906C61.5241 66.922 61.3321 66.954 61.1401 66.97C60.6921 67.034 60.2281 67.082 59.7641 67.146C58.2921 67.322 56.6441 67.514 55.1241 67.85C55.8441 65.69 54.3081 62.666 52.1321 60.922C47.1561 56.906 40.9641 53.338 33.1881 50.026C30.3081 48.794 27.0921 48.682 23.7001 48.554H23.6361H23.5561C22.5001 48.506 21.4121 48.474 20.3241 48.394C20.2601 48.394 20.1961 48.394 20.1161 48.394C19.3961 48.394 18.6921 48.666 18.1641 49.146L18.1481 49.162C17.5561 49.722 17.2361 50.458 17.2361 51.242L17.2201 54.49C17.2041 55.866 17.2041 57.178 17.2041 58.458C17.2041 61.338 17.2521 63.418 17.3321 65.434C17.3961 66.938 18.4201 68.474 20.1321 69.674C20.3561 69.834 20.8521 70.138 21.3641 70.458C21.6521 70.634 21.9401 70.826 22.1481 70.954L22.1641 70.97L22.3721 71.098C31.2521 76.538 36.9161 77.53 44.8361 77.546H70.4521C76.6121 77.546 77.6361 74.09 77.7001 72.026C77.7481 70.458 77.3321 69.21 76.4521 68.314ZM52.2761 66.842C52.0361 67.066 51.5721 67.194 50.9641 67.194C49.9241 67.194 48.7561 66.842 48.0841 66.538C45.7321 65.498 43.4281 64.122 41.3801 62.89C39.9401 62.042 38.1641 60.97 36.3721 60.058C35.3161 59.514 34.2601 59.242 32.9641 59.178C32.9321 59.178 32.9001 59.178 32.8681 59.178C31.9081 59.178 31.3321 59.818 31.1881 60.442C30.9161 61.562 31.8601 62.538 32.9321 63.018L33.5241 63.338C33.9401 63.674 34.4361 63.946 34.9641 64.218C35.0601 64.266 35.1401 64.33 35.2361 64.378C35.3481 64.442 35.4601 64.506 35.5561 64.57L35.5721 64.586C40.5641 67.514 42.3081 68.346 47.5401 70.618C48.9161 71.21 50.2441 71.498 51.6361 71.498C52.6921 71.498 53.8281 71.338 55.0761 71.002C56.6121 70.602 58.5641 70.362 60.1161 70.17C60.8201 70.09 61.4921 70.01 62.1161 69.914C63.0281 69.786 64.0521 69.722 65.3001 69.722C66.1321 69.722 66.9641 69.754 67.7321 69.77C68.5801 69.786 69.4441 69.818 70.3081 69.818C70.5001 69.818 70.6921 69.818 70.8841 69.818C71.0281 69.818 71.1721 69.818 71.3161 69.818C72.3241 69.818 73.7161 69.882 74.2761 70.442C74.5321 70.714 74.6601 71.13 74.6601 71.754V71.77C74.6601 71.818 74.6441 71.866 74.6441 71.946C74.6281 72.794 74.5641 74.522 70.4361 74.522H44.8521C37.4761 74.506 32.2121 73.578 23.9561 68.506L23.7481 68.378C22.9961 67.93 22.1321 67.402 21.9081 67.226C21.8921 67.226 21.8921 67.21 21.8921 67.21C20.9321 66.538 20.4041 65.754 20.3881 65.322C20.2121 61.946 20.2441 58.618 20.2601 54.746V54.538L20.2761 51.45C21.3481 51.514 22.4201 51.562 23.4601 51.594H23.5401C26.5161 51.69 29.5881 51.802 32.0361 52.826C39.5241 56.01 45.4761 59.434 50.2601 63.29C51.7961 64.57 52.4201 66.378 52.2761 66.842Z" fill="#0054A0"/>
<path d="M15.5241 45.418H4.13206C3.66806 45.418 3.28406 45.802 3.28406 46.266V72.09C3.28406 72.554 3.66806 72.938 4.13206 72.938H15.5241C15.9881 72.938 16.3721 72.554 16.3721 72.09V46.266C16.3721 45.786 15.9881 45.418 15.5241 45.418ZM13.3321 48.442V69.898H6.32406V48.442H13.3321Z" fill="#0054A0"/>
<path d="M3.30005 36.8744V38.1224H77.604V36.8744C77.604 36.1704 77.0441 35.6104 76.3401 35.6104H4.56405C3.86005 35.6104 3.30005 36.1864 3.30005 36.8744Z" fill="#0054A0"/>
<path d="M9.47599 19.8022C9.47599 19.7062 9.52399 19.4662 9.58799 19.2422C10.036 17.2742 11.252 16.0902 13.14 15.2582C14.5 14.6502 15.844 14.0422 17.188 13.4022C17.492 13.2582 17.796 13.0022 17.972 12.7142C19.3 10.6502 20.596 8.58621 21.876 6.49021C23.332 4.15421 25.428 2.97021 28.18 2.97021C34.244 2.97021 40.308 2.97021 46.372 2.97021C48.852 2.97021 50.82 3.97821 52.324 5.96221C53.988 8.17021 55.7 10.3622 57.364 12.5702C57.652 12.9542 57.972 13.1622 58.42 13.2742C61.252 14.0262 64.068 14.8102 66.9 15.5782C69.668 16.3302 71.236 18.3942 71.236 21.2742C71.236 22.3622 71.252 23.4502 71.236 24.5222C71.172 27.7862 68.82 30.1222 65.572 30.1382C65.124 30.1382 64.916 30.2502 64.772 30.6982C63.796 33.5302 61.156 35.4022 58.164 35.4022C55.188 35.4022 52.516 33.4982 51.572 30.6662C51.428 30.2342 51.22 30.1382 50.804 30.1382C44.116 30.1542 37.428 30.1542 30.74 30.1382C30.276 30.1382 30.1 30.2822 29.94 30.7142C28.18 35.7702 21.54 37.0662 18.084 32.9702C17.396 32.1702 16.948 31.1622 16.34 30.1382C16.068 30.1382 15.62 30.1382 15.172 30.1382C13.284 30.1062 11.684 29.4182 10.644 27.8342C10.132 27.0502 9.77999 26.1862 9.57199 25.2262C9.37999 24.3462 9.28399 21.7542 9.47599 19.8022ZM58.116 21.3702C61.012 21.3862 64.404 23.2102 65.156 27.5622C66.98 27.8822 68.612 26.6342 68.676 24.7942C68.724 23.4502 68.724 22.1062 68.676 20.7622C68.644 19.4982 67.78 18.4742 66.436 18.0902C64.276 17.4662 62.1 16.8902 59.94 16.2982C59.012 16.0422 58.084 15.7702 57.156 15.5462C56.548 15.4022 56.084 15.0822 55.7 14.5702C53.972 12.2822 52.196 10.0262 50.5 7.70621C49.364 6.17021 47.924 5.46621 46.02 5.48221C40.148 5.51421 34.292 5.51421 28.42 5.48221C26.404 5.46621 24.932 6.25022 23.892 7.99422C22.58 10.2022 21.188 12.3622 19.796 14.5222C19.54 14.9222 19.124 15.2742 18.692 15.4822C17.156 16.2342 15.604 16.9222 14.052 17.6262C12.708 18.2342 12.02 19.2422 12.036 20.7462C12.052 21.9782 12.036 23.1942 12.036 24.4262C12.036 26.3942 13.268 27.6262 15.22 27.6422C15.556 27.6422 15.892 27.6422 16.292 27.6422C16.612 25.4982 17.604 23.7702 19.412 22.5702C20.644 21.7382 22.02 21.3382 23.508 21.4022C26.26 21.5142 29.54 23.2582 30.308 27.6102C37.236 27.6102 44.18 27.6102 51.108 27.6102C51.924 23.0982 55.428 21.3702 58.116 21.3702ZM62.644 28.3622C62.628 25.9142 60.596 23.8822 58.148 23.8822C55.7 23.8822 53.668 25.9302 53.668 28.3782C53.668 30.8262 55.7 32.8422 58.164 32.8422C60.628 32.8422 62.66 30.8102 62.644 28.3622ZM27.812 28.3782C27.812 25.9302 25.764 23.8982 23.316 23.8982C20.868 23.8982 18.836 25.9302 18.82 28.3782C18.82 30.8262 20.852 32.8422 23.316 32.8422C25.78 32.8422 27.812 30.8262 27.812 28.3782Z" fill="#0054A0"/>
</svg>
