<svg width="81" height="81" viewBox="0 0 81 81" fill="none" xmlns="http://www.w3.org/2000/svg">
<path fill-rule="evenodd" clip-rule="evenodd" d="M20.3874 10.458C19.8309 10.7654 19.5925 11.265 19.4953 12.3269L19.4057 13.307L13.102 13.3075C7.09102 13.3079 6.77793 13.3206 6.36066 13.5793C5.66106 14.0127 5.49932 14.489 5.5 16.1138C5.50055 17.7266 5.69961 18.2588 6.44939 18.6529L6.86448 18.871L6.89975 44.0852L6.93502 69.2996L7.38197 69.7538L7.82891 70.208L40.3317 70.2413C66.1599 70.2675 72.9038 70.2386 73.1722 70.1002C73.3579 70.0045 73.6502 69.7145 73.8216 69.456C74.1205 69.0053 74.1333 68.8705 74.1333 66.1841C74.1333 63.5565 74.116 63.3634 73.8546 63.0782C73.4798 62.6694 72.736 62.6694 72.3613 63.0782C72.103 63.3599 72.0825 63.559 72.0825 65.7878V68.1932H70.3757H68.669L68.6325 48.0697L68.5961 27.946L68.22 27.3684C68.0132 27.0508 67.6003 26.6646 67.3026 26.5102C66.7667 26.2323 66.5578 26.2295 46.4528 26.2295C26.3266 26.2295 26.1418 26.232 25.8709 26.5075C25.4637 26.9213 25.5062 27.6649 25.9577 28.0258L26.3179 28.3138H46.3828C64.5533 28.3138 66.4555 28.3345 66.5307 28.5337C66.5764 28.6545 66.6137 29.4674 66.6137 30.34V31.9266L65.2807 31.9272C63.6674 31.9277 63.1603 32.1585 62.9314 32.9963C62.8519 33.2868 62.7867 34.5407 62.7863 35.7825L62.7855 38.0405H62.307H61.8285V35.8195V33.5985L61.4295 33.1447L61.0306 32.6908H58.2054H55.3802L54.9812 33.1447L54.5822 33.5985V35.8195V38.0405H54.1721H53.7619V35.9493C53.7619 32.686 53.6903 32.6214 50.0705 32.6214C46.4561 32.6214 46.379 32.6924 46.379 36.0213V38.0405H45.9688H45.5587V35.8195V33.5985L45.1597 33.1447L44.7608 32.6908H41.9356H39.1104L38.7114 33.1447L38.3125 33.5985V35.8195V38.0405H37.8339H37.3554V35.6739C37.3554 32.0647 37.2458 31.9263 34.3886 31.9272C32.3207 31.9277 31.8662 32.1033 31.6223 32.9963C31.5323 33.3256 31.4777 35.5791 31.4772 38.9784L31.4764 44.4323H25.4502H19.4239L19.0243 44.8385L18.6247 45.2447V50.2576V55.2706H16.5055H14.3863V42.0121C14.3863 34.7198 14.4236 28.6545 14.4693 28.5337C14.5422 28.3407 15.0069 28.3138 18.279 28.3138C21.8422 28.3138 22.0216 28.3012 22.366 28.0258C22.8175 27.6649 22.86 26.9213 22.4528 26.5075C22.1917 26.2421 21.9987 26.2297 18.1803 26.2318C14.2944 26.234 14.1661 26.2429 13.6472 26.5444C12.9877 26.9278 12.6285 27.4058 12.4663 28.1161C12.3948 28.4296 12.3407 37.0623 12.3388 48.4272L12.3355 68.1932H10.6265H8.91748V43.5291V18.8651H14.1786H19.4398L19.5191 19.2472C19.6814 20.0291 19.9719 20.4912 20.4444 20.7191C20.8821 20.9302 22.5551 20.9493 40.5 20.9493C58.4449 20.9493 60.1179 20.9302 60.5556 20.7191C61.0281 20.4912 61.3186 20.0291 61.4809 19.2472L61.5602 18.8651H66.8214H72.0825V39.0564C72.0825 59.1844 72.0833 59.2489 72.3613 59.5519C72.736 59.9607 73.4798 59.9607 73.8546 59.5519C74.1325 59.2489 74.1333 59.1844 74.1333 39.06V18.8721L74.5495 18.6534C75.3005 18.2588 75.4995 17.7272 75.5 16.1138C75.5007 14.489 75.3389 14.0127 74.6393 13.5793C74.2221 13.3206 73.909 13.3079 67.8982 13.3075L61.5945 13.307L61.5119 12.4077C61.4664 11.9131 61.3335 11.3201 61.2164 11.09C60.8065 10.2845 60.6021 10.25 56.2297 10.25C52.4402 10.25 52.2454 10.2628 51.9846 10.5279C51.5774 10.9417 51.6199 11.6854 52.0714 12.0462C52.4143 12.3204 52.5982 12.3343 55.8996 12.3343H59.3675V15.5997V18.8651H40.5H21.6325V15.5997V12.3343H34.876C48.0671 12.3343 48.121 12.3332 48.4797 12.0462C48.9312 11.6854 48.9737 10.9417 48.5665 10.5279C48.2966 10.2536 48.1145 10.2501 34.5185 10.2556C22.9001 10.2603 20.6881 10.292 20.3874 10.458ZM26.4436 14.8409C26.0098 15.2516 26.0392 15.9818 26.5046 16.3538C26.8635 16.6408 26.9127 16.6418 40.5 16.6418C54.0873 16.6418 54.1365 16.6408 54.4954 16.3538C54.9608 15.9818 54.9902 15.2516 54.5564 14.8409C54.2595 14.5596 54.1558 14.5575 40.5 14.5575C26.8442 14.5575 26.7405 14.5596 26.4436 14.8409ZM19.445 16.086V16.7808H13.4976H7.55027V16.086V15.3912H13.4976H19.445V16.086ZM73.4497 16.086V16.7808H67.5024H61.555V16.086V15.3912H67.5024H73.4497V16.086ZM35.3046 51.1021V68.1932H34.4159H33.5272V51.1947C33.5272 41.8455 33.5683 34.1544 33.6184 34.1036C33.6685 34.0526 34.0684 34.0109 34.5071 34.0109H35.3046V51.1021ZM66.6137 51.1021V68.1932H65.725H64.8363V51.1021V34.0109H65.725H66.6137V51.1021ZM43.5079 36.3731V38.0405H41.9356H40.3633V36.3731V34.7057H41.9356H43.5079V36.3731ZM51.7111 36.3731V38.0405H50.0705H48.4298V36.4658C48.4298 35.5995 48.4708 34.8492 48.521 34.7983C48.571 34.7473 49.3093 34.7057 50.1617 34.7057H51.7111V36.3731ZM59.7776 36.3731V38.0405H58.2054H56.6331V36.3731V34.7057H58.2054H59.7776V36.3731ZM62.7855 44.9881V49.8515H62.307H61.8285V47.6305V45.4095L61.4295 44.9556L61.0306 44.5018H58.2054H55.3802L54.9812 44.9556L54.5822 45.4095V47.6305V49.8515H54.1721H53.7619V47.7603C53.7619 44.4717 53.7183 44.4323 50.0705 44.4323C46.4371 44.4323 46.379 44.4858 46.379 47.8322V49.8515H45.9688H45.5587V47.6305V45.4095L45.1597 44.9556L44.7608 44.5018H41.9356H39.1104L38.7114 44.9556L38.3125 45.4095V47.6305V49.8515H37.8339H37.3554V44.9881V40.1248H50.0705H62.7855V44.9881ZM23.5466 48.2513C23.5466 49.9717 23.5499 49.9899 23.9456 50.4398L24.3445 50.8936H26.4718H28.5991L28.9781 50.5087C29.3478 50.1334 29.3583 50.0788 29.4022 48.3202L29.4473 46.5166H30.4618H31.4764V50.8936V55.2706H26.0759H20.6755V50.8936V46.5166H22.111H23.5466V48.2513ZM27.3748 47.6977V48.8788H26.4861H25.5974V47.6977V46.5166H26.4861H27.3748V47.6977ZM43.5079 48.1841V49.8515H41.9356H40.3633V48.1841V46.5166H41.9356H43.5079V48.1841ZM51.7111 48.1841V49.8515H50.0705H48.4298V48.1841V46.5166H50.0705H51.7111V48.1841ZM59.7776 48.1841V49.8515H58.2054H56.6331V48.1841V46.5166H58.2054H59.7776V48.1841ZM62.7855 56.8079V61.6801L62.3412 61.6365L61.8968 61.593L61.8285 59.3376C61.7606 57.0983 61.7574 57.0797 61.381 56.6975L61.002 56.3128H58.2054H55.4087L55.0297 56.6975C54.6533 57.0797 54.6501 57.0983 54.5822 59.3376L54.5139 61.593L54.1379 61.6369L53.7619 61.6809V59.5805C53.7619 56.2812 53.72 56.2433 50.0705 56.2433C46.421 56.2433 46.379 56.2812 46.379 59.5805V61.6809L46.003 61.6369L45.627 61.593L45.5587 59.3376C45.4909 57.0983 45.4876 57.0797 45.1112 56.6975L44.7322 56.3128H41.9212H39.1104L38.7114 56.7666L38.3125 57.2204V59.4414V61.6625H37.8339H37.3554V56.7991V51.9358H50.0705H62.7855V56.8079ZM20.1529 59.335C20.1866 60.5483 20.2734 61.4355 20.3773 61.6263C20.715 62.2461 21.1875 62.3572 23.4851 62.3572H25.6248L26.0896 61.8848L26.5545 61.4123V59.3836V57.3549H29.0154H31.4764V62.7741V68.1932H22.9314H14.3863V62.7741V57.3549H17.2423H20.0982L20.1529 59.335ZM24.5037 58.8139V60.2729H23.4099H22.3161V58.8139V57.3549H23.4099H24.5037V58.8139ZM43.5079 59.995V61.6625H41.9356H40.3633V59.995V58.3276H41.9356H43.5079V59.995ZM51.7111 59.9995V61.6712L50.1046 61.6322L48.4982 61.593L48.4596 59.9603L48.4212 58.3276H50.0661H51.7111V59.9995ZM59.7776 59.995V61.6625H58.2054H56.6331V59.995V58.3276H58.2054H59.7776V59.995ZM62.7855 65.97V68.1932H50.0705H37.3554V65.97V63.7467H50.0705H62.7855V65.97Z" fill="#0054A0"/>
</svg>
