<svg width="81" height="81" viewBox="0 0 81 81" fill="none" xmlns="http://www.w3.org/2000/svg">
<path fill-rule="evenodd" clip-rule="evenodd" d="M16.737 7.93225C16.1892 8.10305 15.4419 8.59996 15.0171 9.07579C14.6308 9.50856 14.1688 10.5779 14.1653 11.0473C14.1637 11.2917 14.1202 11.5554 14.0688 11.6332C14.0128 11.718 13.3603 11.7993 12.4392 11.8364C11.1506 11.8882 10.7904 11.9497 10.2034 12.2181C9.35247 12.6072 8.63136 13.303 8.26991 14.0837L8 14.6665V40.2546V65.8428L8.26991 66.4256C8.63136 67.2063 9.35247 67.9021 10.2034 68.2912C10.7904 68.5596 11.1506 68.6211 12.4392 68.6729C13.3603 68.71 14.0128 68.7913 14.0688 68.8761C14.1202 68.9539 14.1637 69.2176 14.1653 69.462C14.1727 70.4845 15.1649 71.8465 16.3147 72.4123L16.8995 72.7002L39.5242 72.7334C64.5683 72.7701 62.8789 72.8245 64.0368 71.9416C64.4512 71.6254 64.7459 71.2447 65.044 70.6398L65.4654 69.7851V63.7076V57.6302L65.1086 57.3237C64.6789 56.9544 64.2627 56.9331 63.8585 57.2598L63.5583 57.5024L63.4948 63.514L63.4312 69.5255L63.1262 69.9526C62.5311 70.7861 64.156 70.7319 39.7754 70.7319C19.4097 70.7319 17.5371 70.7146 17.1317 70.5225C16.1853 70.0738 16.2711 72.2187 16.2003 47.2262C16.1396 25.8027 16.1263 24.7772 15.9066 24.5347C15.3676 23.9399 14.3943 24.1873 14.1755 24.9745C14.0827 25.3083 14.0401 31.8912 14.0397 46.0009L14.0389 66.5413L12.6087 66.5408C10.9628 66.5403 10.4715 66.35 10.1537 65.5901C9.87805 64.9312 9.87805 15.5781 10.1537 14.9192C10.4711 14.1602 10.9634 13.969 12.6016 13.9685L14.0248 13.968L14.0636 17.7254L14.1025 21.4827L14.4593 21.789C15.0634 22.3079 15.7916 22.1363 16.0682 21.4099C16.1514 21.191 16.2004 19.2016 16.2008 16.0233C16.2011 11.3168 16.217 10.958 16.44 10.5927C16.9767 9.71365 15.1514 9.7774 39.7754 9.7774C64.156 9.7774 62.5311 9.72317 63.1262 10.5567L63.4312 10.9838L63.4654 27.0106L63.4995 43.0375L59.2857 48.6622C56.968 51.7557 55.0274 54.3355 54.9731 54.3951C54.9188 54.4546 54.0988 53.4735 53.1509 52.2149C52.2028 50.9563 51.2388 49.783 51.0083 49.6075C50.1263 48.9355 48.8576 48.6819 47.7804 48.9621C45.4551 49.5671 44.2741 52.1448 45.3625 54.2401C45.8074 55.0967 52.1039 63.4223 52.5429 63.7346C52.7466 63.8795 53.1916 64.118 53.5318 64.2645C54.7008 64.7683 56.3913 64.4662 57.3787 63.577C57.852 63.1508 72.5313 43.5636 72.7257 43.0988C73.4163 41.448 72.759 39.3829 71.2456 38.4496C69.5284 37.3904 67.4642 37.8349 66.1358 39.5499L65.5925 40.2512L65.5289 25.4878L65.4654 10.7244L65.044 9.86946C64.7465 9.26602 64.4512 8.88378 64.0393 8.56974C62.8835 7.68831 64.5651 7.74469 39.729 7.75409C21.3749 7.76107 17.1817 7.79346 16.737 7.93225ZM24.2734 20.2169C23.6299 20.5854 23.5139 21.2847 24.0134 21.7835L24.3254 22.0953H39.7839H55.2425L55.5545 21.7835C55.7513 21.5871 55.8666 21.3268 55.8666 21.0794C55.8666 20.832 55.7513 20.5717 55.5545 20.3752L55.2425 20.0635L39.885 20.0673C28.5735 20.0702 24.4607 20.1096 24.2734 20.2169ZM31.731 25.7273C31.5712 25.839 31.3892 26.0656 31.3264 26.2304C31.1835 26.6059 31.3957 27.2603 31.7158 27.4315C31.8603 27.5087 34.9373 27.5558 39.845 27.5558H47.7415L48.0535 27.244C48.5384 26.7598 48.3943 25.9475 47.7735 25.6649C47.5573 25.5666 45.1305 25.524 39.7426 25.524C32.869 25.524 31.9898 25.5463 31.731 25.7273ZM24.0134 34.09C23.5054 34.5973 23.6338 35.3096 24.2968 35.6624C24.5018 35.7714 27.5007 35.81 35.7637 35.81H46.9529L47.2855 35.5243C47.725 35.1468 47.7512 34.5238 47.3459 34.0928L47.0499 33.7782H35.6876H24.3254L24.0134 34.09ZM52.9157 33.9513C52.5911 34.1978 52.4205 34.7422 52.5563 35.0988C52.7627 35.6414 53.1638 35.81 54.2479 35.81C55.1343 35.81 55.2765 35.7761 55.5545 35.4983C55.7513 35.3018 55.8666 35.0415 55.8666 34.7941C55.8666 34.5468 55.7513 34.2864 55.5545 34.09C55.2725 33.8082 55.1409 33.7786 54.1878 33.7823C53.5248 33.7848 53.0525 33.8476 52.9157 33.9513ZM24.0364 39.5735C23.8382 39.7716 23.7013 40.0498 23.7013 40.2546C23.7013 40.4595 23.8382 40.7377 24.0364 40.9358L24.3717 41.2706H35.6523C46.872 41.2706 46.9346 41.2692 47.2678 41.0073C47.741 40.6356 47.741 39.8737 47.2678 39.502C46.9346 39.2401 46.872 39.2387 35.6523 39.2387H24.3717L24.0364 39.5735ZM52.8648 39.5361C52.6175 39.7486 52.5188 39.9537 52.5188 40.2546C52.5188 40.5556 52.6175 40.7607 52.8648 40.9731C53.1654 41.2313 53.3449 41.2706 54.2267 41.2706C55.1357 41.2706 55.2753 41.2378 55.5545 40.9588C55.7513 40.7623 55.8666 40.502 55.8666 40.2546C55.8666 40.0073 55.7513 39.7469 55.5545 39.5505C55.2753 39.2715 55.1357 39.2387 54.2267 39.2387C53.3449 39.2387 53.1654 39.278 52.8648 39.5361ZM70.233 40.2385C70.4078 40.3621 70.6539 40.6591 70.7799 40.8986C71.2737 41.8368 71.4997 41.4871 63.5735 52.0444C59.5487 57.4051 56.1145 61.9237 55.9419 62.0856C55.524 62.4779 54.6493 62.5778 54.1032 62.2957C53.8224 62.1506 52.69 60.7444 50.4501 57.759C47.2603 53.5074 46.9671 53.0692 46.9671 52.5517C46.9671 52.1057 47.3759 51.4093 47.7833 51.1612C48.3455 50.8187 49.275 50.8412 49.6999 51.2074C49.8822 51.3646 50.9582 52.7217 52.0908 54.2234C54.303 57.1561 54.6062 57.4354 55.2421 57.1274C55.479 57.0127 57.64 54.2335 61.5984 48.9534C64.8971 44.5532 67.7459 40.789 67.9291 40.5884C68.592 39.8629 69.5054 39.7242 70.233 40.2385ZM24.4984 54.3127C24.1384 54.3821 23.7013 54.9306 23.7013 55.3128C23.7013 55.4741 23.8393 55.7664 24.0082 55.9624L24.315 56.3187H32.2524C40.8132 56.3187 40.4861 56.344 40.7457 55.662C40.8117 55.4887 40.7998 55.2183 40.7153 54.9764C40.4501 54.2168 40.5057 54.2216 32.2552 54.2407C28.1449 54.2502 24.6543 54.2826 24.4984 54.3127ZM24.0134 60.1226C23.6181 60.5173 23.6163 60.9679 24.0079 61.4229L24.3144 61.7792L27.2134 61.8179C28.8079 61.8391 30.2416 61.8242 30.3995 61.7847C31.1639 61.593 31.4599 60.6048 30.9081 60.087C30.6223 59.8189 30.5229 59.8109 27.4696 59.8109H24.3254L24.0134 60.1226Z" fill="#0054A0"/>
</svg>
