<svg width="81" height="81" viewBox="0 0 81 81" fill="none" xmlns="http://www.w3.org/2000/svg">
<path fill-rule="evenodd" clip-rule="evenodd" d="M39.0402 10.3339C36.4631 10.6631 33.767 12.1048 32.1931 13.9949C31.4169 14.9272 30.8099 15.9995 30.3953 17.171C30.0752 18.0757 30.0417 18.3313 30.0351 19.9277C30.029 21.4201 30.0714 21.8262 30.3147 22.6021C30.8661 24.3603 31.827 25.8095 33.2966 27.0993C34.4673 28.1266 35.6196 28.7695 37.1997 29.2766C38.3749 29.6537 38.459 29.6636 40.5 29.6636C42.5374 29.6636 42.6267 29.6531 43.7814 29.2808C46.5698 28.3817 48.673 26.6794 49.9996 24.2479C50.8696 22.6532 51.2554 20.1935 50.9172 18.3985C50.4032 15.6713 48.7369 13.3344 46.2441 11.845C44.3867 10.7353 43.5496 10.6766 43.2335 11.6341C43.1008 12.0364 43.4478 12.4293 44.2789 12.8176C46.0928 13.6649 47.3625 14.8456 48.2485 16.5087C49.5769 19.0022 49.3859 22.0406 47.7564 24.342C46.1084 26.6691 43.5208 27.9631 40.5149 27.9631C38.0263 27.9631 36.1889 27.2683 34.4706 25.6774C32.7453 24.0801 32.0221 22.6061 31.9028 20.4442C31.7883 18.3675 32.4257 16.5468 33.8368 14.9198C35.2822 13.2533 38.0358 12.0096 40.2803 12.0096C40.9896 12.0096 41.3885 11.6929 41.3885 11.1298C41.3885 10.5126 40.9982 10.2459 40.1269 10.2676C39.7388 10.2772 39.2497 10.307 39.0402 10.3339ZM58.0454 20.133C46.3168 30.9648 46.6866 30.5799 46.5132 32.14L46.4336 32.8563L45.2122 32.9258C43.2023 33.0401 41.7705 33.5774 40.538 34.6796L40.0046 35.1564L39.0147 34.7957C37.8934 34.3871 36.7973 34.1126 35.8669 34.0073C35.5178 33.9677 35.0596 33.9112 34.8485 33.8815L34.4649 33.8278L34.4626 32.743C34.4606 31.8171 34.4106 31.5586 34.1204 30.9776C33.9334 30.6032 33.6738 30.1717 33.5437 30.0188C33.4135 29.8658 28.5171 25.3817 22.6629 20.054C12.8754 11.1469 11.985 10.3673 11.5984 10.3673C10.9037 10.3673 10.485 10.9575 10.7414 11.575C10.7805 11.669 14.8347 15.4018 19.7508 19.87L28.6893 27.994L26.3757 30.2038C25.103 31.4192 22.1626 34.2049 19.8413 36.3944C16.2457 39.786 15.6208 40.4261 15.6208 40.7179C15.6208 41.1653 16.0871 41.5705 16.602 41.5705C16.9543 41.5705 17.6795 40.9254 23.5118 35.423L30.0279 29.2757L31.1431 30.2909C32.0911 31.1539 32.2885 31.401 32.4579 31.937C32.6767 32.6289 32.6233 33.2661 32.2957 33.87C32.0133 34.3908 21.0103 44.5695 20.3173 44.9512C19.6045 45.3437 18.3623 45.3865 17.6517 45.043C17.4074 44.9248 15.4338 43.1978 13.2659 41.2051C8.9945 37.2789 8.97216 37.2639 8.31629 37.8701C7.65813 38.4783 7.6754 38.5 11.9079 42.4216C14.0548 44.4106 16.0701 46.1923 16.3866 46.3809C17.2022 46.867 18.4047 47.1292 19.3905 47.0358C20.2859 46.951 20.2289 46.8905 20.3731 48.081L20.444 48.6675L19.8879 48.9921C19.582 49.1708 18.7036 49.916 17.9358 50.6483C16.8077 51.7246 16.4884 52.1075 16.2708 52.6449C15.2983 55.0467 16.9929 57.6193 19.6965 57.846L20.4119 57.9059L20.4768 58.567C20.6565 60.3977 22.4318 61.9817 24.3041 61.9817H24.8543L24.9393 62.6764C25.0455 63.5444 25.6343 64.6581 26.2517 65.159C26.8765 65.666 27.8412 66.0525 28.7268 66.1507L29.4567 66.2317V66.7448C29.4567 67.9512 30.3326 69.198 31.6356 69.8459C32.3679 70.21 32.5358 70.2459 33.5186 70.2483C34.9397 70.252 35.5248 70.0006 36.8322 68.8249L37.8344 67.9236L38.8365 68.8249C40.1211 69.9802 40.7318 70.2476 42.0894 70.25C42.9865 70.2515 43.2084 70.2057 43.9571 69.8652C45.2672 69.2692 46.0483 68.2323 46.1773 66.9185L46.2451 66.2279L46.9584 66.1488C48.9874 65.9241 50.4775 64.5386 50.715 62.6562L50.8 61.9817H51.3607C53.222 61.9817 54.9771 60.4091 55.1841 58.5559L55.2566 57.9063L55.9986 57.8346C56.9886 57.739 57.8269 57.3589 58.5468 56.6793C59.3685 55.9035 59.7038 55.0507 59.6446 53.8876C59.5873 52.7651 59.248 52.1059 58.2028 51.0862L57.4171 50.3199L58.4078 49.4586C58.9527 48.985 59.6948 48.228 60.0571 47.7764L60.7157 46.9555L61.5622 47.0325C62.6046 47.1274 63.783 46.8758 64.6134 46.3809C64.9299 46.1923 66.9452 44.4106 69.0921 42.4216C73.3246 38.5 73.3419 38.4783 72.6837 37.8701C72.077 37.3093 71.8582 37.4202 69.7238 39.3711L67.7668 41.16L65.3353 38.8569C63.9981 37.5903 60.68 34.4594 57.9618 31.8993L53.0195 27.2447L61.5477 19.3629C69.252 12.2424 70.0758 11.4451 70.0758 11.1087C70.0758 10.6682 69.5892 10.25 69.0767 10.25C68.8084 10.25 66.742 12.1013 58.0454 20.133ZM41.5613 19.6564L38.9793 22.0244L37.9146 21.064C37.0419 20.2769 36.7784 20.1037 36.4536 20.1037C35.933 20.1037 35.5495 20.4653 35.5495 20.9563C35.5495 21.2855 35.7246 21.5004 36.7872 22.4753C38.4299 23.9826 38.9457 24.1502 39.9991 23.5196C40.3095 23.3338 41.6631 22.1563 43.007 20.9027C45.2759 18.7864 45.4505 18.5933 45.4505 18.1991C45.4505 17.8802 45.3672 17.7141 45.116 17.5315C44.4486 17.0463 44.3295 17.1175 41.5613 19.6564ZM54.0393 30.7076C55.2845 31.8945 58.584 35.0118 61.3715 37.6348L66.4397 42.4042L65.243 43.5206C63.6788 44.98 63.1608 45.2657 62.0789 45.2657C61.4106 45.2657 61.1453 45.206 60.6826 44.9512C60.3685 44.7781 57.5867 42.2971 54.5008 39.4378C48.5421 33.9164 48.3755 33.732 48.3755 32.6553C48.3755 31.7847 48.7737 31.1792 50.2458 29.8107C50.9921 29.1172 51.6413 28.5496 51.6888 28.5496C51.7363 28.5496 52.794 29.5207 54.0393 30.7076ZM47.1104 34.9135C47.1906 35.0587 49.9079 37.6347 53.1491 40.6382L59.042 46.0989L58.4131 46.8667C57.7908 47.6263 56.2896 48.9593 56.0551 48.9603C55.9883 48.9606 53.932 47.1183 51.4855 44.8662C47.1802 40.9036 47.0139 40.7656 46.3141 40.5781C45.5396 40.3708 44.9164 40.4134 44.2446 40.7198C44.0351 40.8153 42.6928 41.9626 41.2616 43.2694C39.8304 44.576 38.4767 45.7313 38.2533 45.8366C37.0722 46.3934 35.7107 46.3211 34.6321 45.6443C33.9493 45.216 33.6719 44.7459 33.8473 44.3142C33.9108 44.1578 35.7946 42.1436 38.0334 39.8382C41.3837 36.3881 42.2259 35.5854 42.7935 35.3007C43.7085 34.8416 44.5213 34.6716 45.8586 34.6595C46.8834 34.6502 46.9755 34.669 47.1104 34.9135ZM36.4381 35.8867C37.304 36.0731 38.3355 36.3926 38.506 36.5271C38.5612 36.5706 37.2293 38.0269 35.5461 39.763C33.8631 41.4991 32.3635 43.1307 32.2137 43.3888C31.7972 44.1062 31.8259 45.2163 32.2793 45.929C33.1563 47.3078 35.4267 48.1969 37.3426 47.9117C38.9633 47.6706 39.5359 47.3047 42.3959 44.6834C44.0778 43.142 45.133 42.2621 45.3627 42.2096C45.699 42.1328 46.0435 42.4256 51.3922 47.3334C54.5122 50.1963 57.222 52.7445 57.4141 52.9961C58.3615 54.2381 57.2843 56.1164 55.6245 56.1164C54.744 56.1164 54.3289 55.8067 50.5864 52.3577C46.5884 48.6734 46.5436 48.6437 45.889 49.2488C45.2343 49.8537 45.2664 49.8951 49.2532 53.5898C52.9853 57.0484 53.3204 57.432 53.3204 58.2458C53.3204 59.6639 51.4971 60.6787 50.109 60.0333C49.8856 59.9293 48.064 58.3369 46.061 56.4945C42.8875 53.5752 42.3696 53.1447 42.0325 53.1447C41.4907 53.1447 41.1347 53.4788 41.1347 53.9874C41.1347 54.375 41.3841 54.6344 44.8681 57.8697C48.0825 60.8544 48.6212 61.4051 48.7429 61.8297C49.1688 63.3148 47.6546 64.7141 46.0476 64.3205C45.5881 64.208 44.9915 63.7094 41.7539 60.7317C38.0386 57.3148 37.988 57.274 37.5141 57.3108C36.8957 57.3589 36.4891 57.8116 36.6205 58.3057C36.6796 58.5282 37.9208 59.7653 40.3675 62.0403C42.3795 63.9114 44.0893 65.5575 44.167 65.6984C44.2446 65.8394 44.308 66.2016 44.308 66.5036C44.308 67.8833 42.8525 68.859 41.4351 68.4293C41.1358 68.3385 40.5896 67.9632 40.0357 67.4677L39.1269 66.6551L39.3997 66.1073C39.8257 65.2516 39.7902 63.7822 39.322 62.9012C38.6943 61.7199 37.4773 60.9384 36.1073 60.8367L35.3247 60.7787L35.2416 60.0989C35.1374 59.2477 34.5435 58.1282 33.9335 57.6333C33.2954 57.1155 32.3227 56.7223 31.4559 56.6316L30.726 56.5554V56.047C30.726 54.3167 29.0591 52.7147 27.0575 52.5214L26.3155 52.4497L26.2481 51.7626C26.0839 50.0886 24.6517 48.6807 22.8218 48.3946L22.2848 48.3106L22.1697 47.159L22.0546 46.0074L27.6914 40.7873L33.3282 35.5673L34.4706 35.6382C35.0989 35.6771 35.9843 35.789 36.4381 35.8867ZM23.3087 50.4255C24.2698 50.9459 24.6222 52.0431 24.1383 53.0078C23.8041 53.6739 21.4044 55.8085 20.7785 55.9963C19.7808 56.2958 18.5353 55.841 18.1158 55.0241C17.8472 54.5009 17.8464 53.6306 18.1141 53.1486C18.3991 52.6357 20.2526 50.8817 20.9452 50.4697C21.6914 50.0256 22.541 50.0097 23.3087 50.4255ZM27.6914 54.5123C28.7008 55.0044 29.1339 56.2704 28.6134 57.2074C28.3285 57.7202 26.475 59.4743 25.7824 59.8863C24.6715 60.5474 23.2412 60.2242 22.6434 59.1773C22.0263 58.0962 22.3001 57.4083 23.9718 55.8398C25.6976 54.2206 26.5034 53.9331 27.6914 54.5123ZM32.3321 58.7083C32.8305 58.9929 33.2122 59.5388 33.3326 60.1392C33.4908 60.9275 33.1573 61.4507 31.5812 62.8868C30.4248 63.9405 30.0487 64.2128 29.5943 64.3256C27.7489 64.7833 26.2192 62.9755 27.1147 61.3952C27.4275 60.8432 29.8936 58.6926 30.4182 58.5143C31.0218 58.3091 31.7652 58.3845 32.3321 58.7083ZM36.9343 62.9125C37.7569 63.4539 38.0601 64.6358 37.5919 65.4762C37.2194 66.1447 34.8216 68.2542 34.2336 68.4307C32.8142 68.8567 31.3607 67.8826 31.3607 66.5055C31.3607 66.2046 31.4545 65.7895 31.5692 65.583C31.8531 65.0721 33.7038 63.3194 34.4071 62.8955C34.9104 62.592 35.0695 62.5561 35.7454 62.593C36.2967 62.6231 36.631 62.713 36.9343 62.9125Z" fill="#0054A0"/>
</svg>
