<svg width="81" height="81" viewBox="0 0 81 81" fill="none" xmlns="http://www.w3.org/2000/svg">
<path fill-rule="evenodd" clip-rule="evenodd" d="M30.4707 7.83823C29.0448 8.0288 27.7008 8.33624 26.3012 8.7922C24.8415 9.26773 20.8157 11.2043 19.0091 12.2999C16.5792 13.7736 15.1129 15.8191 14.6544 18.3754C14.3972 19.8089 14.409 26.1992 14.6706 27.21C15.1153 28.928 16.5283 30.1993 18.2361 30.4181L18.938 30.508L19.1716 31.1727C19.3001 31.5383 19.5268 32.0083 19.6754 32.217L19.9454 32.5966L14.279 32.6322L8.61255 32.6678L8.30634 33.0242C8.00457 33.3753 8 33.4191 8 35.9202C8 38.4472 8.00152 38.4613 8.31167 38.7716C8.5737 39.0339 8.74509 39.0835 9.39077 39.0835H10.1582V55.0192C10.1582 65.9696 10.2005 71.0667 10.2933 71.3125C10.477 71.7992 11.0248 72.3635 11.5189 72.5751C11.7889 72.6907 12.4363 72.75 13.428 72.75C15.2351 72.75 15.8729 72.5138 16.3445 71.6701C16.5969 71.2187 16.6289 70.9809 16.6308 69.5422C16.6321 68.4972 16.6802 67.9223 16.7661 67.9223C16.8394 67.9223 17.0652 68.0082 17.268 68.113C17.4707 68.218 17.9294 68.3467 18.2873 68.3989C18.9354 68.4937 18.9388 68.4967 19.1747 69.1676C19.6584 70.5431 20.9157 71.8344 22.302 72.3792C23.3549 72.7928 25.1451 72.7928 26.198 72.3792C27.5842 71.8344 28.8414 70.5435 29.3256 69.1676L29.5626 68.494H39.4289H49.2952L49.4531 69.0294C50.1641 71.4387 52.8887 73.0935 55.428 72.6583C57.187 72.3568 58.6116 71.3105 59.3388 69.7863C59.5779 69.2851 59.8055 68.7751 59.8447 68.6528C59.9071 68.4582 60.1018 68.4299 61.4116 68.4249C62.4315 68.4211 63.0687 68.3579 63.415 68.226C64.4587 67.8287 64.3669 67.7036 64.3692 69.5273C64.3711 70.9814 64.4027 71.2181 64.6555 71.6701C65.1271 72.5138 65.7649 72.75 67.572 72.75C68.5637 72.75 69.2111 72.6907 69.4811 72.5751C69.9752 72.3635 70.523 71.7992 70.7067 71.3125C70.7995 71.0667 70.8418 65.9696 70.8418 55.0192V39.0835H71.6092C72.2549 39.0835 72.4263 39.0339 72.6883 38.7716C72.9985 38.4613 73 38.4472 73 35.9202C73 33.419 72.9954 33.3753 72.6937 33.0242L72.3873 32.6678L65.6414 32.6327L58.8955 32.5978L59.166 32.2175C59.3148 32.0085 59.5416 31.5383 59.6701 31.1727L59.9035 30.508L61.6593 30.4395C63.2374 30.378 63.4793 30.3373 64.0498 30.0362C65.2541 29.4008 66.0023 28.4732 66.3294 27.21C66.599 26.1683 66.6005 22.867 66.3317 21.9613C66.0591 21.0426 65.4515 20.304 64.6211 19.8821C64.2371 19.6868 62.7245 19.1477 61.2599 18.6838C56.1545 17.0668 56.6149 17.3252 52.3066 13.6576C50.2468 11.9041 48.2188 10.2125 47.7998 9.8985C46.794 9.14462 45.586 8.54561 44.2182 8.12243L43.1025 7.77725L37.1992 7.75273C33.9524 7.73914 30.9246 7.77763 30.4707 7.83823ZM43.822 10.2631C44.3572 10.444 45.157 10.7964 45.5993 11.0463C46.0415 11.2962 48.2029 13.0259 50.4023 14.8903C52.6018 16.7545 54.5728 18.4098 54.7822 18.5687C55.2572 18.929 57.878 19.9088 60.876 20.8466C63.6504 21.7147 63.9847 21.8717 64.2014 22.409L64.368 22.8219H63.2844C61.5633 22.8219 60.877 23.2928 61.1553 24.2829C61.3209 24.872 61.9222 25.1083 63.2563 25.1084L64.3672 25.1087V25.725C64.3672 26.5124 64.1657 27.1104 63.7469 27.5656C63.174 28.1885 62.8491 28.2848 61.3226 28.2848C60.0957 28.2848 59.9064 28.2563 59.8417 28.0624C59.1035 25.8495 57.5244 24.4164 55.428 24.057C52.9121 23.6257 50.1581 25.2968 49.4544 27.6818L49.2952 28.2212H39.4289H29.5626L29.3314 27.5643C28.281 24.5797 24.7563 23.1336 21.9183 24.5231C20.6307 25.1535 19.5793 26.3363 19.1365 27.6526C18.9974 28.0657 18.8687 28.2328 18.6656 28.2634C18.0181 28.3611 17.0521 27.599 16.7768 26.7731C16.5565 26.1124 16.588 19.6875 16.8168 18.6073C17.203 16.7843 18.3473 15.2351 20.0787 14.1918C21.5342 13.3148 24.6989 11.7174 26.0018 11.202C27.4185 10.6416 29.2509 10.1619 30.578 10.0041C31.1125 9.94055 34.092 9.89875 37.1992 9.91133L42.8486 9.93407L43.822 10.2631ZM30.8052 12.1637C29.6064 12.3227 28.074 12.7271 26.7891 13.2236C24.6484 14.0505 20.9374 16.0629 20.145 16.8264C19.3554 17.5872 19.0124 18.447 19.2507 19.0684C19.4777 19.6601 19.0852 19.6458 35.0444 19.6458H50.041L50.4121 19.2744C50.8057 18.8805 50.8726 18.4841 50.6201 18.0417C50.4545 17.7517 45.5732 13.59 44.7883 13.0698C44.5286 12.8975 43.9287 12.6067 43.4553 12.4235L42.5947 12.0905L37.1357 12.0693C34.1333 12.0576 31.2846 12.1 30.8052 12.1637ZM32.8828 15.8345V17.486H28.0332C25.1271 17.486 23.232 17.4398 23.3042 17.3708C23.5335 17.1518 25.8414 15.9797 27.0698 15.4586C28.8155 14.7179 30.7808 14.2541 32.4067 14.199L32.8828 14.1829V15.8345ZM42.3459 14.3791C42.7621 14.4869 43.3311 14.7253 43.6104 14.9085C44.259 15.3343 46.5722 17.2649 46.5845 17.3908C46.5896 17.4431 43.9944 17.486 40.8174 17.486H35.041V15.8345V14.1829H38.3151C40.8555 14.1829 41.7587 14.2269 42.3459 14.3791ZM34.3371 22.1174C34.1464 22.3081 34.0254 22.5753 34.0254 22.8057C34.0254 23.8605 34.324 23.9653 37.3296 23.9653H39.7578L40.1289 23.5939C40.5258 23.1968 40.5843 22.892 40.3591 22.3972C40.1198 21.8716 39.7585 21.8055 37.1239 21.8055C34.6651 21.8055 34.6466 21.8076 34.3371 22.1174ZM25.2917 26.3224C26.5952 26.767 27.454 27.9731 27.4577 29.3646C27.4604 30.38 27.1495 31.0873 26.4069 31.7555C25.1239 32.9098 23.3761 32.9098 22.0931 31.7555C21.3505 31.0873 21.0396 30.38 21.0423 29.3646C21.0482 27.1405 23.1912 25.6063 25.2917 26.3224ZM55.6334 26.3224C56.9362 26.7667 57.7894 28.0009 57.7825 29.4317C57.7806 29.836 57.6975 30.3619 57.5978 30.6006C57.1296 31.722 55.8448 32.6007 54.67 32.603C53.6807 32.605 53.07 32.3552 52.3493 31.6541C51.8302 31.1489 51.6489 30.8606 51.4783 30.2684C50.7572 27.7649 53.1631 25.4801 55.6334 26.3224ZM23.7687 28.4176C23.4214 28.5571 23.1234 29.2004 23.2059 29.6323C23.2827 30.0344 23.81 30.4445 24.25 30.4445C24.69 30.4445 25.2173 30.0344 25.2941 29.6323C25.3805 29.1796 25.073 28.5559 24.6918 28.4108C24.2986 28.2612 24.1555 28.2623 23.7687 28.4176ZM54.1101 28.4131C53.7177 28.5771 53.4132 29.3167 53.5689 29.7268C53.9825 30.8155 55.6074 30.5812 55.6074 29.433C55.6074 29.1579 55.5113 28.8323 55.3853 28.6804C55.1247 28.3663 54.5232 28.2403 54.1101 28.4131ZM49.391 30.9209C49.4741 31.183 49.6785 31.6475 49.8453 31.9533C50.012 32.2591 50.1484 32.5305 50.1484 32.5567C50.1484 32.5829 45.2885 32.6042 39.3488 32.6042H28.5491L28.8029 32.2475C29.0264 31.9334 29.2723 31.3776 29.5022 30.6668C29.5698 30.4576 30.1543 30.4445 39.4071 30.4445H49.2401L49.391 30.9209ZM70.8418 35.8438V36.9237H40.5H10.1582V35.8438V34.764H40.5H70.8418V35.8438ZM14.4746 54.8369V70.5903H13.3955H12.3164V54.9216C12.3164 46.3037 12.3545 39.2147 12.4011 39.1682C12.4475 39.1216 12.9331 39.0835 13.4802 39.0835H14.4746V54.8369ZM64.3363 48.3894C64.3542 53.4727 64.3447 57.6318 64.3153 57.6318C64.2345 57.6318 57.5409 55.3941 56.8316 55.1299C56.3783 54.9611 55.1861 54.0294 52.3248 51.6074C46.9726 47.0769 46.6854 46.8771 44.4355 46.1175L43.3564 45.7532H36.6914H30.0264L28.5029 46.1143C26.769 46.5254 25.1104 47.1113 23.3613 47.931C21.2026 48.9425 18.3948 50.5632 17.504 51.3117L16.6328 52.0437V45.6483C16.6328 42.1307 16.671 39.2146 16.7177 39.1678C16.7645 39.1211 27.4905 39.0972 40.5532 39.1148L64.3037 39.147L64.3363 48.3894ZM68.6524 54.8686L68.6846 70.5903H67.605H66.5254V54.8318V39.0732L67.5728 39.1101L68.6201 39.147L68.6524 54.8686ZM44.0421 48.2855C44.6288 48.4904 45.5143 48.9268 46.0099 49.2552C46.5056 49.5837 48.7302 51.3998 50.9537 53.2912C55.5923 57.2371 54.8306 56.8021 60.1143 58.5228C61.8599 59.0913 63.4309 59.6247 63.6055 59.7083C63.78 59.7919 64.0229 60.0591 64.1451 60.3023L64.3674 60.7444L63.0228 60.8079C61.7427 60.8684 61.6636 60.8886 61.3724 61.2279C61.0353 61.6206 60.9896 61.9508 61.2141 62.3726C61.4885 62.8882 61.7136 62.9594 63.0829 62.9636L64.4013 62.9676L64.3399 63.8262C64.2669 64.8484 64.0228 65.3707 63.3938 65.8513C62.9541 66.1874 62.8441 66.2097 61.4261 66.2497C60.0603 66.2882 59.9171 66.2709 59.8484 66.0591C59.2752 64.2935 58.4034 63.2342 56.9192 62.5001C56.1166 62.1031 55.8128 62.0236 54.9215 61.9767C53.1607 61.8842 51.8712 62.3927 50.686 63.6468C50.0362 64.3344 49.6682 64.9462 49.3938 65.7951L49.2396 66.2723L39.3931 66.2398L29.5466 66.2073L29.3886 65.6719C28.8941 63.9958 27.3039 62.5297 25.4837 62.0719C22.9038 61.4228 19.8688 63.1367 19.1089 65.6719C18.9576 66.1765 18.9222 66.2065 18.492 66.193C17.9498 66.1761 17.2404 65.6786 16.9183 65.089C16.5975 64.5021 16.5189 58.0368 16.8152 56.6096C17.2342 54.5912 18.3344 53.129 20.278 52.0071C24.4087 49.6229 27.4266 48.4085 30.2607 47.9904C30.6905 47.927 33.7271 47.8836 37.0088 47.8941L42.9756 47.913L44.0421 48.2855ZM30.1533 50.2109C27.9959 50.5909 25.8761 51.4082 23.0561 52.9472C20.6957 54.2354 20.1042 54.6549 19.6073 55.3934C19.059 56.2082 19.024 56.8133 19.4994 57.2603L19.8271 57.5683L34.7655 57.6009C48.8016 57.6317 49.7309 57.6201 50.147 57.4104C50.6354 57.1643 50.8636 56.6991 50.7392 56.2031C50.6351 55.7882 45.2336 51.2128 44.2873 50.7381C42.8919 50.0379 42.5747 50.0082 36.633 50.0206C32.5432 50.0291 30.9135 50.077 30.1533 50.2109ZM32.8828 53.757V55.345H28.1221C25.5037 55.345 23.3613 55.3211 23.3613 55.2919C23.3613 55.188 25.6036 54.0432 26.876 53.4976C28.8711 52.6421 30.6243 52.2044 32.1528 52.1804L32.8828 52.1689V53.757ZM43.0497 52.5652C43.618 52.8319 45.3876 54.1846 46.4622 55.1739C46.6184 55.3176 45.7175 55.345 40.8446 55.345H35.041V53.7515V52.1579L38.6909 52.1952C42.327 52.2323 42.3435 52.2337 43.0497 52.5652ZM34.3371 60.1034C33.9335 60.5072 33.9314 61.0656 34.3317 61.5313L34.6382 61.8878H37.2627H39.8872L40.1937 61.5313C40.5939 61.0656 40.5919 60.5072 40.1883 60.1034C39.8777 59.7924 39.8689 59.7916 37.2627 59.7916C34.6565 59.7916 34.6477 59.7924 34.3371 60.1034ZM25.2956 64.2621C25.9675 64.4636 26.9616 65.3775 27.2372 66.0474C27.7525 67.3 27.3821 68.9008 26.3777 69.761C24.2579 71.5769 21.0498 70.1276 21.0423 67.3507C21.0411 66.9101 21.1342 66.3601 21.2628 66.0474C21.5223 65.417 22.521 64.467 23.1294 64.2723C23.7115 64.0859 24.6924 64.0812 25.2956 64.2621ZM55.9257 64.4097C56.6242 64.7352 57.3166 65.4413 57.5978 66.1146C57.8746 66.7777 57.8332 67.9088 57.5038 68.6747C56.8665 70.1573 55.0911 70.9346 53.5691 70.3972C51.8877 69.8035 50.9965 68.1198 51.4783 66.4469C51.6489 65.8548 51.8304 65.5658 52.3503 65.0593C52.7114 64.7074 53.2064 64.356 53.4502 64.2782C54.2264 64.0309 55.2268 64.0841 55.9257 64.4097ZM23.5513 66.5566C22.94 67.0828 23.1971 68.1914 23.9697 68.3612C24.4957 68.4768 24.9974 68.2398 25.1882 67.7855C25.4046 67.2706 25.3101 66.8324 24.9157 66.5219C24.4944 66.1904 23.9611 66.2038 23.5513 66.5566ZM53.9772 66.4742C53.5366 66.783 53.418 67.2204 53.6343 67.7386C54.0901 68.8303 55.6074 68.4902 55.6074 67.2964C55.6074 66.4462 54.6826 65.9797 53.9772 66.4742Z" fill="#0054A0"/>
</svg>
