<svg width="81" height="81" viewBox="0 0 81 81" fill="none" xmlns="http://www.w3.org/2000/svg">
<path fill-rule="evenodd" clip-rule="evenodd" d="M37.5907 7.88175C31.475 8.42753 25.5282 10.7947 20.4461 14.7062C18.8441 15.9392 15.8354 19.0168 14.5899 20.6965C13.062 22.7573 12.4298 23.789 11.3622 25.964C10.2472 28.2358 9.68632 29.7248 9.08573 32.0076C6.37159 42.3247 8.93955 53.4022 15.9162 61.4717L16.5472 62.2015H23.8318H31.1166L31.0836 55.9504L31.0507 49.6992L30.0029 49.6624L28.9551 49.6255V54.8982V60.1707H23.2514H17.5475L16.6564 59.0539C12.4899 53.8321 10.1674 47.1499 10.1627 40.3701C10.1604 37.1539 10.465 34.8364 11.2591 32.0247L11.5907 30.8506H16.0818H20.5731V29.7718V28.6929H16.5091C14.2738 28.6929 12.445 28.6436 12.445 28.5835C12.445 28.5234 12.8423 27.6809 13.3277 26.7113C15.7582 21.8574 19.2971 17.862 23.8089 14.8783C24.9683 14.1116 28.563 12.1924 28.8396 12.1924C28.9066 12.1924 28.9551 13.9001 28.9551 16.2541V20.3157H30.0347H31.1142V15.8271V11.3386L32.2889 11.0072C36.0868 9.93568 36.4999 9.90991 49.8785 9.90877L61.4674 9.90775V8.82888V7.75L50.069 7.76764C43.7999 7.77742 38.1847 7.82882 37.5907 7.88175ZM66.6735 8.82976L65.9828 9.52888L67.1833 10.7337L68.3838 11.9386H64.9205H61.4571L61.494 12.9857L61.5309 14.0329L64.9309 14.0963L68.3311 14.1598L67.1857 15.299L66.0404 16.4381L66.7676 17.1725L67.4947 17.9069L69.9422 15.4635L72.3895 13.0199L69.946 10.5753C68.6019 9.23085 67.4713 8.13078 67.4332 8.13078C67.3953 8.13078 67.0534 8.4453 66.6735 8.82976ZM39.4962 19.3003V20.3157H44.7033H49.9103V24.5043V28.6929H39.4327H28.9551V33.9603V39.2278H23.7481H18.5411V45.5107V51.7935H19.5571H20.5731V46.5261V41.2586H25.8436H31.1142V36.0546V30.8506H41.5917H52.0693V25.5832V20.3157H57.7731H63.4769L64.3572 21.4263C65.7144 23.1388 66.513 24.3949 67.5902 26.5113C68.1343 27.5802 68.5794 28.5083 68.5794 28.5738C68.5794 28.6454 66.9604 28.6929 64.5154 28.6929H60.4514V33.9603V39.2278H52.0693H43.6873V40.2432V41.2586H46.7988H49.9103V46.5261V51.7935H56.1968H62.4834V50.7147V49.6358H57.2763H52.0693V45.4472V41.2586H57.2763H62.4834V36.0546V30.8506H65.9586H69.4338L69.7654 32.0247C70.5488 34.7987 70.863 37.1491 70.8644 40.248C70.8667 45.1702 69.9689 49.067 67.8097 53.507C65.3114 58.6443 61.552 62.8519 56.7048 65.9353C55.6485 66.6073 52.4069 68.294 52.1718 68.294C52.1154 68.294 52.0693 66.4662 52.0693 64.2323V60.1707H49.9738H47.8783V61.1861V62.2015H48.8943H49.9103V65.6747V69.1478L48.7355 69.4792C44.9185 70.5561 44.5824 70.5765 30.6379 70.5777L18.5411 70.5787V71.6643V72.75L31.1459 72.7033C43.4363 72.6579 43.7919 72.6497 45.4018 72.3773C48.9194 71.7822 51.7096 70.8912 54.7998 69.3762C58.2219 67.6984 60.6476 65.954 63.4429 63.1604C66.238 60.3668 67.9835 57.9425 69.6622 54.5225C70.7773 52.2506 71.3381 50.7616 71.9387 48.4788C74.6529 38.1617 72.0849 27.0842 65.1082 19.0147L64.4773 18.2849H51.9868H39.4962V19.3003ZM39.4962 40.2432V41.2586H40.5122H41.5282V40.2432V39.2278H40.5122H39.4962V40.2432ZM39.4962 55.9186V62.2015H42.6077H45.7193V61.1861V60.1707H43.6238H41.5282V54.9032V49.6358H40.5122H39.4962V55.9186ZM13.2345 63.2526C12.8701 63.6213 12.572 63.9772 12.572 64.0435C12.572 64.1096 13.0709 64.6648 13.6806 65.2769L14.7892 66.3901H11.3946H8V67.469V68.5478H11.4582H14.9165L13.7145 69.7542L12.5125 70.9606L13.2408 71.6885L13.9692 72.4166L16.4457 69.9439L18.9221 67.4714L16.4786 65.0268C15.1345 63.6824 14.004 62.5823 13.9659 62.5823C13.9279 62.5823 13.5988 62.884 13.2345 63.2526Z" fill="#0054A0"/>
</svg>
