<svg width="81" height="81" viewBox="0 0 81 81" fill="none" xmlns="http://www.w3.org/2000/svg">
<path fill-rule="evenodd" clip-rule="evenodd" d="M58.2739 19.7105L58.6452 20.1708V33.2158V46.2606H59.25H59.8548V37.7176V29.1743L60.2261 28.714L60.5971 28.2535H65.9445C71.881 28.2535 72.3121 28.3211 73.4909 29.4366C73.846 29.7725 74.327 30.3836 74.56 30.7948C74.7928 31.2058 75.6615 33.7776 76.4903 36.5098L77.9973 41.4775L77.9986 47.9103L78 54.3433L77.6288 54.8036L77.2577 55.2641H73.7661C70.3104 55.2641 70.2709 55.2596 69.9219 54.8267L69.5693 54.3893L69.4961 55.6239C69.21 60.4492 64.8404 62.9061 61.7424 59.9833C60.8752 59.1653 60.0718 57.4779 59.9268 56.1695L59.8264 55.2641H58.6309H57.4355V54.5138V53.7635H56.8306H56.2258V54.5138V55.2641H55.0367H53.8476L53.7552 56.1003C53.3616 59.6618 50.3221 62.0659 47.5703 60.9921C45.8584 60.3243 44.436 58.288 44.201 56.1695L44.1006 55.2641H42.9051H41.7097V54.5138V53.7635H32.0323H22.3548V54.5138V55.2641H21.1657H19.9766L19.8842 56.1003C19.4906 59.6618 16.4512 62.0659 13.6993 60.9921C11.9874 60.3243 10.565 58.288 10.33 56.1695L10.2296 55.2641H9.03417H7.83871V54.5138V53.7635H5.79057C3.81744 53.7635 3.72868 53.7467 3.37122 53.303C3.00983 52.8549 3 52.7673 3 50.0121C3 47.2568 3.00983 47.1692 3.37122 46.7211C3.57535 46.4679 3.84753 46.2606 3.97605 46.2606C4.18457 46.2606 4.20968 44.8566 4.20968 33.2158V20.1708L4.58089 19.7105L4.95197 19.25L31.4274 19.25L57.9029 19.25L58.2739 19.7105ZM6.62903 34.2559V46.2606H31.4274L56.2258 46.2606V34.2559V22.2512L31.4274 22.2512H6.62903V34.2559ZM53.8064 25.2524V26.7529H51.9919H50.1774V25.2524V23.7518H51.9919H53.8064V25.2524ZM12.6774 25.2524V26.7529H10.8629H9.04839V25.2524V23.7518H10.8629H12.6774V25.2524ZM65.9032 34.3999V37.545L70.3037 38.6324C72.7241 39.2303 74.7337 39.6831 74.7699 39.6385C74.8418 39.549 73.1306 33.7744 72.7949 32.9738C72.5288 32.3394 71.984 31.7058 71.4978 31.4654C71.2901 31.3626 69.9461 31.2731 68.5116 31.2665L65.9032 31.2547V34.3999ZM62.2742 38.7576V46.2606H65.5551H68.8359L70.3939 48.193L71.9516 50.1255V51.1942V52.2629H73.7661H75.5806V51.5126V50.7624H74.371H73.1613V49.2618V47.7612H74.371H75.5806L75.579 45.3696L75.5773 42.9781L69.8717 41.5808C65.031 40.3955 64.1144 40.1196 63.825 39.7606C63.492 39.3476 63.4839 39.2401 63.4839 35.296V31.2547H62.879H62.2742V38.7576ZM68.3226 43.2594V44.76H66.5081H64.6935V43.2594V41.7588H66.5081H68.3226V43.2594ZM66.2049 49.5746C67.6722 50.2115 68.7667 51.5691 69.28 53.3893L69.5179 54.2325L69.525 52.8311L69.5323 51.4297L68.6675 50.3458L67.8029 49.2618L66.664 49.2708L65.5252 49.2796L66.2049 49.5746ZM60.7287 50.3345L59.8548 51.4071L59.8703 52.9136C59.8813 53.9819 59.918 54.2529 59.9967 53.8457C60.1811 52.8896 60.9466 51.3183 61.5073 50.7451C62.1009 50.1381 62.8831 49.6392 63.5595 49.4362C63.8764 49.3411 63.6499 49.2944 62.8078 49.2809L61.6025 49.2618L60.7287 50.3345ZM55.9123 49.756C56.0847 50.0278 56.2258 50.3655 56.2258 50.5063C56.2258 50.68 56.4204 50.7624 56.8306 50.7624C57.2409 50.7624 57.4355 50.68 57.4355 50.5063C57.4355 50.3655 57.5766 50.0278 57.7489 49.756L58.0622 49.2618H56.8306H55.599L55.9123 49.756ZM50.4791 49.5746C51.9464 50.2115 53.0409 51.5691 53.5542 53.3893L53.7921 54.2325L53.7992 52.8311L53.8064 51.4297L52.9417 50.3458L52.0771 49.2618L50.9382 49.2708L49.7994 49.2796L50.4791 49.5746ZM45.0029 50.3345L44.129 51.4071L44.1445 52.9136C44.1555 53.9819 44.1922 54.2529 44.2709 53.8457C44.4553 52.8896 45.2208 51.3183 45.7814 50.7451C46.3751 50.1381 47.1573 49.6392 47.8337 49.4362C48.1506 49.3411 47.9241 49.2944 47.082 49.2809L45.8767 49.2618L45.0029 50.3345ZM22.0414 49.756C22.2138 50.0278 22.3548 50.3655 22.3548 50.5063C22.3548 50.72 23.9558 50.7624 32.0323 50.7624C40.1087 50.7624 41.7097 50.72 41.7097 50.5063C41.7097 50.3655 41.8508 50.0278 42.0231 49.756L42.3364 49.2618L32.0323 49.2618H21.7281L22.0414 49.756ZM16.6081 49.5746C18.0755 50.2115 19.1699 51.5691 19.6833 53.3893L19.9211 54.2325L19.9282 52.8311L19.9355 51.4297L19.0707 50.3458L18.2061 49.2618L17.0672 49.2708L15.9284 49.2796L16.6081 49.5746ZM11.1319 50.3345L10.2581 51.4071L10.2735 52.9136C10.2845 53.9819 10.3213 54.2529 10.3999 53.8457C10.5844 52.8896 11.3498 51.3183 11.9105 50.7451C12.5041 50.1381 13.2863 49.6392 13.9627 49.4362C14.2796 49.3411 14.0531 49.2944 13.211 49.2809L12.0057 49.2618L11.1319 50.3345ZM5.41935 50.0121V50.7624L6.62903 50.7624C7.55035 50.7624 7.83871 50.7014 7.83871 50.5063C7.83871 50.3655 7.97978 50.0278 8.15217 49.756L8.46547 49.2618H6.94249L5.41935 49.2618V50.0121ZM63.7365 52.5188C62.183 53.3241 61.8042 55.8507 63.0124 57.3496C64.7112 59.457 67.4952 57.5694 67.0482 54.6131C66.781 52.8472 65.1243 51.7995 63.7365 52.5188ZM48.0107 52.5188C46.4572 53.3241 46.0784 55.8507 47.2866 57.3496C48.2675 58.5662 49.668 58.5662 50.6489 57.3496C52.5187 55.0298 50.4555 51.2517 48.0107 52.5188ZM14.1398 52.5188C12.5862 53.3241 12.2075 55.8507 13.4156 57.3496C15.1145 59.457 17.8984 57.5694 17.4514 54.6131C17.1842 52.8472 15.5276 51.7995 14.1398 52.5188Z" fill="#0054A0" stroke="white" stroke-width="0.6"/>
</svg>
