<svg width="81" height="81" viewBox="0 0 81 81" fill="none" xmlns="http://www.w3.org/2000/svg">
<path d="M76.7084 60.4741H72.1324C73.3804 59.4341 74.1804 57.8821 74.1804 56.1381C74.1804 54.9541 73.8124 53.8661 73.1884 52.9541H75.4124C75.7484 52.9541 76.0844 52.8261 76.3244 52.5701L77.6044 51.2741C77.8444 51.0341 77.9724 50.7141 77.9724 50.3781V46.7301C77.9724 46.0261 77.3964 45.4501 76.6924 45.4501H4.19639C3.49239 45.4501 2.91639 46.0261 2.91639 46.7301V50.3781C2.91639 50.7141 3.04439 51.0341 3.28439 51.2741L4.56439 52.5701C4.80439 52.8101 5.12439 52.9541 5.47639 52.9541H7.70039C7.07639 53.8661 6.70839 54.9541 6.70839 56.1381C6.70839 57.8821 7.50839 59.4501 8.75639 60.4741H4.18039C3.47639 60.4741 2.90039 61.0501 2.90039 61.7541C2.90039 62.4581 3.47639 63.0341 4.18039 63.0341H76.7084C77.4124 63.0341 77.9884 62.4581 77.9884 61.7541C77.9884 61.0501 77.4124 60.4741 76.7084 60.4741ZM6.00439 50.3781L5.46039 49.8341V47.9941H75.3964V49.8501L74.8524 50.3941H6.00439V50.3781ZM63.9244 52.9381C63.3964 53.7061 63.0444 54.6181 62.9644 55.5941H60.3564C60.2604 54.6181 59.9244 53.7061 59.3964 52.9381H63.9244ZM21.4924 52.9381C20.9644 53.7061 20.6124 54.6181 20.5324 55.5941H17.9244C17.8284 54.6181 17.4924 53.7061 16.9644 52.9381H21.4924ZM12.3244 59.1941C10.6444 59.1941 9.26839 57.8181 9.26839 56.1381C9.26839 54.4581 10.6444 53.0821 12.3244 53.0821C14.0044 53.0821 15.3804 54.4581 15.3804 56.1381C15.3804 57.8181 14.0204 59.1941 12.3244 59.1941ZM15.8924 60.4741C16.6284 59.8661 17.2204 59.0661 17.5724 58.1541H20.8844C21.2364 59.0661 21.8124 59.8501 22.5644 60.4741H15.8924ZM26.1324 59.1941C24.4524 59.1941 23.0764 57.8181 23.0764 56.1381C23.0764 54.4581 24.4524 53.0821 26.1324 53.0821C27.8124 53.0821 29.1884 54.4581 29.1884 56.1381C29.1884 57.8181 27.8124 59.1941 26.1324 59.1941ZM29.6844 60.4741C30.9324 59.4341 31.7324 57.8821 31.7324 56.1381C31.7324 54.9541 31.3644 53.8661 30.7404 52.9541H50.1164C49.4924 53.8661 49.1244 54.9541 49.1244 56.1381C49.1244 57.8821 49.9244 59.4501 51.1724 60.4741H29.6844ZM54.7564 59.1941C53.0764 59.1941 51.7004 57.8181 51.7004 56.1381C51.7004 54.4581 53.0764 53.0821 54.7564 53.0821C56.4364 53.0821 57.8124 54.4581 57.8124 56.1381C57.8124 57.8181 56.4524 59.1941 54.7564 59.1941ZM58.3244 60.4741C59.0604 59.8661 59.6524 59.0661 60.0044 58.1541H63.3164C63.6684 59.0661 64.2604 59.8501 64.9964 60.4741H58.3244ZM68.5484 59.1941C66.8684 59.1941 65.4924 57.8181 65.4924 56.1381C65.4924 54.4581 66.8684 53.0821 68.5484 53.0821C70.2284 53.0821 71.6044 54.4581 71.6044 56.1381C71.6204 57.8181 70.2444 59.1941 68.5484 59.1941Z" fill="#0054A0"/>
<path d="M76.82 68.042H60.3239C59.6199 68.042 59.0439 67.466 59.0439 66.7621C59.0439 66.0581 59.6199 65.4821 60.3239 65.4821H76.82C77.524 65.4821 78.1 66.0581 78.1 66.7621C78.1 67.466 77.54 68.042 76.82 68.042Z" fill="#0054A0"/>
<path d="M55.4281 68.042H4.19602C3.49202 68.042 2.91602 67.466 2.91602 66.7621C2.91602 66.0581 3.49202 65.4821 4.19602 65.4821H55.4281C56.132 65.4821 56.708 66.0581 56.708 66.7621C56.708 67.466 56.132 68.042 55.4281 68.042Z" fill="#0054A0"/>
<path d="M71.6523 34.97C71.4283 35.946 71.0923 36.81 70.5643 37.61C69.5083 39.21 67.8923 39.898 65.9883 39.946C65.5403 39.962 65.0923 39.946 64.8203 39.946C64.1963 40.97 63.7483 41.978 63.0603 42.794C59.5723 46.922 52.8523 45.626 51.0763 40.506C50.9323 40.074 50.7403 39.93 50.2763 39.93C43.5243 39.946 36.7563 39.946 30.0043 39.93C29.5723 39.93 29.3803 40.026 29.2363 40.474C28.2763 43.322 25.5723 45.242 22.5643 45.258C19.5403 45.258 16.8683 43.37 15.8763 40.506C15.7163 40.058 15.5243 39.946 15.0603 39.93C11.7643 39.914 9.41231 37.562 9.33231 34.266C9.31631 33.178 9.33231 32.074 9.33231 30.986C9.34831 28.09 10.9323 25.994 13.7163 25.226C16.5643 24.442 19.4123 23.658 22.2763 22.906C22.7243 22.778 23.0603 22.57 23.3483 22.186C25.0283 19.946 26.7563 17.738 28.4363 15.498C29.9403 13.498 31.9403 12.474 34.4363 12.474C40.5643 12.474 46.6923 12.458 52.8203 12.474C55.6043 12.474 57.7163 13.674 59.1883 16.042C60.4843 18.154 61.7963 20.234 63.1403 22.314C63.3163 22.602 63.6203 22.858 63.9403 23.002C65.2843 23.658 66.6603 24.266 68.0203 24.874C69.9243 25.722 71.1563 26.906 71.6043 28.89C71.6523 29.114 71.7163 29.37 71.7163 29.466C71.9083 31.434 71.8283 34.058 71.6523 34.97ZM29.6363 37.338C36.6443 37.338 43.6523 37.338 50.6603 37.338C51.4443 32.938 54.7563 31.178 57.5243 31.066C59.0283 31.002 60.4203 31.418 61.6683 32.25C63.4923 33.466 64.5003 35.21 64.8043 37.37C65.2043 37.37 65.5403 37.37 65.8923 37.37C67.8763 37.354 69.1083 36.106 69.1083 34.122C69.1083 32.89 69.0923 31.642 69.1083 30.41C69.1243 28.906 68.4363 27.882 67.0763 27.258C65.5083 26.554 63.9243 25.85 62.3883 25.098C61.9563 24.89 61.5403 24.522 61.2843 24.138C59.8763 21.962 58.4843 19.77 57.1563 17.546C56.1003 15.786 54.6123 14.986 52.5803 15.002C46.6603 15.034 40.7403 15.034 34.8043 15.002C32.8843 14.986 31.4283 15.706 30.2763 17.258C28.5483 19.594 26.7563 21.866 25.0123 24.186C24.6283 24.698 24.1643 25.018 23.5403 25.162C22.5963 25.386 21.6683 25.658 20.7243 25.914C18.5323 26.506 16.3403 27.098 14.1643 27.722C12.8043 28.106 11.9403 29.13 11.9083 30.41C11.8603 31.77 11.8603 33.13 11.9083 34.49C11.9883 36.346 13.6363 37.626 15.4763 37.29C16.2443 32.906 19.6683 31.05 22.5963 31.05C25.3163 31.05 28.8523 32.81 29.6363 37.338ZM22.5323 42.65C25.0123 42.65 27.0763 40.618 27.0763 38.138C27.0763 35.674 25.0283 33.61 22.5483 33.61C20.0683 33.61 18.0203 35.642 18.0043 38.122C18.0043 40.586 20.0523 42.65 22.5323 42.65ZM57.7323 42.65C60.2123 42.65 62.2763 40.602 62.2763 38.138C62.2763 35.658 60.2123 33.61 57.7323 33.61C55.2523 33.61 53.2043 35.658 53.1883 38.138C53.2043 40.602 55.2523 42.65 57.7323 42.65Z" fill="#0054A0"/>
</svg>
