<svg width="81" height="81" viewBox="0 0 81 81" fill="none" xmlns="http://www.w3.org/2000/svg">
<path d="M69.9716 62.218H65.9876C67.0756 61.306 67.7796 59.9621 67.7796 58.4421C67.7796 57.4021 67.4596 56.458 66.9156 55.658H68.8516C69.1396 55.658 69.4436 55.5461 69.6516 55.322L70.7716 54.186C70.9796 53.978 71.0916 53.6901 71.0916 53.4021V50.218C71.0916 49.642 70.6436 49.162 70.0836 49.098V31.402C69.3796 31.722 68.6276 31.962 67.8436 32.122V49.0021H8.96356V25.29H55.3956C55.1236 24.57 54.9316 23.834 54.8196 23.05H7.85956C7.23556 23.05 6.73956 23.546 6.73956 24.17V49.114C6.13156 49.13 5.63556 49.626 5.63556 50.234V53.418C5.63556 53.706 5.74756 53.9941 5.95556 54.202L7.07556 55.338C7.28356 55.546 7.55556 55.674 7.87556 55.674H9.81156C9.26756 56.474 8.94756 57.418 8.94756 58.458C8.94756 59.978 9.65156 61.338 10.7396 62.234H6.73956C6.05156 62.234 5.49156 62.874 5.65156 63.61C5.76356 64.122 6.24356 64.474 6.77156 64.474C12.6916 64.474 64.0196 64.474 69.9396 64.474C70.4676 64.474 70.9476 64.122 71.0596 63.61C71.2196 62.858 70.6596 62.218 69.9716 62.218ZM8.32356 53.418L7.84356 52.938V51.338H68.8196V52.954L68.3396 53.434H8.32356V53.418ZM58.8196 55.6421C58.3556 56.314 58.0516 57.1141 57.9876 57.9621H55.7156C55.6356 57.1141 55.3476 56.314 54.8836 55.6421H58.8196ZM21.8276 55.6421C21.3636 56.314 21.0596 57.1141 20.9956 57.9621H18.7236C18.6436 57.1141 18.3556 56.314 17.8916 55.6421H21.8276ZM13.8436 61.098C12.2276 61.098 10.9316 59.626 11.2196 57.9621C11.4116 56.8741 12.2756 55.994 13.3796 55.8021C15.0436 55.514 16.5156 56.81 16.5156 58.426C16.4996 59.898 15.3156 61.098 13.8436 61.098ZM16.9476 62.218C17.5876 61.69 18.0996 60.986 18.4196 60.202H21.2996C21.6036 61.002 22.1156 61.674 22.7716 62.218H16.9476ZM25.3476 61.05C24.2916 60.842 23.4596 60.01 23.2516 58.954C22.8996 57.082 24.5316 55.45 26.3876 55.818C27.4276 56.026 28.2756 56.858 28.4836 57.914C28.8516 59.77 27.2196 61.402 25.3476 61.05ZM28.9796 62.218C30.0676 61.306 30.7716 59.9621 30.7716 58.4421C30.7716 57.4021 30.4516 56.458 29.9076 55.658H46.8036C46.2596 56.458 45.9396 57.4021 45.9396 58.4421C45.9396 59.9621 46.6436 61.322 47.7316 62.218H28.9796ZM50.8356 61.098C49.2196 61.098 47.9236 59.626 48.2116 57.9621C48.4036 56.8741 49.2676 55.994 50.3716 55.8021C52.0356 55.514 53.5076 56.81 53.5076 58.426C53.4916 59.898 52.3076 61.098 50.8356 61.098ZM53.9396 62.218C54.5796 61.69 55.0916 60.986 55.4116 60.202H58.2916C58.5956 61.002 59.1076 61.674 59.7636 62.218H53.9396ZM62.8516 61.098C61.2356 61.098 59.9396 59.626 60.2276 57.9621C60.4196 56.8741 61.2836 55.994 62.3876 55.8021C64.0516 55.514 65.5236 56.81 65.5236 58.426C65.5236 59.898 64.3396 61.098 62.8516 61.098Z" fill="#0054A0"/>
<path d="M70.0685 68.8099H55.6845C55.0765 68.8099 54.5645 68.3139 54.5645 67.6899C54.5645 67.0659 55.0605 66.5699 55.6845 66.5699H70.0685C70.6765 66.5699 71.1885 67.0659 71.1885 67.6899C71.1885 68.3139 70.6925 68.8099 70.0685 68.8099Z" fill="#0054A0"/>
<path d="M51.4118 68.8099H6.75574C6.14774 68.8099 5.63574 68.3139 5.63574 67.6899C5.63574 67.0659 6.13174 66.5699 6.75574 66.5699H51.4118C52.0198 66.5699 52.5318 67.0659 52.5318 67.6899C52.5318 68.3139 52.0358 68.8099 51.4118 68.8099Z" fill="#0054A0"/>
<path d="M65.6033 32.3619V46.0739C65.6033 46.6979 65.1073 47.1939 64.4833 47.1939C63.8593 47.1939 63.3633 46.6979 63.3633 46.0739V32.1219C64.0833 32.2819 64.8353 32.3619 65.6033 32.3619Z" fill="#0054A0"/>
<path d="M61.2351 31.4499V46.0739C61.2351 46.6979 60.7391 47.1939 60.1151 47.1939C59.4911 47.1939 58.9951 46.6979 58.9951 46.0739V30.1379C59.6991 30.6499 60.4511 31.0979 61.2351 31.4499Z" fill="#0054A0"/>
<path d="M55.7636 47.194C55.1396 47.194 54.6436 46.698 54.6436 46.0739V28.346C54.6436 27.722 55.1396 27.226 55.7636 27.226C56.3876 27.226 56.8836 27.722 56.8836 28.346V46.0739C56.8836 46.698 56.3876 47.194 55.7636 47.194Z" fill="#0054A0"/>
<path d="M51.412 47.194C50.788 47.194 50.292 46.698 50.292 46.0739V28.346C50.292 27.722 50.788 27.226 51.412 27.226C52.036 27.226 52.532 27.722 52.532 28.346V46.0739C52.532 46.698 52.02 47.194 51.412 47.194Z" fill="#0054A0"/>
<path d="M47.0438 47.194C46.4198 47.194 45.9238 46.698 45.9238 46.0739V28.346C45.9238 27.722 46.4198 27.226 47.0438 27.226C47.6678 27.226 48.1638 27.722 48.1638 28.346V46.0739C48.1638 46.698 47.6678 47.194 47.0438 47.194Z" fill="#0054A0"/>
<path d="M42.6913 47.194C42.0673 47.194 41.5713 46.698 41.5713 46.0739V28.346C41.5713 27.722 42.0673 27.226 42.6913 27.226C43.3153 27.226 43.8113 27.722 43.8113 28.346V46.0739C43.8113 46.698 43.3153 47.194 42.6913 47.194Z" fill="#0054A0"/>
<path d="M38.3397 47.194C37.7157 47.194 37.2197 46.698 37.2197 46.0739V28.346C37.2197 27.722 37.7157 27.226 38.3397 27.226C38.9637 27.226 39.4597 27.722 39.4597 28.346V46.0739C39.4437 46.698 38.9477 47.194 38.3397 47.194Z" fill="#0054A0"/>
<path d="M33.9716 47.194C33.3476 47.194 32.8516 46.698 32.8516 46.0739V28.346C32.8516 27.722 33.3476 27.226 33.9716 27.226C34.5956 27.226 35.0916 27.722 35.0916 28.346V46.0739C35.0916 46.698 34.5956 47.194 33.9716 47.194Z" fill="#0054A0"/>
<path d="M29.62 47.194C28.996 47.194 28.5 46.698 28.5 46.0739V28.346C28.5 27.722 28.996 27.226 29.62 27.226C30.244 27.226 30.74 27.722 30.74 28.346V46.0739C30.724 46.698 30.228 47.194 29.62 47.194Z" fill="#0054A0"/>
<path d="M25.2518 47.194C24.6278 47.194 24.1318 46.698 24.1318 46.0739V28.346C24.1318 27.722 24.6278 27.226 25.2518 27.226C25.8758 27.226 26.3718 27.722 26.3718 28.346V46.0739C26.3718 46.698 25.8758 47.194 25.2518 47.194Z" fill="#0054A0"/>
<path d="M20.8993 47.194C20.2753 47.194 19.7793 46.698 19.7793 46.0739V28.346C19.7793 27.722 20.2753 27.226 20.8993 27.226C21.5233 27.226 22.0193 27.722 22.0193 28.346V46.0739C22.0193 46.698 21.5073 47.194 20.8993 47.194Z" fill="#0054A0"/>
<path d="M16.5311 47.194C15.9071 47.194 15.4111 46.698 15.4111 46.0739V28.346C15.4111 27.722 15.9071 27.226 16.5311 27.226C17.1551 27.226 17.6511 27.722 17.6511 28.346V46.0739C17.6511 46.698 17.1551 47.194 16.5311 47.194Z" fill="#0054A0"/>
<path d="M12.1796 47.194C11.5556 47.194 11.0596 46.698 11.0596 46.0739V28.346C11.0596 27.722 11.5556 27.226 12.1796 27.226C12.8036 27.226 13.2996 27.722 13.2996 28.346V46.0739C13.2996 46.698 12.7876 47.194 12.1796 47.194Z" fill="#0054A0"/>
<path d="M65.6041 11.6899C60.2121 11.6899 55.8281 16.0739 55.8281 21.4659C55.8281 22.0099 55.8761 22.5379 55.9561 23.0499C56.0841 23.8339 56.3081 24.5699 56.5961 25.2899C57.1561 26.5859 57.9721 27.7379 58.9961 28.6819C59.6681 29.2899 60.4201 29.8019 61.2361 30.2179C61.9081 30.5539 62.6121 30.8099 63.3641 30.9859C64.0841 31.1459 64.8361 31.2419 65.6041 31.2419C66.3721 31.2419 67.1081 31.1619 67.8281 30.9859C68.6121 30.8099 69.3641 30.5219 70.0681 30.1699C73.2201 28.5539 75.3961 25.2579 75.3961 21.4659C75.3801 16.0739 70.9961 11.6899 65.6041 11.6899ZM70.0521 29.2419C69.3641 29.6419 68.6121 29.9459 67.8121 30.1539C67.1081 30.3299 66.3561 30.4419 65.5881 30.4419C64.8201 30.4419 64.0681 30.3459 63.3481 30.1539C62.5961 29.9619 61.8921 29.6739 61.2201 29.3059C60.4681 28.8899 59.7801 28.3619 59.1721 27.7379C58.4841 27.0339 57.8921 26.2019 57.4601 25.2899C57.1241 24.5859 56.8841 23.8339 56.7401 23.0499C56.6441 22.5379 56.5961 22.0099 56.5961 21.4659C56.5961 16.5219 60.6121 12.5059 65.5561 12.5059C70.5001 12.5059 74.5161 16.5219 74.5161 21.4659C74.5641 24.7779 72.7401 27.6899 70.0521 29.2419Z" fill="#0054A0"/>
<path d="M65.5077 27.7061C65.2517 27.6101 65.1397 27.4181 65.1557 27.1461C65.1717 26.7461 65.1557 26.346 65.1557 25.93C65.1237 25.946 65.0917 25.9621 65.0597 25.9781C64.7397 26.2181 64.4197 26.458 64.1157 26.682C63.8917 26.858 63.6037 26.826 63.4597 26.6181C63.2997 26.4101 63.3477 26.138 63.5877 25.962C64.0837 25.594 64.5797 25.21 65.0757 24.842C65.1077 24.8101 65.1557 24.746 65.1557 24.714C65.1557 23.914 65.1557 23.114 65.1557 22.314C65.1557 22.298 65.1557 22.2821 65.1557 22.2501C65.1077 22.266 65.0757 22.2821 65.0437 22.2981C64.3877 22.6821 63.7477 23.0821 63.0917 23.4661C62.9957 23.5301 62.9637 23.5941 62.9477 23.6901C62.8837 24.298 62.8197 24.922 62.7557 25.53C62.7237 25.786 62.5157 25.9621 62.2757 25.9461C62.0197 25.9301 61.8437 25.7221 61.8597 25.4661C61.8917 25.0981 61.9237 24.7461 61.9717 24.3781C61.9717 24.2981 61.9877 24.2341 61.9877 24.1381C61.9397 24.1701 61.8917 24.186 61.8597 24.202C61.5237 24.41 61.1717 24.618 60.8357 24.8101C60.6757 24.906 60.4997 24.906 60.3397 24.794C60.1797 24.682 60.1317 24.5221 60.1637 24.3461C60.1957 24.2021 60.2757 24.106 60.4037 24.042C60.7397 23.85 61.0597 23.642 61.3957 23.4501C61.4277 23.434 61.4757 23.4021 61.5237 23.3701C61.2197 23.2421 60.9317 23.1301 60.6597 23.0181C60.5477 22.9701 60.4357 22.922 60.3397 22.89C60.0837 22.778 59.9717 22.5381 60.0517 22.2981C60.1477 22.0581 60.4037 21.9621 60.6757 22.0581C61.2517 22.2981 61.8277 22.522 62.4037 22.762C62.4517 22.778 62.5157 22.778 62.5637 22.762C63.2677 22.346 63.9717 21.9301 64.6757 21.4981C64.6917 21.4821 64.7077 21.482 64.7237 21.45C64.6757 21.418 64.6437 21.4021 64.6117 21.3861C63.9397 20.9861 63.2677 20.586 62.5957 20.186C62.5157 20.138 62.4517 20.138 62.3557 20.17C61.7957 20.41 61.2357 20.6341 60.6597 20.8581C60.5637 20.8901 60.4357 20.906 60.3237 20.89C60.1477 20.858 60.0197 20.682 60.0037 20.506C59.9877 20.298 60.0837 20.1381 60.2757 20.0581C60.6437 19.9141 61.0117 19.754 61.3797 19.61C61.4277 19.594 61.4597 19.578 61.5077 19.546C61.3797 19.466 61.2517 19.386 61.1237 19.322C60.8677 19.178 60.6277 19.018 60.3717 18.874C60.1317 18.73 60.0677 18.474 60.1957 18.25C60.3237 18.026 60.5957 17.962 60.8357 18.106C61.1717 18.298 61.4917 18.5061 61.8277 18.6981C61.8597 18.7141 61.9077 18.7461 61.9717 18.7781C61.9397 18.5221 61.9237 18.298 61.9077 18.074C61.8917 17.866 61.8597 17.674 61.8437 17.466C61.8277 17.194 61.9877 16.986 62.2437 16.97C62.4837 16.938 62.6917 17.114 62.7237 17.386C62.7877 17.994 62.8517 18.602 62.9157 19.21C62.9317 19.322 62.9637 19.402 63.0757 19.466C63.7317 19.85 64.3717 20.234 65.0277 20.634C65.0597 20.6501 65.0917 20.6661 65.1397 20.6981C65.1397 20.6501 65.1397 20.602 65.1397 20.57C65.1397 19.802 65.1397 19.034 65.1397 18.266C65.1397 18.186 65.1077 18.138 65.0437 18.09C64.5477 17.722 64.0517 17.354 63.5557 16.986C63.4117 16.874 63.3317 16.746 63.3477 16.57C63.3637 16.394 63.4437 16.266 63.6037 16.202C63.7637 16.122 63.9237 16.154 64.0677 16.25C64.3877 16.49 64.7077 16.73 65.0117 16.954C65.0437 16.97 65.0757 17.002 65.1237 17.034C65.1237 16.97 65.1237 16.922 65.1237 16.89C65.1237 16.49 65.1237 16.09 65.1237 15.69C65.1237 15.466 65.2997 15.29 65.5237 15.274C65.7317 15.258 65.9397 15.386 65.9877 15.594C66.0037 15.658 66.0037 15.722 66.0037 15.77C66.0037 16.186 66.0037 16.602 66.0037 17.034C66.0517 17.002 66.0837 16.986 66.1157 16.954C66.4357 16.714 66.7557 16.474 67.0757 16.234C67.2357 16.122 67.4117 16.106 67.5717 16.218C67.7317 16.314 67.8117 16.474 67.7797 16.666C67.7637 16.81 67.6837 16.906 67.5717 16.986C67.0757 17.354 66.5957 17.722 66.0997 18.074C66.0197 18.122 66.0037 18.186 66.0037 18.282C66.0037 19.082 66.0037 19.8821 66.0037 20.7141C66.0517 20.6981 66.0837 20.682 66.1157 20.65C66.7877 20.25 67.4437 19.85 68.1157 19.45C68.1797 19.418 68.2117 19.37 68.2117 19.29C68.2757 18.682 68.3397 18.074 68.4037 17.466C68.4357 17.178 68.5957 16.986 68.8677 17.002C69.1397 17.002 69.3317 17.226 69.3157 17.498C69.2677 17.914 69.2357 18.33 69.1877 18.73C69.1877 18.746 69.1877 18.762 69.1877 18.794C69.2357 18.762 69.2677 18.746 69.3157 18.73C69.6677 18.522 70.0037 18.314 70.3557 18.106C70.5637 17.994 70.8037 18.0421 70.9317 18.2181C71.0597 18.3941 71.0437 18.65 70.8837 18.794C70.8357 18.8261 70.7877 18.858 70.7397 18.89C70.4197 19.082 70.0837 19.274 69.7637 19.482C69.7317 19.498 69.6837 19.53 69.6357 19.562C69.9717 19.706 70.2917 19.834 70.6117 19.962C70.6757 19.994 70.7557 20.01 70.8197 20.042C71.0917 20.154 71.2037 20.3941 71.1077 20.634C71.0117 20.8741 70.7557 20.9701 70.4837 20.8581C69.9077 20.6341 69.3477 20.394 68.7717 20.17C68.6917 20.138 68.6277 20.138 68.5637 20.186C67.8917 20.586 67.2197 20.986 66.5637 21.402C66.5317 21.418 66.4997 21.4501 66.4517 21.4661C66.4837 21.4821 66.4997 21.5141 66.5317 21.53C67.2197 21.946 67.9077 22.362 68.5957 22.762C68.6597 22.794 68.7077 22.7941 68.7717 22.7781C69.3477 22.5381 69.9237 22.298 70.4997 22.074C70.5957 22.042 70.7397 22.026 70.8357 22.042C71.0117 22.074 71.1237 22.2501 71.1397 22.4261C71.1557 22.6341 71.0597 22.794 70.8677 22.874C70.5477 23.002 70.2277 23.146 69.8917 23.274C69.8117 23.306 69.7317 23.3381 69.6357 23.3861C69.6837 23.4181 69.7157 23.4501 69.7637 23.4661C70.0997 23.6741 70.4517 23.8821 70.7877 24.09C70.9637 24.2021 71.0277 24.378 70.9957 24.554C70.9637 24.73 70.8197 24.8901 70.6277 24.9061C70.5157 24.9061 70.3877 24.8901 70.2917 24.8261C69.9557 24.6341 69.6197 24.426 69.2837 24.234C69.2517 24.218 69.2197 24.2021 69.1717 24.17C69.2037 24.522 69.2357 24.8421 69.2677 25.1781C69.2837 25.2741 69.2837 25.354 69.2997 25.4501C69.3317 25.722 69.1717 25.946 68.9317 25.9781C68.6597 26.01 68.4517 25.85 68.4197 25.562C68.3717 25.146 68.3397 24.7141 68.2917 24.2981C68.2757 24.0901 68.2437 23.882 68.2277 23.674C68.2277 23.642 68.1957 23.578 68.1637 23.562C67.4597 23.146 66.7717 22.7301 66.0677 22.2981C66.0517 22.2981 66.0517 22.298 66.0197 22.282C66.0197 22.33 66.0197 22.378 66.0197 22.41C66.0197 23.1781 66.0197 23.9301 66.0197 24.6981C66.0197 24.7941 66.0517 24.8421 66.1157 24.9061C66.6117 25.2741 67.1077 25.642 67.5877 26.01C67.7797 26.154 67.8437 26.33 67.7797 26.522C67.6837 26.826 67.3477 26.9381 67.0757 26.7461C66.7557 26.5221 66.4357 26.282 66.1317 26.042C66.0997 26.026 66.0677 25.994 66.0197 25.962C66.0197 26.01 66.0037 26.042 66.0037 26.074C66.0037 26.442 65.9877 26.8101 66.0037 27.1781C66.0197 27.4501 65.9077 27.642 65.6517 27.7381C65.6357 27.706 65.5717 27.7061 65.5077 27.7061Z" fill="#0054A0"/>
</svg>
