<svg width="81" height="81" viewBox="0 0 81 81" fill="none" xmlns="http://www.w3.org/2000/svg">
<path d="M14.5434 71.9206C14.3637 72.803 13.7648 73.0274 12.9413 72.9974C11.7284 72.9675 10.5006 72.9974 9.28772 72.9825C8.40428 72.9825 8 72.5787 8 71.6962C8 61.7352 8 51.7591 8 41.7981C8 40.9156 8.40428 40.452 9.27275 40.5268C10.4706 40.6315 11.414 40.2127 12.3872 39.5546C20.7574 33.9459 29.1576 28.3671 37.5427 22.7733C37.7673 22.6238 37.977 22.4742 38.2615 22.2798C37.3032 21.3225 37.1534 20.1709 37.2882 18.8996C37.977 18.8996 38.6508 18.8996 39.4294 18.8996C39.4294 19.2585 39.4144 19.6175 39.4294 19.9615C39.4743 20.5897 39.9535 21.0234 40.5374 21.0085C41.0914 20.9935 41.5407 20.5747 41.5856 19.9615C41.6155 19.6025 41.6006 19.2436 41.5856 18.8846C41.5556 18.2265 41.1963 17.8676 40.5374 17.7629C39.7139 17.6283 39.4294 17.2992 39.4144 16.4467C39.4144 15.8634 39.4144 15.2801 39.3994 14.6818C39.3994 14.6669 39.3845 14.637 39.2497 14.7118C38.9053 14.293 38.4711 13.9041 38.2165 13.4255C37.5727 12.2439 36.9887 11.0175 36.3898 9.806C35.8807 8.75904 36.3299 8.02617 37.4978 8.01122C39.4893 7.99626 41.4658 7.99626 43.4573 8.01122C44.6402 8.01122 45.1044 8.74409 44.5803 9.79105C43.9364 11.1072 43.3075 12.4234 42.6038 13.7097C42.4091 14.0686 42.0198 14.3378 41.6754 14.5921C41.4358 15.2801 41.5407 15.8185 42.3492 16.2074C43.053 16.5514 43.4273 17.2693 43.622 18.0471C43.9963 19.5128 43.7418 20.814 42.7835 22.2947C44.4156 23.3866 46.0477 24.4634 47.6798 25.5553C54.7922 30.2965 61.9046 35.0228 69.0021 39.7789C69.7507 40.2875 70.4845 40.5268 71.3829 40.4968C72.7155 40.437 73 40.7661 73 42.1122C73 51.8489 73 61.5856 73 71.3373C73 72.6684 72.7005 72.9526 71.3679 72.9526C70.2598 72.9526 69.1518 72.9526 68.0438 72.9526C66.9956 72.9526 66.8159 72.8479 66.4117 71.8907C49.1472 71.9206 31.8678 71.9206 14.5434 71.9206ZM66.4865 43.8172C49.1322 43.8172 31.8229 43.8172 14.5584 43.8172C14.5584 52.492 14.5584 61.107 14.5584 69.707C31.8977 69.707 49.1771 69.707 66.4865 69.707C66.4865 61.0621 66.4865 52.4621 66.4865 43.8172ZM66.7111 40.8857C66.4865 40.7212 66.2619 40.5716 66.0523 40.4221C57.6971 34.8582 49.3419 29.3093 41.0016 23.7306C40.5973 23.4613 40.3578 23.5212 39.9984 23.7605C31.6132 29.3542 23.2281 34.933 14.8279 40.5118C14.3338 40.8408 14.244 41.125 14.5883 41.5887C31.8827 41.5887 49.1921 41.5887 66.4865 41.5887C66.5614 41.3344 66.6363 41.125 66.7111 40.8857ZM12.2824 70.7839C12.2824 61.3912 12.2824 52.0583 12.2824 42.7254C11.5487 42.7254 10.8599 42.7254 10.2011 42.7254C10.2011 52.1031 10.2011 61.4211 10.2011 70.7839C10.9049 70.7839 11.5637 70.7839 12.2824 70.7839ZM70.8139 70.7839C70.8139 61.3912 70.8139 52.0583 70.8139 42.7254C70.0802 42.7254 69.3914 42.7254 68.7325 42.7254C68.7325 52.1031 68.7325 61.4211 68.7325 70.7839C69.4213 70.7839 70.0951 70.7839 70.8139 70.7839ZM41.9749 10.2547C40.9717 10.2547 40.0433 10.2547 39.0401 10.2547C39.3695 10.9277 39.654 11.526 39.9684 12.1243C40.1631 12.4982 40.8219 12.5131 41.0166 12.1392C41.361 11.541 41.6455 10.9128 41.9749 10.2547Z" fill="#0054A0"/>
<path d="M22.1348 45.9559C22.8535 45.9559 23.5273 45.9559 24.2161 45.9559C24.2161 53.15 24.2161 60.2993 24.2161 67.5233C23.5423 67.5233 22.8535 67.5233 22.1348 67.5233C22.1348 60.3591 22.1348 53.1799 22.1348 45.9559Z" fill="#0054A0"/>
<path d="M26.4619 45.9559C27.1806 45.9559 27.8395 45.9559 28.5432 45.9559C28.5432 53.15 28.5432 60.2993 28.5432 67.5233C27.8694 67.5233 27.1956 67.5233 26.4619 67.5233C26.4619 60.3591 26.4619 53.1949 26.4619 45.9559Z" fill="#0054A0"/>
<path d="M32.8707 67.5382C32.152 67.5382 31.4782 67.5382 30.7744 67.5382C30.7744 60.3441 30.7744 53.1948 30.7744 45.9708C31.4482 45.9708 32.137 45.9708 32.8707 45.9708C32.8707 53.135 32.8707 60.3142 32.8707 67.5382Z" fill="#0054A0"/>
<path d="M37.2131 67.5382C36.5094 67.5382 35.8356 67.5382 35.1318 67.5382C35.1318 60.3292 35.1318 53.165 35.1318 45.9559C35.8356 45.9559 36.4944 45.9559 37.2131 45.9559C37.2131 53.1351 37.2131 60.3142 37.2131 67.5382Z" fill="#0054A0"/>
<path d="M39.4746 45.9559C40.1933 45.9559 40.8522 45.9559 41.5559 45.9559C41.5559 53.15 41.5559 60.2993 41.5559 67.5233C40.8821 67.5233 40.2083 67.5233 39.4746 67.5233C39.4746 60.3591 39.4746 53.1949 39.4746 45.9559Z" fill="#0054A0"/>
<path d="M43.8018 45.9559C44.5205 45.9559 45.1793 45.9559 45.8831 45.9559C45.8831 53.15 45.8831 60.2993 45.8831 67.5233C45.2093 67.5233 44.5355 67.5233 43.8018 67.5233C43.8018 60.3591 43.8018 53.1949 43.8018 45.9559Z" fill="#0054A0"/>
<path d="M48.1436 45.9559C48.8623 45.9559 49.5361 45.9559 50.2398 45.9559C50.2398 53.15 50.2398 60.2993 50.2398 67.5233C49.566 67.5233 48.8773 67.5233 48.1436 67.5233C48.1436 60.3591 48.1436 53.1799 48.1436 45.9559Z" fill="#0054A0"/>
<path d="M52.4863 45.9559C53.1901 45.9559 53.8639 45.9559 54.5676 45.9559C54.5676 53.15 54.5676 60.3292 54.5676 67.5382C53.8789 67.5382 53.2051 67.5382 52.4863 67.5382C52.4863 60.374 52.4863 53.1949 52.4863 45.9559Z" fill="#0054A0"/>
<path d="M56.8135 45.9559C57.5322 45.9559 58.206 45.9559 58.8948 45.9559C58.8948 53.15 58.8948 60.2993 58.8948 67.5233C58.221 67.5233 57.5322 67.5233 56.8135 67.5233C56.8135 60.3591 56.8135 53.1799 56.8135 45.9559Z" fill="#0054A0"/>
<path d="M17.793 50.2933C18.5117 50.2933 19.1855 50.2933 19.8743 50.2933C19.8743 54.6008 19.8743 58.8634 19.8743 63.2008C19.2005 63.2008 18.5117 63.2008 17.793 63.2008C17.793 58.9233 17.793 54.6307 17.793 50.2933Z" fill="#0054A0"/>
<path d="M63.2219 63.2157C62.5032 63.2157 61.8294 63.2157 61.1406 63.2157C61.1406 58.9082 61.1406 54.6456 61.1406 50.3082C61.8144 50.3082 62.5032 50.3082 63.2219 50.3082C63.2219 54.5858 63.2219 58.8783 63.2219 63.2157Z" fill="#0054A0"/>
<path d="M17.793 45.9559C18.4817 45.9559 19.1556 45.9559 19.8743 45.9559C19.8743 46.6439 19.8743 47.317 19.8743 48.0498C19.2005 48.0498 18.5117 48.0498 17.793 48.0498C17.793 47.3768 17.793 46.7038 17.793 45.9559Z" fill="#0054A0"/>
<path d="M61.126 48.0498C61.126 47.3319 61.126 46.6738 61.126 45.9708C61.8297 45.9708 62.4886 45.9708 63.2073 45.9708C63.2073 46.6439 63.2073 47.3169 63.2073 48.0498C62.5485 48.0498 61.8597 48.0498 61.126 48.0498Z" fill="#0054A0"/>
<path d="M17.8076 65.4293C18.4964 65.4293 19.1702 65.4293 19.874 65.4293C19.874 66.1323 19.874 66.8203 19.874 67.5382C19.1852 67.5382 18.5263 67.5382 17.8076 67.5382C17.8076 66.8651 17.8076 66.1921 17.8076 65.4293Z" fill="#0054A0"/>
<path d="M63.2219 67.5383C62.5032 67.5383 61.8444 67.5383 61.1406 67.5383C61.1406 66.8354 61.1406 66.1773 61.1406 65.4594C61.8144 65.4594 62.4882 65.4594 63.2219 65.4594C63.2219 66.1324 63.2219 66.8054 63.2219 67.5383Z" fill="#0054A0"/>
</svg>
