<svg width="81" height="81" viewBox="0 0 81 81" fill="none" xmlns="http://www.w3.org/2000/svg">
<path d="M63.9236 25.2259C63.9236 25.2419 63.9076 25.2739 63.9076 25.2899H63.9716C63.9556 25.2579 63.9396 25.2419 63.9236 25.2259ZM63.9236 25.2259C63.9236 25.2419 63.9076 25.2739 63.9076 25.2899H63.9716C63.9556 25.2579 63.9396 25.2419 63.9236 25.2259ZM63.9236 25.2259C63.9236 25.2419 63.9076 25.2739 63.9076 25.2899H63.9716C63.9556 25.2579 63.9396 25.2419 63.9236 25.2259ZM69.9716 62.2179H65.9876C67.0756 61.3059 67.7796 59.9619 67.7796 58.4419C67.7796 57.4019 67.4596 56.4579 66.9156 55.6579H68.8516C69.1396 55.6579 69.4436 55.5459 69.6516 55.3219L70.7716 54.1859C70.9796 53.9779 71.0916 53.6899 71.0916 53.4019V50.2179C71.0916 49.6419 70.6436 49.1619 70.0836 49.0979V31.4019C69.3796 31.7219 68.6276 31.9619 67.8436 32.1219V49.0019H8.96356V25.2899H55.3956C55.1236 24.5699 54.9316 23.8339 54.8196 23.0499H7.85956C7.23556 23.0499 6.73956 23.5459 6.73956 24.1699V49.1139C6.13156 49.1299 5.63556 49.6259 5.63556 50.2339V53.4179C5.63556 53.7059 5.74756 53.9939 5.95556 54.2019L7.07556 55.3379C7.28356 55.5459 7.55556 55.6739 7.87556 55.6739H9.81156C9.26756 56.4739 8.94756 57.4179 8.94756 58.4579C8.94756 59.9779 9.65156 61.3379 10.7396 62.2339H6.73956C6.05156 62.2339 5.49156 62.8739 5.65156 63.6099C5.76356 64.1219 6.24356 64.4739 6.77156 64.4739C12.6916 64.4739 64.0196 64.4739 69.9396 64.4739C70.4676 64.4739 70.9476 64.1219 71.0596 63.6099C71.2196 62.8579 70.6596 62.2179 69.9716 62.2179ZM8.32356 53.4179L7.84356 52.9379V51.3379H68.8196V52.9539L68.3396 53.4339H8.32356V53.4179ZM58.8196 55.6419C58.3556 56.3139 58.0516 57.1139 57.9876 57.9619H55.7156C55.6356 57.1139 55.3476 56.3139 54.8836 55.6419H58.8196ZM21.8276 55.6419C21.3636 56.3139 21.0596 57.1139 20.9956 57.9619H18.7236C18.6436 57.1139 18.3556 56.3139 17.8916 55.6419H21.8276ZM13.8436 61.0979C12.2276 61.0979 10.9316 59.6259 11.2196 57.9619C11.4116 56.8739 12.2756 55.9939 13.3796 55.8019C15.0436 55.5139 16.5156 56.8099 16.5156 58.4259C16.4996 59.8979 15.3156 61.0979 13.8436 61.0979ZM16.9476 62.2179C17.5876 61.6899 18.0996 60.9859 18.4196 60.2019H21.2996C21.6036 61.0019 22.1156 61.6739 22.7716 62.2179H16.9476ZM25.3476 61.0499C24.2916 60.8419 23.4596 60.0099 23.2516 58.9539C22.8996 57.0819 24.5316 55.4499 26.3876 55.8179C27.4276 56.0259 28.2756 56.8579 28.4836 57.9139C28.8516 59.7699 27.2196 61.4019 25.3476 61.0499ZM28.9796 62.2179C30.0676 61.3059 30.7716 59.9619 30.7716 58.4419C30.7716 57.4019 30.4516 56.4579 29.9076 55.6579H46.8036C46.2596 56.4579 45.9396 57.4019 45.9396 58.4419C45.9396 59.9619 46.6436 61.3219 47.7316 62.2179H28.9796ZM50.8356 61.0979C49.2196 61.0979 47.9236 59.6259 48.2116 57.9619C48.4036 56.8739 49.2676 55.9939 50.3716 55.8019C52.0356 55.5139 53.5076 56.8099 53.5076 58.4259C53.4916 59.8979 52.3076 61.0979 50.8356 61.0979ZM53.9396 62.2179C54.5796 61.6899 55.0916 60.9859 55.4116 60.2019H58.2916C58.5956 61.0019 59.1076 61.6739 59.7636 62.2179H53.9396ZM62.8516 61.0979C61.2356 61.0979 59.9396 59.6259 60.2276 57.9619C60.4196 56.8739 61.2836 55.9939 62.3876 55.8019C64.0516 55.5139 65.5236 56.8099 65.5236 58.4259C65.5236 59.8979 64.3396 61.0979 62.8516 61.0979ZM63.9236 25.2259C63.9236 25.2419 63.9076 25.2739 63.9076 25.2899H63.9716C63.9556 25.2579 63.9396 25.2419 63.9236 25.2259Z" fill="#0054A0"/>
<path d="M70.0675 68.8099H55.6835C55.0755 68.8099 54.5635 68.3139 54.5635 67.6899C54.5635 67.0659 55.0595 66.5699 55.6835 66.5699H70.0675C70.6755 66.5699 71.1875 67.0659 71.1875 67.6899C71.1875 68.3139 70.6915 68.8099 70.0675 68.8099Z" fill="#0054A0"/>
<path d="M51.4118 68.8099H6.75574C6.14774 68.8099 5.63574 68.3139 5.63574 67.6899C5.63574 67.0659 6.13174 66.5699 6.75574 66.5699H51.4118C52.0198 66.5699 52.5318 67.0659 52.5318 67.6899C52.5318 68.3139 52.0358 68.8099 51.4118 68.8099Z" fill="#0054A0"/>
<path d="M65.6033 32.3619V46.0739C65.6033 46.6979 65.1073 47.1939 64.4833 47.1939C63.8593 47.1939 63.3633 46.6979 63.3633 46.0739V32.1219C64.0833 32.2819 64.8353 32.3619 65.6033 32.3619Z" fill="#0054A0"/>
<path d="M61.2351 31.4499V46.0739C61.2351 46.6979 60.7391 47.1939 60.1151 47.1939C59.4911 47.1939 58.9951 46.6979 58.9951 46.0739V30.1379C59.6991 30.6499 60.4511 31.0979 61.2351 31.4499Z" fill="#0054A0"/>
<path d="M55.7636 47.194C55.1396 47.194 54.6436 46.698 54.6436 46.0739V28.346C54.6436 27.722 55.1396 27.226 55.7636 27.226C56.3876 27.226 56.8836 27.722 56.8836 28.346V46.0739C56.8836 46.698 56.3876 47.194 55.7636 47.194Z" fill="#0054A0"/>
<path d="M51.412 47.194C50.788 47.194 50.292 46.698 50.292 46.0739V28.346C50.292 27.722 50.788 27.226 51.412 27.226C52.036 27.226 52.532 27.722 52.532 28.346V46.0739C52.532 46.698 52.02 47.194 51.412 47.194Z" fill="#0054A0"/>
<path d="M47.0438 47.194C46.4198 47.194 45.9238 46.698 45.9238 46.0739V28.346C45.9238 27.722 46.4198 27.226 47.0438 27.226C47.6678 27.226 48.1638 27.722 48.1638 28.346V46.0739C48.1638 46.698 47.6678 47.194 47.0438 47.194Z" fill="#0054A0"/>
<path d="M42.6913 47.194C42.0673 47.194 41.5713 46.698 41.5713 46.0739V28.346C41.5713 27.722 42.0673 27.226 42.6913 27.226C43.3153 27.226 43.8113 27.722 43.8113 28.346V46.0739C43.8113 46.698 43.3153 47.194 42.6913 47.194Z" fill="#0054A0"/>
<path d="M38.3397 47.194C37.7157 47.194 37.2197 46.698 37.2197 46.0739V28.346C37.2197 27.722 37.7157 27.226 38.3397 27.226C38.9637 27.226 39.4597 27.722 39.4597 28.346V46.0739C39.4437 46.698 38.9477 47.194 38.3397 47.194Z" fill="#0054A0"/>
<path d="M33.9716 47.194C33.3476 47.194 32.8516 46.698 32.8516 46.0739V28.346C32.8516 27.722 33.3476 27.226 33.9716 27.226C34.5956 27.226 35.0916 27.722 35.0916 28.346V46.0739C35.0916 46.698 34.5956 47.194 33.9716 47.194Z" fill="#0054A0"/>
<path d="M29.62 47.194C28.996 47.194 28.5 46.698 28.5 46.0739V28.346C28.5 27.722 28.996 27.226 29.62 27.226C30.244 27.226 30.74 27.722 30.74 28.346V46.0739C30.724 46.698 30.228 47.194 29.62 47.194Z" fill="#0054A0"/>
<path d="M25.2518 47.194C24.6278 47.194 24.1318 46.698 24.1318 46.0739V28.346C24.1318 27.722 24.6278 27.226 25.2518 27.226C25.8758 27.226 26.3718 27.722 26.3718 28.346V46.0739C26.3718 46.698 25.8758 47.194 25.2518 47.194Z" fill="#0054A0"/>
<path d="M20.8993 47.194C20.2753 47.194 19.7793 46.698 19.7793 46.0739V28.346C19.7793 27.722 20.2753 27.226 20.8993 27.226C21.5233 27.226 22.0193 27.722 22.0193 28.346V46.0739C22.0193 46.698 21.5073 47.194 20.8993 47.194Z" fill="#0054A0"/>
<path d="M16.5311 47.194C15.9071 47.194 15.4111 46.698 15.4111 46.0739V28.346C15.4111 27.722 15.9071 27.226 16.5311 27.226C17.1551 27.226 17.6511 27.722 17.6511 28.346V46.0739C17.6511 46.698 17.1551 47.194 16.5311 47.194Z" fill="#0054A0"/>
<path d="M12.1796 47.194C11.5556 47.194 11.0596 46.698 11.0596 46.0739V28.346C11.0596 27.722 11.5556 27.226 12.1796 27.226C12.8036 27.226 13.2996 27.722 13.2996 28.346V46.0739C13.2996 46.698 12.7876 47.194 12.1796 47.194Z" fill="#0054A0"/>
<path d="M66.0192 23.0339L66.0032 23.0499H66.0192C66.0352 23.0499 66.0352 23.0339 66.0192 23.0339ZM63.9232 25.2259C63.9232 25.2419 63.9072 25.2739 63.9072 25.2899H63.9712C63.9552 25.2579 63.9392 25.2419 63.9232 25.2259ZM66.0192 23.0339L66.0032 23.0499H66.0192C66.0352 23.0499 66.0352 23.0339 66.0192 23.0339ZM66.0192 23.0339L66.0032 23.0499H66.0192C66.0352 23.0499 66.0352 23.0339 66.0192 23.0339ZM63.9232 25.2259C63.9232 25.2419 63.9072 25.2739 63.9072 25.2899H63.9712C63.9552 25.2579 63.9392 25.2419 63.9232 25.2259ZM63.9232 25.2259C63.9232 25.2419 63.9072 25.2739 63.9072 25.2899H63.9712C63.9552 25.2579 63.9392 25.2419 63.9232 25.2259ZM66.0192 23.0339L66.0032 23.0499H66.0192C66.0352 23.0499 66.0352 23.0339 66.0192 23.0339ZM66.0192 23.0339L66.0032 23.0499H66.0192C66.0352 23.0499 66.0352 23.0339 66.0192 23.0339ZM63.9232 25.2259C63.9232 25.2419 63.9072 25.2739 63.9072 25.2899H63.9712C63.9552 25.2579 63.9392 25.2419 63.9232 25.2259ZM63.9232 25.2259C63.9232 25.2419 63.9072 25.2739 63.9072 25.2899H63.9712C63.9552 25.2579 63.9392 25.2419 63.9232 25.2259ZM66.0192 23.0339L66.0032 23.0499H66.0192C66.0352 23.0499 66.0352 23.0339 66.0192 23.0339ZM66.0192 23.0339L66.0032 23.0499H66.0192C66.0352 23.0499 66.0352 23.0339 66.0192 23.0339ZM63.9232 25.2259C63.9232 25.2419 63.9072 25.2739 63.9072 25.2899H63.9712C63.9552 25.2579 63.9392 25.2419 63.9232 25.2259ZM66.0192 23.0339L66.0032 23.0499H66.0192C66.0352 23.0499 66.0352 23.0339 66.0192 23.0339ZM63.9232 25.2259C63.9232 25.2419 63.9072 25.2739 63.9072 25.2899H63.9712C63.9552 25.2579 63.9392 25.2419 63.9232 25.2259ZM63.9232 25.2259C63.9232 25.2419 63.9072 25.2739 63.9072 25.2899H63.9712C63.9552 25.2579 63.9392 25.2419 63.9232 25.2259ZM66.0192 23.0339L66.0032 23.0499H66.0192C66.0352 23.0499 66.0352 23.0339 66.0192 23.0339ZM66.0192 23.0339L66.0032 23.0499H66.0192C66.0352 23.0499 66.0352 23.0339 66.0192 23.0339ZM63.9232 25.2259C63.9232 25.2419 63.9072 25.2739 63.9072 25.2899H63.9712C63.9552 25.2579 63.9392 25.2419 63.9232 25.2259ZM63.9232 25.2259C63.9232 25.2419 63.9072 25.2739 63.9072 25.2899H63.9712C63.9552 25.2579 63.9392 25.2419 63.9232 25.2259ZM66.0192 23.0339L66.0032 23.0499H66.0192C66.0352 23.0499 66.0352 23.0339 66.0192 23.0339ZM66.0192 23.0339L66.0032 23.0499H66.0192C66.0352 23.0499 66.0352 23.0339 66.0192 23.0339ZM63.9232 25.2259C63.9232 25.2419 63.9072 25.2739 63.9072 25.2899H63.9712C63.9552 25.2579 63.9392 25.2419 63.9232 25.2259ZM63.9232 25.2259C63.9232 25.2419 63.9072 25.2739 63.9072 25.2899H63.9712C63.9552 25.2579 63.9392 25.2419 63.9232 25.2259ZM66.0192 23.0339L66.0032 23.0499H66.0192C66.0352 23.0499 66.0352 23.0339 66.0192 23.0339ZM66.0192 23.0339L66.0032 23.0499H66.0192C66.0352 23.0499 66.0352 23.0339 66.0192 23.0339ZM63.9232 25.2259C63.9232 25.2419 63.9072 25.2739 63.9072 25.2899H63.9712C63.9552 25.2579 63.9392 25.2419 63.9232 25.2259Z" fill="#0054A0"/>
<path d="M63.9232 25.2259C63.9232 25.2419 63.9072 25.2739 63.9072 25.2899H63.9712C63.9552 25.2579 63.9392 25.2419 63.9232 25.2259ZM66.0192 23.0339L66.0032 23.0499H66.0192C66.0352 23.0499 66.0352 23.0339 66.0192 23.0339ZM63.9232 25.2259C63.9232 25.2419 63.9072 25.2739 63.9072 25.2899H63.9712C63.9552 25.2579 63.9392 25.2419 63.9232 25.2259ZM66.0192 23.0339L66.0032 23.0499H66.0192C66.0352 23.0499 66.0352 23.0339 66.0192 23.0339ZM63.9232 25.2259C63.9232 25.2419 63.9072 25.2739 63.9072 25.2899H63.9712C63.9552 25.2579 63.9392 25.2419 63.9232 25.2259ZM66.0192 23.0339L66.0032 23.0499H66.0192C66.0352 23.0499 66.0352 23.0339 66.0192 23.0339ZM66.0192 23.0339L66.0032 23.0499H66.0192C66.0352 23.0499 66.0352 23.0339 66.0192 23.0339ZM63.9232 25.2259C63.9232 25.2419 63.9072 25.2739 63.9072 25.2899H63.9712C63.9552 25.2579 63.9392 25.2419 63.9232 25.2259ZM63.9232 25.2259C63.9232 25.2419 63.9072 25.2739 63.9072 25.2899H63.9712C63.9552 25.2579 63.9392 25.2419 63.9232 25.2259ZM66.0192 23.0339L66.0032 23.0499H66.0192C66.0352 23.0499 66.0352 23.0339 66.0192 23.0339ZM66.0192 23.0339L66.0032 23.0499H66.0192C66.0352 23.0499 66.0352 23.0339 66.0192 23.0339ZM63.9232 25.2259C63.9232 25.2419 63.9072 25.2739 63.9072 25.2899H63.9712C63.9552 25.2579 63.9392 25.2419 63.9232 25.2259ZM63.9232 25.2259C63.9232 25.2419 63.9072 25.2739 63.9072 25.2899H63.9712C63.9552 25.2579 63.9392 25.2419 63.9232 25.2259ZM66.0192 23.0339L66.0032 23.0499H66.0192C66.0352 23.0499 66.0352 23.0339 66.0192 23.0339ZM66.0192 23.0339L66.0032 23.0499H66.0192C66.0352 23.0499 66.0352 23.0339 66.0192 23.0339ZM63.9232 25.2259C63.9232 25.2419 63.9072 25.2739 63.9072 25.2899H63.9712C63.9552 25.2579 63.9392 25.2419 63.9232 25.2259ZM63.9232 25.2259C63.9232 25.2419 63.9072 25.2739 63.9072 25.2899H63.9712C63.9552 25.2579 63.9392 25.2419 63.9232 25.2259ZM66.0192 23.0339L66.0032 23.0499H66.0192C66.0352 23.0499 66.0352 23.0339 66.0192 23.0339ZM66.0192 23.0339L66.0032 23.0499H66.0192C66.0352 23.0499 66.0352 23.0339 66.0192 23.0339ZM63.9232 25.2259C63.9232 25.2419 63.9072 25.2739 63.9072 25.2899H63.9712C63.9552 25.2579 63.9392 25.2419 63.9232 25.2259ZM66.0192 23.0339L66.0032 23.0499H66.0192C66.0352 23.0499 66.0352 23.0339 66.0192 23.0339ZM63.9232 25.2259C63.9232 25.2419 63.9072 25.2739 63.9072 25.2899H63.9712C63.9552 25.2579 63.9392 25.2419 63.9232 25.2259ZM63.9232 25.2259C63.9232 25.2419 63.9072 25.2739 63.9072 25.2899H63.9712C63.9552 25.2579 63.9392 25.2419 63.9232 25.2259ZM66.0192 23.0339L66.0032 23.0499H66.0192C66.0352 23.0499 66.0352 23.0339 66.0192 23.0339ZM66.0192 23.0339L66.0032 23.0499H66.0192C66.0352 23.0499 66.0352 23.0339 66.0192 23.0339ZM63.9232 25.2259C63.9232 25.2419 63.9072 25.2739 63.9072 25.2899H63.9712C63.9552 25.2579 63.9392 25.2419 63.9232 25.2259ZM63.9232 25.2259C63.9232 25.2419 63.9072 25.2739 63.9072 25.2899H63.9712C63.9552 25.2579 63.9392 25.2419 63.9232 25.2259ZM66.0192 23.0339L66.0032 23.0499H66.0192C66.0352 23.0499 66.0352 23.0339 66.0192 23.0339ZM66.0192 23.0339L66.0032 23.0499H66.0192C66.0352 23.0499 66.0352 23.0339 66.0192 23.0339ZM63.9232 25.2259C63.9232 25.2419 63.9072 25.2739 63.9072 25.2899H63.9712C63.9552 25.2579 63.9392 25.2419 63.9232 25.2259ZM63.9232 25.2259C63.9232 25.2419 63.9072 25.2739 63.9072 25.2899H63.9712C63.9552 25.2579 63.9392 25.2419 63.9232 25.2259ZM66.0192 23.0339L66.0032 23.0499H66.0192C66.0352 23.0499 66.0352 23.0339 66.0192 23.0339ZM66.0192 23.0339L66.0032 23.0499H66.0192C66.0352 23.0499 66.0352 23.0339 66.0192 23.0339ZM63.9232 25.2259C63.9232 25.2419 63.9072 25.2739 63.9072 25.2899H63.9712C63.9552 25.2579 63.9392 25.2419 63.9232 25.2259Z" fill="#0054A0"/>
<path d="M65.6032 11.6899C60.2112 11.6899 55.8271 16.0739 55.8271 21.4659C55.8271 22.0099 55.8752 22.5379 55.9552 23.0499C56.0832 23.8339 56.3072 24.5699 56.5952 25.2899C57.1552 26.5859 57.9712 27.7379 58.9952 28.6819C59.6672 29.2899 60.4192 29.8019 61.2352 30.2179C61.9072 30.5539 62.6112 30.8099 63.3632 30.9859C64.0832 31.1459 64.8352 31.2419 65.6032 31.2419C66.3712 31.2419 67.1072 31.1619 67.8272 30.9859C68.6112 30.8099 69.3632 30.5219 70.0672 30.1699C73.2192 28.5539 75.3952 25.2579 75.3952 21.4659C75.3792 16.0739 70.9952 11.6899 65.6032 11.6899ZM70.0512 29.2419C69.3632 29.6419 68.6112 29.9459 67.8112 30.1539C67.1072 30.3299 66.3552 30.4419 65.5872 30.4419C64.8192 30.4419 64.0672 30.3459 63.3472 30.1539C62.5952 29.9619 61.8912 29.6739 61.2192 29.3059C60.4672 28.8899 59.7792 28.3619 59.1712 27.7379C58.4832 27.0339 57.8912 26.2019 57.4592 25.2899C57.1232 24.5859 56.8832 23.8339 56.7392 23.0499C56.6432 22.5379 56.5952 22.0099 56.5952 21.4659C56.5952 16.5219 60.6112 12.5059 65.5552 12.5059C70.4992 12.5059 74.5152 16.5219 74.5152 21.4659C74.5632 24.7779 72.7392 27.6899 70.0512 29.2419Z" fill="#0054A0"/>
<path d="M71.0435 21.9459C70.8355 20.7779 70.3395 19.7379 69.6675 18.7779C69.1875 18.0899 68.6755 17.4179 68.2115 16.7139C67.7475 16.0259 67.4755 15.2579 67.4595 14.3939C67.4595 14.2499 67.4275 14.1219 67.2835 14.0579C67.2355 14.0259 67.1875 14.0259 67.1555 14.0259C67.0595 14.0259 66.9795 14.0739 66.8995 14.1379C66.4515 14.4739 66.0675 14.8419 65.6995 15.2579C64.4995 16.6179 63.8755 18.2179 63.7955 20.0259C63.7635 20.4899 63.7475 20.9539 63.7315 21.4179C63.4115 21.3539 63.1555 21.1779 62.9315 20.9379C62.5155 20.4739 62.3075 19.9299 62.2115 19.3379C62.1635 19.1299 62.0355 19.0019 61.8755 19.0019C61.7955 19.0019 61.6995 19.0339 61.6035 19.0979C61.1395 19.4499 60.8035 19.8979 60.5635 20.4259C60.1955 21.2739 60.0195 22.1539 60.0195 23.0659C60.0195 23.4339 60.0355 23.7859 60.0835 24.1539C60.1315 24.5539 60.2275 24.9379 60.3715 25.2899C60.5955 25.8659 60.9155 26.4099 61.3315 26.9059C61.9075 27.5939 62.5795 28.1059 63.3635 28.4419C63.6835 28.5699 64.0035 28.6819 64.3555 28.7619C64.6435 28.8259 64.9315 28.8579 65.2195 28.9059H65.9715C66.0195 28.8899 66.0835 28.8899 66.1315 28.8739C66.5315 28.7939 66.9475 28.7299 67.3315 28.6179C67.4915 28.5699 67.6515 28.5059 67.8115 28.4419C68.4355 28.1859 68.9955 27.8019 69.4755 27.3219C69.6835 27.1139 69.8755 26.9059 70.0355 26.6819C70.4355 26.1539 70.7235 25.5779 70.9315 24.9219C71.2515 23.9459 71.2195 22.9379 71.0435 21.9459ZM67.4435 26.6019C67.3315 27.5299 66.5795 28.2179 65.6675 28.2819C65.6515 28.2819 65.6195 28.2819 65.6035 28.2819C65.5875 28.2819 65.5875 28.2819 65.5715 28.2819C64.9475 28.2819 64.3555 27.8979 64.0355 27.3379C63.9395 27.1779 63.8755 27.0179 63.8275 26.8259C63.6995 26.2979 63.7475 25.7859 63.9235 25.2739C63.9235 25.2579 63.9395 25.2259 63.9395 25.2099C63.9555 25.2259 63.9715 25.2579 63.9875 25.2739C64.0995 25.4179 64.1795 25.5299 64.2915 25.6419C64.4515 25.8019 64.6435 25.8819 64.8675 25.9139C64.8995 25.9139 64.9155 25.9139 64.9475 25.9139C65.1715 25.9139 65.2835 25.7859 65.2995 25.5459C65.2995 25.4499 65.2995 25.3539 65.3155 25.2579C65.3315 25.0019 65.3475 24.7299 65.3635 24.4739C65.4275 23.9299 65.6675 23.4659 66.0195 23.0179L66.0355 23.0019V23.0179C66.2435 23.6579 66.6915 24.1379 67.0115 24.6979C67.1235 24.8739 67.2035 25.0659 67.2835 25.2579C67.4275 25.7059 67.4915 26.1379 67.4435 26.6019ZM70.0515 25.5299C69.6195 26.4099 68.8995 27.1299 67.9235 27.7059C67.8915 27.7219 67.8595 27.7379 67.8275 27.7539C67.7635 27.7859 67.6835 27.8179 67.6195 27.8499C67.6835 27.7059 67.7635 27.5619 67.8275 27.4179C67.8755 27.3059 67.9235 27.2099 67.9555 27.0979C68.2115 26.2659 68.0835 25.4659 67.6995 24.7139C67.5235 24.3459 67.2675 24.0099 67.0435 23.6739C66.9155 23.4659 66.7875 23.2739 66.6915 23.0499C66.6435 22.9219 66.5955 22.8099 66.5795 22.6659C66.5635 22.5699 66.5635 22.4739 66.5475 22.3779C66.5155 22.1859 66.3875 22.0899 66.2435 22.0899C66.1635 22.0899 66.0995 22.1219 66.0195 22.1699C65.6995 22.4259 65.4275 22.7299 65.2195 23.0499C64.9955 23.4019 64.8355 23.7859 64.7555 24.2179C64.6915 24.5059 64.6755 24.8259 64.6275 25.1619C64.5635 25.0659 64.5155 25.0019 64.4835 24.9219C64.4355 24.7939 64.3875 24.6499 64.3555 24.5219C64.3075 24.3459 64.1955 24.2499 64.0515 24.2499C63.9875 24.2499 63.9075 24.2659 63.8435 24.3299C63.6035 24.4899 63.4435 24.7139 63.3475 24.9859C63.3155 25.0979 63.2675 25.1939 63.2515 25.3059C63.0115 26.1539 63.0435 26.9699 63.5395 27.7539C63.5555 27.7699 63.5555 27.8019 63.5715 27.8179C63.5715 27.8339 63.5875 27.8339 63.5875 27.8499C63.5715 27.8659 63.5715 27.8819 63.5555 27.8819C63.5235 27.8659 63.5075 27.8499 63.4755 27.8339C63.1875 27.6579 62.8995 27.5139 62.6435 27.3219C61.9075 26.7779 61.3635 26.0899 61.0275 25.3059C60.8675 24.9379 60.7555 24.5379 60.6915 24.1059C60.6435 23.7699 60.6435 23.4179 60.6435 23.0819C60.6435 23.0019 60.6435 22.9059 60.6435 22.8259C60.6755 22.0739 60.8035 21.3379 61.1395 20.6659C61.2675 20.3939 61.4595 20.1539 61.6035 19.8819C61.6195 19.8819 61.6355 19.8979 61.6515 19.8979C61.6835 19.9779 61.6995 20.0579 61.7315 20.1379C61.9555 20.7619 62.2755 21.3219 62.8195 21.7219C63.1555 21.9619 63.5235 22.0899 63.9235 22.1059H63.9555C64.2115 22.1059 64.3235 21.9939 64.3235 21.7219C64.3395 21.1939 64.3555 20.6819 64.3715 20.1539C64.4515 18.1059 65.2835 16.3939 66.7875 15.0179C66.8035 15.0019 66.8035 15.0019 66.8355 14.9859C66.8835 15.1939 66.9155 15.3859 66.9635 15.5619C67.1715 16.3139 67.5555 16.9699 67.9875 17.5939C68.4675 18.2659 68.9635 18.9219 69.4115 19.6099C70.0995 20.6499 70.4675 21.8179 70.4995 23.0659C70.5795 23.9779 70.4035 24.8099 70.0515 25.5299Z" fill="#0054A0"/>
</svg>
