<svg width="100" height="100" viewBox="0 0 100 100" fill="none" xmlns="http://www.w3.org/2000/svg">
<path d="M68.2292 8.33337H31.7542C30.8209 8.33337 25.925 8.60421 21.325 13.9625C16.7959 19.2334 16.6667 24.425 16.6667 25V70.8334C16.6667 73.0435 17.5447 75.1631 19.1075 76.7259C20.6703 78.2887 22.7899 79.1667 25 79.1667H29.1667L20.8334 91.6667H30.6375L33.4167 87.5H66.75L69.5709 91.6667H79.1667L70.8334 79.1667H75C77.2102 79.1667 79.3298 78.2887 80.8926 76.7259C82.4554 75.1631 83.3334 73.0435 83.3334 70.8334V25C83.3375 24.2167 83.2 19.025 78.6292 13.8959C73.8125 8.48754 68.7875 8.33337 68.2292 8.33337ZM41.6667 16.6667H58.3334V25H41.6667V16.6667ZM31.25 70.8334C29.5919 70.8328 28.0018 70.1736 26.8297 69.0007C25.6576 67.8278 24.9995 66.2374 25 64.5792C25.0006 62.921 25.6598 61.331 26.8327 60.1589C28.0056 58.9868 29.596 58.3287 31.2542 58.3292C32.9123 58.3298 34.5024 58.989 35.6745 60.1619C36.8466 61.3348 37.5047 62.9252 37.5042 64.5834C37.5036 66.2415 36.8444 67.8316 35.6715 69.0037C34.4986 70.1758 32.9082 70.8339 31.25 70.8334ZM68.75 70.8334C67.0919 70.8328 65.5018 70.1736 64.3297 69.0007C63.1576 67.8278 62.4995 66.2374 62.5 64.5792C62.5006 62.921 63.1598 61.331 64.3327 60.1589C65.5056 58.9868 67.096 58.3287 68.7542 58.3292C70.4123 58.3298 72.0024 58.989 73.1745 60.1619C74.3466 61.3348 75.0047 62.9252 75.0042 64.5834C75.0036 66.2415 74.3444 67.8316 73.1715 69.0037C71.9986 70.1758 70.4082 70.8339 68.75 70.8334ZM75 50H25V33.3334H75V50Z" fill="#0054A0"/>
</svg>
