<svg width="100" height="100" viewBox="0 0 100 100" fill="none" xmlns="http://www.w3.org/2000/svg">
<path d="M83.3333 87.5C77.5417 87.5 71.75 85.5416 66.6667 82C56.5 89.125 43.5 89.125 33.3333 82C28.25 85.5416 22.4583 87.5 16.6667 87.5H8.33333V95.8333H16.6667C22.4167 95.8333 28.0833 94.375 33.3333 91.7083C38.4895 94.3577 44.203 95.7398 50 95.7398C55.797 95.7398 61.5105 94.3577 66.6667 91.7083C71.9167 94.4166 77.5833 95.8333 83.3333 95.8333H91.6667V87.5H83.3333ZM16.4583 79.1666H16.6667C23.3333 79.1666 29.25 75.5 33.3333 70.8333C37.4167 75.5 43.3333 79.1666 50 79.1666C56.6667 79.1666 62.5833 75.5 66.6667 70.8333C70.75 75.5 76.6667 79.1666 83.3333 79.1666H83.5417L92.625 47.2916L83.3333 44.25V16.6666H62.5V4.16663H37.5V16.6666H16.6667V44.25L7.375 47.2916L16.4583 79.1666ZM25 25H75V41.5416L50 33.3333L25 41.5416V25Z" fill="#0054A0"/>
</svg>
