<svg width="100" height="100" viewBox="0 0 100 100" fill="none" xmlns="http://www.w3.org/2000/svg">
<path d="M12.5 16.6666C10.2899 16.6666 8.17024 17.5446 6.60743 19.1074C5.04463 20.6702 4.16666 22.7898 4.16666 25V70.8333H12.5C12.5 74.1485 13.817 77.3279 16.1612 79.6721C18.5054 82.0163 21.6848 83.3333 25 83.3333C28.3152 83.3333 31.4946 82.0163 33.8388 79.6721C36.183 77.3279 37.5 74.1485 37.5 70.8333H62.5C62.5 74.1485 63.8169 77.3279 66.1612 79.6721C68.5054 82.0163 71.6848 83.3333 75 83.3333C78.3152 83.3333 81.4946 82.0163 83.8388 79.6721C86.183 77.3279 87.5 74.1485 87.5 70.8333H95.8333V50L83.3333 33.3333H70.8333V16.6666H12.5ZM41.6667 25L58.3333 41.6666L41.6667 58.3333V45.8333H16.6667V37.5H41.6667V25ZM70.8333 39.5833H81.25L89.4583 50H70.8333V39.5833ZM25 64.5833C26.6576 64.5833 28.2473 65.2418 29.4194 66.4139C30.5915 67.586 31.25 69.1757 31.25 70.8333C31.25 72.4909 30.5915 74.0806 29.4194 75.2527C28.2473 76.4248 26.6576 77.0833 25 77.0833C23.3424 77.0833 21.7527 76.4248 20.5806 75.2527C19.4085 74.0806 18.75 72.4909 18.75 70.8333C18.75 69.1757 19.4085 67.586 20.5806 66.4139C21.7527 65.2418 23.3424 64.5833 25 64.5833ZM75 64.5833C76.6576 64.5833 78.2473 65.2418 79.4194 66.4139C80.5915 67.586 81.25 69.1757 81.25 70.8333C81.25 72.4909 80.5915 74.0806 79.4194 75.2527C78.2473 76.4248 76.6576 77.0833 75 77.0833C73.3424 77.0833 71.7527 76.4248 70.5806 75.2527C69.4085 74.0806 68.75 72.4909 68.75 70.8333C68.75 69.1757 69.4085 67.586 70.5806 66.4139C71.7527 65.2418 73.3424 64.5833 75 64.5833Z" fill="#0054A0"/>
</svg>
