<svg width="70" height="70" viewBox="0 0 70 70" fill="none" xmlns="http://www.w3.org/2000/svg">
<path d="M31.8477 38.5984C31.1623 37.8682 29.7619 37.446 27.7772 37.446C26.7151 37.446 25.4875 37.5515 24.1506 37.8003C23.3336 36.9944 22.59 36.1173 21.9289 35.1794C21.417 34.4679 20.9687 33.7146 20.558 32.9728C21.3411 30.5254 21.7214 28.5292 21.7214 27.0912C21.7214 25.4796 21.1379 23.8 19.4656 23.8C18.9494 23.8 18.4375 24.1124 18.1627 24.5722C17.4094 25.9278 17.7485 28.903 19.0477 31.8398C18.5521 33.338 18.0057 34.8188 17.4094 36.2798C16.8448 37.62 16.2254 38.9365 15.5527 40.2259C11.7909 41.7551 9.35441 43.5358 9.12883 44.937C9.02689 45.4641 9.20041 45.9463 9.56914 46.3338C9.69711 46.4394 10.1794 46.8573 10.9963 46.8573C13.4929 46.8573 16.1217 42.734 17.4621 40.2447C18.4866 39.8984 19.5147 39.5817 20.5385 39.2658C21.6204 38.967 22.7164 38.7219 23.8224 38.5312C26.4585 40.9453 28.7815 41.3256 29.9491 41.3256C31.3879 41.3256 31.8998 40.7306 32.0733 40.2447C32.3444 39.6157 32.1413 38.9231 31.8325 38.5652L31.8513 38.6028L31.8477 38.5984ZM30.5145 39.615C30.4126 40.1384 29.8971 40.4884 29.1777 40.4884C28.9745 40.4884 28.801 40.4508 28.5942 40.4204C27.2834 40.1037 26.0565 39.4378 24.8324 38.3866C25.7819 38.2272 26.7429 38.1467 27.7056 38.1458C28.4171 38.1458 29.0352 38.1798 29.4488 38.2854C29.9231 38.3873 30.6764 38.7069 30.5073 39.6186H30.5261L30.5145 39.615ZM23.2621 37.9694C22.3094 38.1639 21.3625 38.3862 20.4228 38.636C19.6054 38.858 18.7955 39.1067 17.9943 39.3815C18.4103 38.5576 18.7983 37.7199 19.1576 36.8697C19.5719 35.8872 19.911 34.8743 20.2537 33.9322C20.5891 34.5236 20.9651 35.1186 21.3418 35.6493C21.9592 36.4887 22.6034 37.2876 23.2512 37.9839V37.9651L23.2621 37.9694ZM18.7766 24.9706C18.8369 24.8472 18.9298 24.7427 19.0452 24.6684C19.1607 24.5941 19.2943 24.5528 19.4316 24.5491C20.151 24.5491 20.2862 25.3849 20.2862 26.0551C20.2862 27.1808 19.9435 28.8907 19.36 30.8414C18.3355 28.1229 18.2683 25.8483 18.7802 24.9706H18.7766ZM15.0148 41.2605C13.2716 44.1938 11.5957 46.0128 10.5676 46.0128C10.3681 46.0128 10.1945 45.9412 10.0593 45.8393C9.85256 45.6282 9.75061 45.3838 9.81858 45.1047C10.0254 44.0542 11.976 42.5858 15.0191 41.2598L15.0148 41.2605Z" fill="#0054A0" stroke="#0054A0"/>
<path fill-rule="evenodd" clip-rule="evenodd" d="M16.3333 0C14.4768 0 12.6963 0.737498 11.3836 2.05025C10.0708 3.36301 9.33333 5.14348 9.33333 7V14H7C5.14348 14 3.36301 14.7375 2.05025 16.0503C0.737498 17.363 0 19.1435 0 21L0 49C0 50.8565 0.737498 52.637 2.05025 53.9497C3.36301 55.2625 5.14348 56 7 56H9.33333V63C9.33333 64.8565 10.0708 66.637 11.3836 67.9497C12.6963 69.2625 14.4768 70 16.3333 70H63C64.8565 70 66.637 69.2625 67.9497 67.9497C69.2625 66.637 70 64.8565 70 63V7C70 5.14348 69.2625 3.36301 67.9497 2.05025C66.637 0.737498 64.8565 0 63 0L16.3333 0ZM7 18.6667C6.38116 18.6667 5.78767 18.9125 5.35008 19.3501C4.9125 19.7877 4.66667 20.3812 4.66667 21V49C4.66667 49.6188 4.9125 50.2123 5.35008 50.6499C5.78767 51.0875 6.38116 51.3333 7 51.3333H35C35.6188 51.3333 36.2123 51.0875 36.6499 50.6499C37.0875 50.2123 37.3333 49.6188 37.3333 49V21C37.3333 20.3812 37.0875 19.7877 36.6499 19.3501C36.2123 18.9125 35.6188 18.6667 35 18.6667H7Z" fill="#0054A0"/>
</svg>
