<svg width="70" height="70" viewBox="0 0 70 70" fill="none" xmlns="http://www.w3.org/2000/svg">
<path d="M9.40332 26.2314L14.07 44.898C14.1797 45.3364 14.4145 45.7335 14.7456 46.0411C15.0767 46.3486 15.4901 46.5534 15.9354 46.6305C16.3807 46.7076 16.8388 46.6537 17.2541 46.4754C17.6693 46.2971 18.0239 46.002 18.2747 45.626L21 41.538L23.7253 45.626C23.9761 46.002 24.3306 46.2971 24.7459 46.4754C25.1612 46.6537 25.6193 46.7076 26.0646 46.6305C26.5099 46.5534 26.9232 46.3486 27.2544 46.0411C27.5855 45.7335 27.8202 45.3364 27.93 44.898L32.5967 26.2314L28.07 25.1021L24.682 38.6494L22.9413 36.036C22.7282 35.7165 22.4396 35.4545 22.1009 35.2732C21.7622 35.092 21.3841 34.9972 21 34.9972C20.6159 34.9972 20.2377 35.092 19.8991 35.2732C19.5604 35.4545 19.2717 35.7165 19.0587 36.036L17.318 38.6494L13.93 25.1021L9.40332 26.2314Z" fill="#0054A0"/>
<path fill-rule="evenodd" clip-rule="evenodd" d="M16.3333 0C14.4768 0 12.6963 0.737498 11.3836 2.05025C10.0708 3.36301 9.33333 5.14348 9.33333 7V14H7C5.14348 14 3.36301 14.7375 2.05025 16.0503C0.737498 17.363 0 19.1435 0 21L0 49C0 50.8565 0.737498 52.637 2.05025 53.9497C3.36301 55.2625 5.14348 56 7 56H9.33333V63C9.33333 64.8565 10.0708 66.637 11.3836 67.9497C12.6963 69.2625 14.4768 70 16.3333 70H63C64.8565 70 66.637 69.2625 67.9497 67.9497C69.2625 66.637 70 64.8565 70 63V7C70 5.14348 69.2625 3.36301 67.9497 2.05025C66.637 0.737498 64.8565 0 63 0L16.3333 0ZM7 18.6667C6.38116 18.6667 5.78767 18.9125 5.35008 19.3501C4.9125 19.7877 4.66667 20.3812 4.66667 21V49C4.66667 49.6188 4.9125 50.2123 5.35008 50.6499C5.78767 51.0875 6.38116 51.3333 7 51.3333H35C35.6188 51.3333 36.2123 51.0875 36.6499 50.6499C37.0875 50.2123 37.3333 49.6188 37.3333 49V21C37.3333 20.3812 37.0875 19.7877 36.6499 19.3501C36.2123 18.9125 35.6188 18.6667 35 18.6667H7Z" fill="#0054A0"/>
</svg>
